SplineFontDB: 3.0
FontName: BoonJot-400
FullName: BoonJot 400
FamilyName: BoonJot
Weight: 400
Copyright: Copyright 2015, Sungsit Sawaiwan (https://fontuni.com | uni@fontuni.com). This Font Software is licensed under the SIL Open Font License, Version 1.1 (http://scripts.sil.org/OFL).
FontLog: "BoonJot is left-handed comic sans, I supposed. It+IBkA-s machine-made family with unique stroke speed, pen shape & drawing direction especially Thai glyphs. +AAoACgAA-ChangeLog+AAoACgAA-v1.0-beta2:+AAoA-- Improved kerning+AAoACgAA-v1.0-beta1: 10 July 2015+AAoA-- Added Latin kerning+AAoACgAA-v1.0-alpha2: 5 July 2015+AAoA-- Improved Thai OpenType features+AAoA-- Added more essential OpenType features+AAoACgAA-v1.0-alpha1: 2 July 2015+AAoA-- Renamed from BoonThing to BoonJot+AAoA-- Added full Adobe Latin-4 +- Thai glyphs+AAoA-- Added basic OpenType features"
Version: 1.0.1
ItalicAngle: 0
UnderlinePosition: -90
UnderlineWidth: 30
Ascent: 960
Descent: 240
InvalidEm: 0
UFOAscent: 960
UFODescent: -240
LayerCount: 3
Layer: 0 0 "Back" 1
Layer: 1 0 "Fore" 0
Layer: 2 0 "400" 0
FSType: 0
OS2Version: 1
OS2_WeightWidthSlopeOnly: 0
OS2_UseTypoMetrics: 0
CreationTime: 1435153839
ModificationTime: 1445991306
PfmFamily: 33
TTFWeight: 400
TTFWidth: 5
LineGap: 90
VLineGap: 0
Panose: 2 0 6 3 0 0 0 0 0 0
OS2TypoAscent: 960
OS2TypoAOffset: 0
OS2TypoDescent: -240
OS2TypoDOffset: 0
OS2TypoLinegap: 90
OS2WinAscent: 1320
OS2WinAOffset: 0
OS2WinDescent: 480
OS2WinDOffset: 0
HheadAscent: 1320
HheadAOffset: 0
HheadDescent: -480
HheadDOffset: 0
OS2Vendor: 'FUni'
OS2CodePages: 20010193.00000000
OS2UnicodeRanges: a10000ff.5000207b.00000000.00000000
MarkAttachClasses: 1
DEI: 91125
LangName: 1033 "" "" "" "" "" "" "" "" "FontUni" "Sungsit Sawaiwan" "" "https://boonuni.com/" "https://sungsit.com/" "" "http://scripts.sil.org/OFL" "" "BoonJot"
Encoding: UnicodeFull
Compacted: 1
UnicodeInterp: none
NameList: Adobe Glyph List
DisplaySize: -48
DisplayLayer: 2
AntiAlias: 1
FitToEm: 1
BeginPrivate: 0
EndPrivate

StartChar: .notdef
Encoding: 1114112 -1 0
Width: 720
VWidth: 0
Flags: MW
LayerCount: 3
Back
SplineSet
538 553 m 0
 536 417 539 162 543 25 c 1
 463 18 313 18 191 25 c 5
 185 209 180 429 177 585 c 1
 250 582 451 583 537 585 c 1025
EndSplineSet
Fore
SplineSet
516 564 m 1
 466 563 392 562 323 562 c 0
 280 562 239 562 207 563 c 1
 210 415 215 216 220 44 c 1
 272 41 330 40 384 40 c 0
 432 40 477 41 513 43 c 1
 510 153 507 322 507 452 c 0
 507 489 508 522 508 550 c 0
 508 555 511 560 516 564 c 1
556 571 m 1
 564 568 568 562 568 556 c 0
 568 526 567 491 567 452 c 0
 567 314 570 136 573 29 c 0
 573 19 561 7 542 5 c 0
 500 1 442 0 378 -0 c 0
 314 0 246 1 184 5 c 0
 171 6 161 12 161 21 c 0
 155 205 150 425 147 581 c 0
 147 584 147 605 180 605 c 0
 181 605 182 605 184 605 c 0
 210 604 254 603 303 603 c 0
 387 603 487 605 541 606 c 0
 556 606 566 599 566 589 c 0
 566 588 566 587 566 586 c 0
 565 581 562 575 556 571 c 1
EndSplineSet
Validated: 1
Layer: 2
SplineSet
516 564 m 1
 466 563 392 562 323 562 c 0
 280 562 239 562 207 563 c 1
 210 415 215 216 220 44 c 1
 272 41 330 40 384 40 c 0
 432 40 477 41 513 43 c 1
 510 153 507 322 507 452 c 0
 507 489 508 522 508 550 c 0
 508 555 511 560 516 564 c 1
556 571 m 1
 564 568 568 562 568 556 c 0
 568 526 567 491 567 452 c 0
 567 314 570 136 573 29 c 0
 573 19 561 7 542 5 c 0
 500 1 442 0 378 -0 c 0
 314 0 246 1 184 5 c 0
 171 6 161 12 161 21 c 0
 155 205 150 425 147 581 c 0
 147 584 147 605 180 605 c 0
 181 605 182 605 184 605 c 0
 210 604 254 603 303 603 c 0
 387 603 487 605 541 606 c 0
 556 606 566 599 566 589 c 0
 566 588 566 587 566 586 c 0
 565 581 562 575 556 571 c 1
EndSplineSet
Validated: 1
EndChar

StartChar: uni25CC
Encoding: 9676 9676 4
Width: 720
VWidth: 0
GlyphClass: 2
Flags: MW
LayerCount: 3
Fore
SplineSet
387 31 m 256
 388 30 395 24 395 13 c 258
 395 7 l 258
 393 -4 379 -20 356 -20 c 256
 335 -20 325 -6 325 7 c 256
 325 17 334 40 364 40 c 256
 366 40 369 39 371 39 c 258
 378 37 l 258
 382 36 385 33 387 31 c 256
387 611 m 256
 388 610 395 604 395 593 c 258
 395 587 l 258
 393 576 379 560 356 560 c 256
 335 560 325 574 325 587 c 256
 325 597 334 620 364 620 c 256
 366 620 369 619 371 619 c 258
 378 617 l 258
 382 616 385 613 387 611 c 256
629 327 m 256
 630 328 636 335 647 335 c 258
 653 335 l 258
 664 333 680 319 680 296 c 256
 680 275 666 265 653 265 c 256
 643 265 620 274 620 304 c 256
 620 306 621 309 621 311 c 258
 623 318 l 258
 624 322 627 325 629 327 c 256
49 327 m 256
 50 328 56 335 67 335 c 258
 73 335 l 258
 84 333 100 319 100 296 c 256
 100 275 86 265 73 265 c 256
 63 265 40 274 40 304 c 256
 40 306 41 309 41 311 c 258
 43 318 l 258
 44 322 47 325 49 327 c 256
518 81 m 256
 519 81 528 79 534 69 c 258
 537 64 l 258
 538 62 538 58 538 55 c 256
 538 44 533 30 517 21 c 256
 511 18 504 16 499 16 c 256
 488 16 480 22 476 29 c 256
 474 32 472 39 472 45 c 256
 472 55 477 68 493 77 c 256
 495 78 498 78 500 79 c 258
 507 81 l 258
 509 81 511 82 513 82 c 256
 515 82 516 81 518 81 c 256
228 583 m 256
 229 583 238 581 244 571 c 258
 247 566 l 258
 248 564 248 560 248 557 c 256
 248 546 243 532 227 523 c 256
 221 520 214 518 209 518 c 256
 198 518 190 524 186 531 c 256
 184 534 182 541 182 547 c 256
 182 557 187 570 203 579 c 256
 205 580 208 581 210 582 c 258
 217 584 l 258
 218 584 219 584 220 584 c 256
 223 584 226 584 228 583 c 256
579 458 m 256
 579 459 581 468 591 474 c 258
 596 477 l 258
 598 478 602 478 605 478 c 256
 616 478 630 473 639 457 c 256
 642 451 644 444 644 439 c 256
 644 428 638 420 631 416 c 256
 628 414 621 412 615 412 c 256
 605 412 592 417 583 433 c 256
 582 435 582 438 581 440 c 258
 579 447 l 258
 579 449 578 451 578 453 c 256
 578 455 579 456 579 458 c 256
77 168 m 256
 77 169 79 178 89 184 c 258
 94 187 l 258
 96 188 100 188 103 188 c 256
 114 188 128 183 137 167 c 256
 140 161 142 154 142 149 c 256
 142 138 136 130 129 126 c 256
 126 124 119 122 113 122 c 256
 103 122 90 127 81 143 c 256
 80 145 79 148 78 150 c 258
 76 157 l 258
 76 158 76 159 76 160 c 256
 76 163 76 166 77 168 c 256
249 54 m 256
 249 53 250 50 250 46 c 256
 250 43 250 38 247 34 c 258
 244 29 l 258
 240 23 230 19 219 19 c 256
 212 19 205 20 197 25 c 256
 185 32 180 43 180 52 c 256
 180 57 181 60 183 64 c 256
 186 70 196 79 211 79 c 256
 217 79 225 78 233 73 c 256
 235 72 237 69 239 68 c 258
 244 63 l 258
 247 60 248 57 249 54 c 256
539 556 m 256
 539 555 540 552 540 548 c 256
 540 545 540 540 537 536 c 258
 534 531 l 258
 530 525 520 521 509 521 c 256
 502 521 495 522 487 527 c 256
 475 534 470 545 470 554 c 256
 470 559 471 562 473 566 c 256
 476 572 486 581 501 581 c 256
 507 581 515 580 523 575 c 256
 525 574 527 572 529 571 c 258
 534 566 l 258
 537 563 538 559 539 556 c 256
606 189 m 256
 607 189 610 190 614 190 c 256
 617 190 622 190 626 187 c 258
 631 184 l 258
 637 180 641 170 641 159 c 256
 641 152 640 145 635 137 c 256
 628 125 617 120 608 120 c 256
 603 120 600 121 596 123 c 256
 590 126 581 136 581 151 c 256
 581 157 582 165 587 173 c 256
 588 175 591 177 592 179 c 258
 597 184 l 258
 600 187 603 188 606 189 c 256
104 479 m 256
 105 479 108 480 112 480 c 256
 115 480 120 480 124 477 c 258
 129 474 l 258
 135 470 139 460 139 449 c 256
 139 442 138 435 133 427 c 256
 126 415 115 410 106 410 c 256
 101 410 98 411 94 413 c 256
 88 416 79 426 79 441 c 256
 79 447 80 455 85 463 c 256
 86 465 88 467 89 469 c 258
 94 474 l 258
 97 477 101 478 104 479 c 256
EndSplineSet
Validated: 1
Layer: 2
SplineSet
387 31 m 256
 388 30 395 24 395 13 c 258
 395 7 l 258
 393 -4 379 -20 356 -20 c 256
 335 -20 325 -6 325 7 c 256
 325 17 334 40 364 40 c 256
 366 40 369 39 371 39 c 258
 378 37 l 258
 382 36 385 33 387 31 c 256
387 611 m 256
 388 610 395 604 395 593 c 258
 395 587 l 258
 393 576 379 560 356 560 c 256
 335 560 325 574 325 587 c 256
 325 597 334 620 364 620 c 256
 366 620 369 619 371 619 c 258
 378 617 l 258
 382 616 385 613 387 611 c 256
629 327 m 256
 630 328 636 335 647 335 c 258
 653 335 l 258
 664 333 680 319 680 296 c 256
 680 275 666 265 653 265 c 256
 643 265 620 274 620 304 c 256
 620 306 621 309 621 311 c 258
 623 318 l 258
 624 322 627 325 629 327 c 256
49 327 m 256
 50 328 56 335 67 335 c 258
 73 335 l 258
 84 333 100 319 100 296 c 256
 100 275 86 265 73 265 c 256
 63 265 40 274 40 304 c 256
 40 306 41 309 41 311 c 258
 43 318 l 258
 44 322 47 325 49 327 c 256
518 81 m 256
 519 81 528 79 534 69 c 258
 537 64 l 258
 538 62 538 58 538 55 c 256
 538 44 533 30 517 21 c 256
 511 18 504 16 499 16 c 256
 488 16 480 22 476 29 c 256
 474 32 472 39 472 45 c 256
 472 55 477 68 493 77 c 256
 495 78 498 78 500 79 c 258
 507 81 l 258
 509 81 511 82 513 82 c 256
 515 82 516 81 518 81 c 256
228 583 m 256
 229 583 238 581 244 571 c 258
 247 566 l 258
 248 564 248 560 248 557 c 256
 248 546 243 532 227 523 c 256
 221 520 214 518 209 518 c 256
 198 518 190 524 186 531 c 256
 184 534 182 541 182 547 c 256
 182 557 187 570 203 579 c 256
 205 580 208 581 210 582 c 258
 217 584 l 258
 218 584 219 584 220 584 c 256
 223 584 226 584 228 583 c 256
579 458 m 256
 579 459 581 468 591 474 c 258
 596 477 l 258
 598 478 602 478 605 478 c 256
 616 478 630 473 639 457 c 256
 642 451 644 444 644 439 c 256
 644 428 638 420 631 416 c 256
 628 414 621 412 615 412 c 256
 605 412 592 417 583 433 c 256
 582 435 582 438 581 440 c 258
 579 447 l 258
 579 449 578 451 578 453 c 256
 578 455 579 456 579 458 c 256
77 168 m 256
 77 169 79 178 89 184 c 258
 94 187 l 258
 96 188 100 188 103 188 c 256
 114 188 128 183 137 167 c 256
 140 161 142 154 142 149 c 256
 142 138 136 130 129 126 c 256
 126 124 119 122 113 122 c 256
 103 122 90 127 81 143 c 256
 80 145 79 148 78 150 c 258
 76 157 l 258
 76 158 76 159 76 160 c 256
 76 163 76 166 77 168 c 256
249 54 m 256
 249 53 250 50 250 46 c 256
 250 43 250 38 247 34 c 258
 244 29 l 258
 240 23 230 19 219 19 c 256
 212 19 205 20 197 25 c 256
 185 32 180 43 180 52 c 256
 180 57 181 60 183 64 c 256
 186 70 196 79 211 79 c 256
 217 79 225 78 233 73 c 256
 235 72 237 69 239 68 c 258
 244 63 l 258
 247 60 248 57 249 54 c 256
539 556 m 256
 539 555 540 552 540 548 c 256
 540 545 540 540 537 536 c 258
 534 531 l 258
 530 525 520 521 509 521 c 256
 502 521 495 522 487 527 c 256
 475 534 470 545 470 554 c 256
 470 559 471 562 473 566 c 256
 476 572 486 581 501 581 c 256
 507 581 515 580 523 575 c 256
 525 574 527 572 529 571 c 258
 534 566 l 258
 537 563 538 559 539 556 c 256
606 189 m 256
 607 189 610 190 614 190 c 256
 617 190 622 190 626 187 c 258
 631 184 l 258
 637 180 641 170 641 159 c 256
 641 152 640 145 635 137 c 256
 628 125 617 120 608 120 c 256
 603 120 600 121 596 123 c 256
 590 126 581 136 581 151 c 256
 581 157 582 165 587 173 c 256
 588 175 591 177 592 179 c 258
 597 184 l 258
 600 187 603 188 606 189 c 256
104 479 m 256
 105 479 108 480 112 480 c 256
 115 480 120 480 124 477 c 258
 129 474 l 258
 135 470 139 460 139 449 c 256
 139 442 138 435 133 427 c 256
 126 415 115 410 106 410 c 256
 101 410 98 411 94 413 c 256
 88 416 79 426 79 441 c 256
 79 447 80 455 85 463 c 256
 86 465 88 467 89 469 c 258
 94 474 l 258
 97 477 101 478 104 479 c 256
EndSplineSet
Validated: 1
EndChar

StartChar: exclam
Encoding: 33 33 5
Width: 330
VWidth: 0
GlyphClass: 2
Flags: HMW
LayerCount: 3
Back
SplineSet
140 800 m 1
 180 807 l 1
 178 720 182 570 165 300 c 1
 157 438 150 713 140 800 c 1
EndSplineSet
Refer: 18 46 S 1 0 0 1 0 0 2
Fore
SplineSet
136 828 m 258
 176 835 l 258
 179 836 183 836 187 836 c 256
 202 836 220 830 220 812 c 258
 220 811 l 258
 218 725 222 574 205 303 c 256
 204 285 176 268 153 268 c 256
 138 268 126 275 125 295 c 256
 117 433 111 709 101 794 c 256
 101 795 101 795 101 796 c 256
 101 811 118 825 136 828 c 258
EndSplineSet
Refer: 18 46 S 1 0 0 1 0 0 2
Validated: 1
Layer: 2
SplineSet
136 828 m 258
 176 835 l 258
 179 836 183 836 187 836 c 256
 202 836 220 830 220 812 c 258
 220 811 l 258
 218 725 222 574 205 303 c 256
 204 285 176 268 153 268 c 256
 138 268 126 275 125 295 c 256
 117 433 111 709 101 794 c 256
 101 795 101 795 101 796 c 256
 101 811 118 825 136 828 c 258
EndSplineSet
Refer: 18 46 S 1 0 0 1 0 0 2
Validated: 1
EndChar

StartChar: quotedbl
Encoding: 34 34 6
Width: 510
VWidth: 0
GlyphClass: 2
Flags: MW
LayerCount: 3
Back
SplineSet
344 809 m 1
 363 810 l 1
 362 723 357 616 352 585 c 1
 348 624 349 722 344 809 c 1
147 807 m 1
 166 808 l 1
 165 721 164 611 159 580 c 1
 155 619 152 720 147 807 c 1
EndSplineSet
Fore
SplineSet
347 838 m 258
 366 839 l 258
 367 839 367 839 368 839 c 256
 389 839 403 827 403 814 c 256
 402 726 397 620 391 586 c 256
 389 571 362 553 340 553 c 256
 326 553 315 560 313 579 c 256
 309 621 309 718 304 804 c 256
 304 805 304 805 304 806 c 256
 304 818 315 836 347 838 c 258
150 836 m 258
 169 837 l 258
 170 837 170 837 171 837 c 256
 192 837 206 825 206 812 c 256
 205 724 204 616 198 581 c 256
 196 566 169 548 147 548 c 256
 133 548 122 555 120 574 c 256
 116 615 112 715 107 802 c 256
 107 803 107 803 107 804 c 256
 107 816 118 834 150 836 c 258
EndSplineSet
Validated: 1
Layer: 2
SplineSet
347 838 m 258
 366 839 l 258
 367 839 367 839 368 839 c 256
 389 839 403 827 403 814 c 256
 402 726 397 620 391 586 c 256
 389 571 362 553 340 553 c 256
 326 553 315 560 313 579 c 256
 309 621 309 718 304 804 c 256
 304 805 304 805 304 806 c 256
 304 818 315 836 347 838 c 258
150 836 m 258
 169 837 l 258
 170 837 170 837 171 837 c 256
 192 837 206 825 206 812 c 256
 205 724 204 616 198 581 c 256
 196 566 169 548 147 548 c 256
 133 548 122 555 120 574 c 256
 116 615 112 715 107 802 c 256
 107 803 107 803 107 804 c 256
 107 816 118 834 150 836 c 258
EndSplineSet
Validated: 1
EndChar

StartChar: numbersign
Encoding: 35 35 7
Width: 720
VWidth: 0
GlyphClass: 2
Flags: MW
LayerCount: 3
Back
SplineSet
620 265 m 21
 403 264 277 263 60 270 c 1025
100 550 m 1
 317 543 443 544 660 545 c 1037
570 810 m 1
 521 503 485 317 420 10 c 1025
300 800 m 1
 251 493 215 307 150 0 c 1025
EndSplineSet
Fore
SplineSet
305 829 m 256
 325 829 339 819 339 804 c 256
 339 803 339 802 339 801 c 256
 326 718 313 644 301 574 c 257
 365 573 427 573 492 573 c 257
 505 646 517 723 531 809 c 256
 533 825 554 839 575 839 c 256
 595 839 609 829 609 814 c 256
 609 813 609 812 609 811 c 256
 595 724 583 647 570 574 c 257
 600 574 632 574 666 574 c 256
 685 574 699 563 699 549 c 256
 699 548 699 546 699 545 c 256
 696 529 675 516 654 516 c 256
 621 516 589 516 559 516 c 257
 546 441 532 369 517 294 c 257
 551 294 587 294 626 294 c 256
 645 294 659 283 659 269 c 256
 659 268 659 266 659 265 c 256
 656 249 635 236 614 236 c 256
 575 236 540 236 506 236 c 257
 492 166 476 92 459 10 c 256
 456 -6 435 -19 414 -19 c 256
 395 -19 381 -8 381 6 c 256
 381 7 381 9 381 10 c 256
 398 92 414 166 428 235 c 257
 363 235 303 235 238 236 c 257
 223 163 207 87 189 -0 c 256
 186 -16 165 -29 144 -29 c 256
 125 -29 111 -18 111 -4 c 256
 111 -3 111 -1 111 0 c 256
 129 87 145 165 160 238 c 257
 126 239 91 240 52 241 c 256
 33 242 20 253 20 266 c 256
 20 268 21 269 21 271 c 256
 25 286 46 299 66 299 c 256
 67 299 67 299 68 299 c 256
 105 298 139 297 172 296 c 257
 187 371 201 443 214 518 c 257
 176 519 136 520 92 521 c 256
 73 522 60 533 60 546 c 256
 60 548 61 549 61 551 c 256
 65 566 86 579 106 579 c 256
 107 579 107 579 108 579 c 256
 150 578 188 577 224 576 c 257
 236 645 248 718 261 799 c 256
 263 815 284 829 305 829 c 256
291 516 m 257
 278 441 265 370 250 295 c 257
 315 294 374 293 439 293 c 257
 454 368 469 440 482 515 c 257
 417 515 355 515 291 516 c 257
EndSplineSet
Validated: 1
Layer: 2
SplineSet
305 829 m 256
 325 829 339 819 339 804 c 256
 339 803 339 802 339 801 c 256
 326 718 313 644 301 574 c 257
 365 573 427 573 492 573 c 257
 505 646 517 723 531 809 c 256
 533 825 554 839 575 839 c 256
 595 839 609 829 609 814 c 256
 609 813 609 812 609 811 c 256
 595 724 583 647 570 574 c 257
 600 574 632 574 666 574 c 256
 685 574 699 563 699 549 c 256
 699 548 699 546 699 545 c 256
 696 529 675 516 654 516 c 256
 621 516 589 516 559 516 c 257
 546 441 532 369 517 294 c 257
 551 294 587 294 626 294 c 256
 645 294 659 283 659 269 c 256
 659 268 659 266 659 265 c 256
 656 249 635 236 614 236 c 256
 575 236 540 236 506 236 c 257
 492 166 476 92 459 10 c 256
 456 -6 435 -19 414 -19 c 256
 395 -19 381 -8 381 6 c 256
 381 7 381 9 381 10 c 256
 398 92 414 166 428 235 c 257
 363 235 303 235 238 236 c 257
 223 163 207 87 189 -0 c 256
 186 -16 165 -29 144 -29 c 256
 125 -29 111 -18 111 -4 c 256
 111 -3 111 -1 111 0 c 256
 129 87 145 165 160 238 c 257
 126 239 91 240 52 241 c 256
 33 242 20 253 20 266 c 256
 20 268 21 269 21 271 c 256
 25 286 46 299 66 299 c 256
 67 299 67 299 68 299 c 256
 105 298 139 297 172 296 c 257
 187 371 201 443 214 518 c 257
 176 519 136 520 92 521 c 256
 73 522 60 533 60 546 c 256
 60 548 61 549 61 551 c 256
 65 566 86 579 106 579 c 256
 107 579 107 579 108 579 c 256
 150 578 188 577 224 576 c 257
 236 645 248 718 261 799 c 256
 263 815 284 829 305 829 c 256
291 516 m 257
 278 441 265 370 250 295 c 257
 315 294 374 293 439 293 c 257
 454 368 469 440 482 515 c 257
 417 515 355 515 291 516 c 257
EndSplineSet
Validated: 1
EndChar

StartChar: dollar
Encoding: 36 36 8
Width: 720
VWidth: 0
GlyphClass: 2
Flags: HMW
LayerCount: 3
Back
SplineSet
365 -100 m 5
 351 293 355 507 360 900 c 1029
EndSplineSet
Refer: 55 83 N 1 0 0 1 0 0 2
Fore
SplineSet
360 926 m 256
 362 926 363 926 365 926 c 256
 383 926 397 917 397 904 c 256
 397 876 396 848 396 822 c 257
 397 822 399 822 400 822 c 256
 539 822 614 737 614 648 c 256
 614 640 613 633 612 625 c 256
 609 604 581 585 552 584 c 256
 551 584 551 584 550 584 c 256
 524 584 504 598 504 617 c 256
 504 618 504 620 504 621 c 256
 505 626 505 631 505 636 c 256
 505 692 458 739 395 744 c 257
 394 637 392 541 392 448 c 257
 439 432 486 415 506 408 c 256
 622 371 674 294 674 216 c 256
 674 174 658 131 630 94 c 256
 584 35 503 -13 400 -21 c 257
 401 -45 401 -70 402 -95 c 258
 402 -96 l 258
 402 -110 385 -123 366 -126 c 256
 364 -126 361 -127 359 -127 c 256
 342 -127 329 -117 328 -105 c 256
 327 -76 326 -47 325 -20 c 257
 197 -8 115 60 80 147 c 256
 79 150 78 154 78 157 c 256
 78 174 94 192 118 199 c 256
 126 201 134 202 141 202 c 256
 161 202 178 194 184 179 c 256
 208 119 256 78 323 63 c 257
 320 176 318 276 318 375 c 257
 284 387 253 398 236 404 c 256
 123 442 70 515 70 590 c 256
 70 601 71 611 73 622 c 256
 91 709 184 793 322 816 c 257
 322 842 323 868 323 896 c 256
 323 910 340 924 360 926 c 256
319 474 m 257
 319 558 320 643 321 738 c 257
 239 722 192 674 181 622 c 256
 180 615 179 609 179 602 c 256
 179 555 213 509 294 482 c 256
 301 480 309 477 319 474 c 257
393 350 m 257
 393 258 394 163 397 56 c 257
 462 59 509 86 537 124 c 256
 555 148 565 176 565 203 c 256
 565 254 531 305 450 330 c 256
 438 334 418 341 393 350 c 257
EndSplineSet
Validated: 1
Layer: 2
SplineSet
360 926 m 256
 362 926 363 926 365 926 c 256
 383 926 397 917 397 904 c 256
 397 876 396 848 396 822 c 257
 397 822 399 822 400 822 c 256
 539 822 614 737 614 648 c 256
 614 640 613 633 612 625 c 256
 609 604 581 585 552 584 c 256
 551 584 551 584 550 584 c 256
 524 584 504 598 504 617 c 256
 504 618 504 620 504 621 c 256
 505 626 505 631 505 636 c 256
 505 692 458 739 395 744 c 257
 394 637 392 541 392 448 c 257
 439 432 486 415 506 408 c 256
 622 371 674 294 674 216 c 256
 674 174 658 131 630 94 c 256
 584 35 503 -13 400 -21 c 257
 401 -45 401 -70 402 -95 c 258
 402 -96 l 258
 402 -110 385 -123 366 -126 c 256
 364 -126 361 -127 359 -127 c 256
 342 -127 329 -117 328 -105 c 256
 327 -76 326 -47 325 -20 c 257
 197 -8 115 60 80 147 c 256
 79 150 78 154 78 157 c 256
 78 174 94 192 118 199 c 256
 126 201 134 202 141 202 c 256
 161 202 178 194 184 179 c 256
 208 119 256 78 323 63 c 257
 320 176 318 276 318 375 c 257
 284 387 253 398 236 404 c 256
 123 442 70 515 70 590 c 256
 70 601 71 611 73 622 c 256
 91 709 184 793 322 816 c 257
 322 842 323 868 323 896 c 256
 323 910 340 924 360 926 c 256
319 474 m 257
 319 558 320 643 321 738 c 257
 239 722 192 674 181 622 c 256
 180 615 179 609 179 602 c 256
 179 555 213 509 294 482 c 256
 301 480 309 477 319 474 c 257
393 350 m 257
 393 258 394 163 397 56 c 257
 462 59 509 86 537 124 c 256
 555 148 565 176 565 203 c 256
 565 254 531 305 450 330 c 256
 438 334 418 341 393 350 c 257
EndSplineSet
Validated: 1
EndChar

StartChar: percent
Encoding: 37 37 9
Width: 720
VWidth: 0
GlyphClass: 2
Flags: HMW
LayerCount: 3
Back
SplineSet
630 765 m 1
 476 546 246 229 90 35 c 1025
604 282 m 1
 628 261 640 219 640 178 c 0
 640 69 594 20 547 20 c 4
 498 20 448 74 448 170 c 0
 448 279 497 327 545 327 c 0
 568 327 591 315 608 294 c 1025
236 745 m 1
 260 724 272 682 272 641 c 0
 272 532 226 483 179 483 c 0
 130 483 80 537 80 633 c 0
 80 742 129 790 177 790 c 0
 200 790 223 778 240 757 c 1025
EndSplineSet
Fore
Refer: 753 -1 S 1 0 0 1 390 0 2
Refer: 743 -1 N 1 0 0 1 0 0 2
Refer: 213 8260 N 1 0 0 1 330 0 2
Validated: 1
Layer: 2
Refer: 753 -1 S 1 0 0 1 390 0 2
Refer: 743 -1 N 1 0 0 1 0 0 2
Refer: 213 8260 N 1 0 0 1 330 0 2
Validated: 1
EndChar

StartChar: ampersand
Encoding: 38 38 10
Width: 800
VWidth: 0
GlyphClass: 2
Flags: MW
LayerCount: 3
Back
SplineSet
650 360 m 1
 614 195 513 10 310 10 c 0
 191 10 120 72 120 160 c 0
 120 262 246 345 370 440 c 0
 528 561 552 770 380 770 c 0
 212 770 226 541 340 410 c 0
 429 308 588 126 710 10 c 1025
EndSplineSet
Fore
SplineSet
352 475 m 257
 403 519 436 575 446 624 c 256
 448 636 450 647 450 657 c 256
 450 708 420 734 373 734 c 256
 360 734 352 732 346 730 c 256
 323 721 306 681 306 629 c 256
 306 584 319 529 352 475 c 257
659 399 m 256
 685 399 705 384 705 366 c 256
 705 364 704 362 704 360 c 256
 690 298 667 226 627 161 c 257
 670 115 712 71 751 34 c 256
 757 29 759 23 759 16 c 256
 759 5 752 -8 738 -16 c 256
 728 -22 715 -25 703 -25 c 256
 690 -25 677 -21 669 -14 c 256
 638 16 604 49 570 85 c 257
 507 18 421 -29 302 -29 c 256
 153 -29 66 51 66 154 c 256
 66 258 171 341 274 417 c 257
 232 476 202 555 202 626 c 256
 202 691 227 751 294 785 c 256
 321 799 354 806 387 806 c 256
 503 806 548 737 548 664 c 256
 548 651 547 637 544 624 c 256
 530 554 483 478 404 418 c 256
 402 417 401 415 399 414 c 257
 442 365 497 302 556 237 c 257
 573 275 587 317 596 360 c 256
 601 381 630 399 659 399 c 256
507 153 m 257
 440 226 373 300 323 358 c 257
 233 286 174 228 174 166 c 256
 174 93 229 49 318 49 c 256
 395 49 459 90 507 153 c 257
EndSplineSet
Validated: 1
Layer: 2
SplineSet
352 475 m 257
 403 519 436 575 446 624 c 256
 448 636 450 647 450 657 c 256
 450 708 420 734 373 734 c 256
 360 734 352 732 346 730 c 256
 323 721 306 681 306 629 c 256
 306 584 319 529 352 475 c 257
659 399 m 256
 685 399 705 384 705 366 c 256
 705 364 704 362 704 360 c 256
 690 298 667 226 627 161 c 257
 670 115 712 71 751 34 c 256
 757 29 759 23 759 16 c 256
 759 5 752 -8 738 -16 c 256
 728 -22 715 -25 703 -25 c 256
 690 -25 677 -21 669 -14 c 256
 638 16 604 49 570 85 c 257
 507 18 421 -29 302 -29 c 256
 153 -29 66 51 66 154 c 256
 66 258 171 341 274 417 c 257
 232 476 202 555 202 626 c 256
 202 691 227 751 294 785 c 256
 321 799 354 806 387 806 c 256
 503 806 548 737 548 664 c 256
 548 651 547 637 544 624 c 256
 530 554 483 478 404 418 c 256
 402 417 401 415 399 414 c 257
 442 365 497 302 556 237 c 257
 573 275 587 317 596 360 c 256
 601 381 630 399 659 399 c 256
507 153 m 257
 440 226 373 300 323 358 c 257
 233 286 174 228 174 166 c 256
 174 93 229 49 318 49 c 256
 395 49 459 90 507 153 c 257
EndSplineSet
Validated: 1
EndChar

StartChar: quotesingle
Encoding: 39 39 11
Width: 330
VWidth: 0
GlyphClass: 2
Flags: MW
LayerCount: 3
Back
SplineSet
154 809 m 1
 175 810 l 1
 174 723 170 611 165 580 c 1
 161 619 159 722 154 809 c 1
EndSplineSet
Fore
SplineSet
158 841 m 258
 179 842 l 258
 180 842 180 842 181 842 c 256
 205 842 219 828 219 814 c 256
 218 726 215 616 209 581 c 256
 206 564 175 544 151 544 c 256
 136 544 123 551 121 573 c 256
 117 614 115 716 110 803 c 256
 110 804 110 804 110 805 c 256
 110 818 121 839 158 841 c 258
EndSplineSet
Validated: 1
Layer: 2
SplineSet
158 841 m 258
 179 842 l 258
 180 842 180 842 181 842 c 256
 205 842 219 828 219 814 c 256
 218 726 215 616 209 581 c 256
 206 564 175 544 151 544 c 256
 136 544 123 551 121 573 c 256
 117 614 115 716 110 803 c 256
 110 804 110 804 110 805 c 256
 110 818 121 839 158 841 c 258
EndSplineSet
Validated: 1
EndChar

StartChar: parenleft
Encoding: 40 40 12
Width: 360
VWidth: 0
GlyphClass: 2
Flags: MW
LayerCount: 3
Back
SplineSet
240 -80 m 1
 188 -22 100 159 100 420 c 0
 100 618 155 764 240 860 c 1029
EndSplineSet
Fore
SplineSet
262 -105 m 256
 253 -110 244 -112 235 -112 c 256
 224 -112 214 -108 207 -100 c 256
 149 -35 55 149 55 415 c 256
 55 617 116 769 209 874 c 256
 219 885 234 892 249 892 c 256
 255 892 260 891 266 889 c 256
 277 885 281 877 281 869 c 256
 281 862 278 854 271 846 c 256
 194 759 145 619 145 425 c 256
 145 169 227 -9 273 -60 c 256
 278 -66 280 -72 280 -79 c 256
 280 -89 275 -98 262 -105 c 256
EndSplineSet
Validated: 1
Layer: 2
SplineSet
262 -105 m 256
 253 -110 244 -112 235 -112 c 256
 224 -112 214 -108 207 -100 c 256
 149 -35 55 149 55 415 c 256
 55 617 116 769 209 874 c 256
 219 885 234 892 249 892 c 256
 255 892 260 891 266 889 c 256
 277 885 281 877 281 869 c 256
 281 862 278 854 271 846 c 256
 194 759 145 619 145 425 c 256
 145 169 227 -9 273 -60 c 256
 278 -66 280 -72 280 -79 c 256
 280 -89 275 -98 262 -105 c 256
EndSplineSet
Validated: 1
EndChar

StartChar: parenright
Encoding: 41 41 13
Width: 360
VWidth: 0
GlyphClass: 2
Flags: MW
LayerCount: 3
Back
SplineSet
120 860 m 5
 172 802 260 621 260 360 c 4
 260 162 205 16 120 -80 c 1029
EndSplineSet
Fore
SplineSet
98 885 m 256
 107 890 116 892 125 892 c 256
 136 892 146 888 153 880 c 256
 211 815 305 631 305 365 c 256
 305 163 244 11 151 -94 c 256
 141 -105 126 -112 111 -112 c 256
 105 -112 100 -111 94 -109 c 256
 83 -105 79 -97 79 -89 c 256
 79 -82 82 -74 89 -66 c 256
 166 21 215 161 215 355 c 256
 215 611 133 789 87 840 c 256
 82 846 80 852 80 859 c 256
 80 869 85 878 98 885 c 256
EndSplineSet
Validated: 1
Layer: 2
SplineSet
98 885 m 256
 107 890 116 892 125 892 c 256
 136 892 146 888 153 880 c 256
 211 815 305 631 305 365 c 256
 305 163 244 11 151 -94 c 256
 141 -105 126 -112 111 -112 c 256
 105 -112 100 -111 94 -109 c 256
 83 -105 79 -97 79 -89 c 256
 79 -82 82 -74 89 -66 c 256
 166 21 215 161 215 355 c 256
 215 611 133 789 87 840 c 256
 82 846 80 852 80 859 c 256
 80 869 85 878 98 885 c 256
EndSplineSet
Validated: 1
EndChar

StartChar: asterisk
Encoding: 42 42 14
Width: 600
VWidth: 0
GlyphClass: 2
Flags: MW
LayerCount: 3
Back
SplineSet
124 716 m 21
 181 689 242 657 302 623 c 5
 362 589 421 556 476 524 c 13
 124 716 l 21
471 724 m 21
 419 688 361 652 302 617 c 5
 243 582 184 548 129 516 c 13
 471 724 l 21
295 820 m 21
 300 757 302 689 303 620 c 5
 304 551 305 483 305 420 c 13
 295 820 l 21
EndSplineSet
Fore
SplineSet
293 848 m 256
 296 848 299 849 301 849 c 256
 319 849 333 839 334 826 c 256
 335 809 336 792 336 775 c 256
 336 739 334 702 333 664 c 257
 372 690 410 718 446 743 c 256
 455 749 466 752 477 752 c 256
 487 752 495 750 502 745 c 256
 508 741 511 735 511 729 c 256
 511 721 506 712 496 705 c 256
 454 676 406 650 358 623 c 257
 408 597 458 573 503 547 c 256
 511 542 516 535 516 527 c 256
 516 520 512 513 505 507 c 256
 496 499 484 495 472 495 c 256
 464 495 456 497 449 501 c 256
 411 523 374 547 335 571 c 257
 339 520 345 471 345 424 c 256
 345 409 327 394 305 392 c 256
 303 392 302 392 300 392 c 256
 280 392 265 402 265 416 c 256
 265 466 270 518 272 572 c 257
 230 545 191 518 151 495 c 256
 142 490 133 488 123 488 c 256
 112 488 102 491 96 497 c 256
 92 501 89 507 89 512 c 256
 89 521 96 531 107 537 c 256
 153 564 206 589 257 617 c 257
 204 645 148 667 99 691 c 256
 89 696 84 703 84 712 c 256
 84 718 87 725 93 731 c 256
 102 740 116 745 130 745 c 256
 137 745 143 744 149 741 c 256
 190 722 229 698 270 673 c 257
 266 722 260 769 256 814 c 256
 256 815 l 258
 256 830 272 845 293 848 c 256
EndSplineSet
Validated: 1
Layer: 2
SplineSet
293 848 m 256
 296 848 299 849 301 849 c 256
 319 849 333 839 334 826 c 256
 335 809 336 792 336 775 c 256
 336 739 334 702 333 664 c 257
 372 690 410 718 446 743 c 256
 455 749 466 752 477 752 c 256
 487 752 495 750 502 745 c 256
 508 741 511 735 511 729 c 256
 511 721 506 712 496 705 c 256
 454 676 406 650 358 623 c 257
 408 597 458 573 503 547 c 256
 511 542 516 535 516 527 c 256
 516 520 512 513 505 507 c 256
 496 499 484 495 472 495 c 256
 464 495 456 497 449 501 c 256
 411 523 374 547 335 571 c 257
 339 520 345 471 345 424 c 256
 345 409 327 394 305 392 c 256
 303 392 302 392 300 392 c 256
 280 392 265 402 265 416 c 256
 265 466 270 518 272 572 c 257
 230 545 191 518 151 495 c 256
 142 490 133 488 123 488 c 256
 112 488 102 491 96 497 c 256
 92 501 89 507 89 512 c 256
 89 521 96 531 107 537 c 256
 153 564 206 589 257 617 c 257
 204 645 148 667 99 691 c 256
 89 696 84 703 84 712 c 256
 84 718 87 725 93 731 c 256
 102 740 116 745 130 745 c 256
 137 745 143 744 149 741 c 256
 190 722 229 698 270 673 c 257
 266 722 260 769 256 814 c 256
 256 815 l 258
 256 830 272 845 293 848 c 256
EndSplineSet
Validated: 1
EndChar

StartChar: plus
Encoding: 43 43 15
Width: 600
VWidth: 0
GlyphClass: 2
Flags: MW
LayerCount: 3
Back
SplineSet
295 500 m 5
 303 411 304 303 305 180 c 1033
475 340 m 1
 336 335 213 337 125 345 c 1025
EndSplineSet
Fore
SplineSet
81 349 m 256
 86 367 107 380 130 380 c 256
 132 380 133 380 135 380 c 256
 170 377 211 374 257 373 c 257
 256 417 253 457 250 494 c 256
 250 495 250 496 250 497 c 256
 250 515 269 532 292 535 c 256
 294 535 297 535 299 535 c 256
 320 535 338 523 340 506 c 256
 344 465 346 420 347 372 c 257
 388 372 432 373 478 375 c 256
 479 375 479 375 480 375 c 256
 502 375 520 361 520 343 c 258
 520 342 l 258
 519 323 496 306 472 305 c 256
 429 303 388 302 349 302 c 257
 350 264 350 225 350 184 c 256
 350 165 329 147 305 145 c 256
 303 145 302 145 300 145 c 256
 278 145 260 158 260 176 c 256
 260 220 260 263 259 303 c 257
 205 304 157 306 115 310 c 256
 94 312 80 326 80 342 c 256
 80 344 80 347 81 349 c 256
EndSplineSet
Validated: 1
Layer: 2
SplineSet
81 349 m 256
 86 367 107 380 130 380 c 256
 132 380 133 380 135 380 c 256
 170 377 211 374 257 373 c 257
 256 417 253 457 250 494 c 256
 250 495 250 496 250 497 c 256
 250 515 269 532 292 535 c 256
 294 535 297 535 299 535 c 256
 320 535 338 523 340 506 c 256
 344 465 346 420 347 372 c 257
 388 372 432 373 478 375 c 256
 479 375 479 375 480 375 c 256
 502 375 520 361 520 343 c 258
 520 342 l 258
 519 323 496 306 472 305 c 256
 429 303 388 302 349 302 c 257
 350 264 350 225 350 184 c 256
 350 165 329 147 305 145 c 256
 303 145 302 145 300 145 c 256
 278 145 260 158 260 176 c 256
 260 220 260 263 259 303 c 257
 205 304 157 306 115 310 c 256
 94 312 80 326 80 342 c 256
 80 344 80 347 81 349 c 256
EndSplineSet
Validated: 1
EndChar

StartChar: comma
Encoding: 44 44 16
Width: 330
VWidth: 0
GlyphClass: 2
Flags: MW
LayerCount: 3
Back
SplineSet
110 80 m 5
 231 153 271 -69 105 -150 c 1029
EndSplineSet
Fore
SplineSet
73 58 m 256
 68 63 65 69 65 75 c 256
 65 85 72 95 85 103 c 256
 89 106 93 109 98 111 c 256
 117 121 141 127 163 127 c 256
 165 127 166 127 168 127 c 256
 201 125 223 110 236 94 c 256
 252 74 261 46 261 15 c 256
 261 -50 222 -129 126 -176 c 256
 118 -180 108 -182 99 -182 c 256
 85 -182 73 -177 66 -169 c 256
 63 -165 61 -160 61 -155 c 256
 61 -143 69 -131 84 -124 c 256
 144 -94 170 -36 170 9 c 256
 170 28 165 45 157 55 c 256
 152 61 148 62 148 62 c 257
 148 62 144 62 135 57 c 256
 125 51 113 48 102 48 c 256
 90 48 80 51 73 58 c 256
EndSplineSet
Validated: 1
Layer: 2
SplineSet
73 58 m 256
 68 63 65 69 65 75 c 256
 65 85 72 95 85 103 c 256
 89 106 93 109 98 111 c 256
 117 121 141 127 163 127 c 256
 165 127 166 127 168 127 c 256
 201 125 223 110 236 94 c 256
 252 74 261 46 261 15 c 256
 261 -50 222 -129 126 -176 c 256
 118 -180 108 -182 99 -182 c 256
 85 -182 73 -177 66 -169 c 256
 63 -165 61 -160 61 -155 c 256
 61 -143 69 -131 84 -124 c 256
 144 -94 170 -36 170 9 c 256
 170 28 165 45 157 55 c 256
 152 61 148 62 148 62 c 257
 148 62 144 62 135 57 c 256
 125 51 113 48 102 48 c 256
 90 48 80 51 73 58 c 256
EndSplineSet
Validated: 1
EndChar

StartChar: hyphen
Encoding: 45 45 17
Width: 600
VWidth: 0
GlyphClass: 2
Flags: MW
LayerCount: 3
Back
SplineSet
475 340 m 1
 336 335 213 337 125 345 c 1029
EndSplineSet
Fore
SplineSet
77 349 m 256
 84 367 108 381 133 381 c 256
 135 381 136 381 138 381 c 256
 191 376 259 373 337 373 c 256
 382 373 430 374 480 376 c 256
 481 376 481 376 482 376 c 256
 506 376 524 363 524 346 c 256
 524 345 524 343 524 342 c 256
 521 323 497 305 470 304 c 256
 418 302 369 301 322 301 c 256
 242 301 170 304 112 309 c 256
 90 311 75 324 75 340 c 256
 75 343 76 346 77 349 c 256
EndSplineSet
Validated: 1
Layer: 2
SplineSet
77 349 m 256
 84 367 108 381 133 381 c 256
 135 381 136 381 138 381 c 256
 191 376 259 373 337 373 c 256
 382 373 430 374 480 376 c 256
 481 376 481 376 482 376 c 256
 506 376 524 363 524 346 c 256
 524 345 524 343 524 342 c 256
 521 323 497 305 470 304 c 256
 418 302 369 301 322 301 c 256
 242 301 170 304 112 309 c 256
 90 311 75 324 75 340 c 256
 75 343 76 346 77 349 c 256
EndSplineSet
Validated: 1
EndChar

StartChar: period
Encoding: 46 46 18
Width: 330
VWidth: 0
GlyphClass: 2
Flags: MW
LayerCount: 3
Back
SplineSet
183 89 m 2
 187 84 195 76 195 65 c 0
 195 47 184 34 163 34 c 0
 147 34 135 43 135 62 c 0
 135 77 147 93 167 93 c 1
 183 89 l 2
EndSplineSet
Fore
SplineSet
231 112 m 256
 233 110 249 95 249 71 c 256
 249 67 249 62 248 58 c 256
 243 32 210 -5 155 -5 c 256
 105 -5 81 26 81 56 c 256
 81 79 103 132 175 132 c 256
 181 132 187 131 191 130 c 258
 207 126 l 258
 217 123 226 118 231 112 c 256
EndSplineSet
Validated: 1
Layer: 2
SplineSet
231 112 m 256
 233 110 249 95 249 71 c 256
 249 67 249 62 248 58 c 256
 243 32 210 -5 155 -5 c 256
 105 -5 81 26 81 56 c 256
 81 79 103 132 175 132 c 256
 181 132 187 131 191 130 c 258
 207 126 l 258
 217 123 226 118 231 112 c 256
EndSplineSet
Validated: 1
EndChar

StartChar: slash
Encoding: 47 47 19
Width: 480
VWidth: 0
GlyphClass: 2
Flags: MW
LayerCount: 3
Back
SplineSet
400 800 m 5
 309 524 206 264 80 0 c 1029
EndSplineSet
Fore
SplineSet
409 828 m 256
 427 827 439 817 439 804 c 256
 439 802 439 799 438 797 c 256
 347 520 244 259 117 -6 c 256
 111 -19 92 -29 74 -29 c 256
 72 -29 69 -28 67 -28 c 256
 51 -26 41 -15 41 -3 c 256
 41 0 42 3 43 6 c 256
 168 269 271 528 362 803 c 256
 367 818 386 828 406 828 c 256
 407 828 408 828 409 828 c 256
EndSplineSet
Validated: 1
Layer: 2
SplineSet
409 828 m 256
 427 827 439 817 439 804 c 256
 439 802 439 799 438 797 c 256
 347 520 244 259 117 -6 c 256
 111 -19 92 -29 74 -29 c 256
 72 -29 69 -28 67 -28 c 256
 51 -26 41 -15 41 -3 c 256
 41 0 42 3 43 6 c 256
 168 269 271 528 362 803 c 256
 367 818 386 828 406 828 c 256
 407 828 408 828 409 828 c 256
EndSplineSet
Validated: 1
EndChar

StartChar: zero
Encoding: 48 48 20
Width: 710
VWidth: 0
GlyphClass: 2
Flags: MW
LayerCount: 3
Back
SplineSet
510 670 m 5
 570 618 600 512 600 410 c 4
 600 -145 120 -79 120 390 c 4
 120 798 393 861 520 700 c 1029
EndSplineSet
Fore
SplineSet
562 685 m 257
 624 620 649 516 649 416 c 256
 649 162 551 -4 381 -22 c 256
 371 -23 361 -24 352 -24 c 256
 180 -24 61 145 61 384 c 256
 61 599 131 737 252 795 c 256
 289 813 327 821 363 821 c 256
 444 821 517 781 563 723 c 256
 567 718 569 711 569 705 c 256
 569 698 567 691 562 685 c 257
459 686 m 257
 423 727 384 742 350 742 c 256
 331 742 314 738 299 730 c 256
 243 701 169 600 169 396 c 256
 169 153 303 56 374 56 c 256
 376 56 379 56 381 56 c 256
 433 62 541 143 541 404 c 256
 541 501 509 601 461 642 c 256
 454 648 451 656 451 664 c 256
 451 671 453 679 459 686 c 257
EndSplineSet
Layer: 2
SplineSet
562 685 m 257
 624 620 649 516 649 416 c 256
 649 162 551 -4 381 -22 c 256
 371 -23 361 -24 352 -24 c 256
 180 -24 61 145 61 384 c 256
 61 599 131 737 252 795 c 256
 289 813 327 821 363 821 c 256
 444 821 517 781 563 723 c 256
 567 718 569 711 569 705 c 256
 569 698 567 691 562 685 c 257
459 686 m 257
 423 727 384 742 350 742 c 256
 331 742 314 738 299 730 c 256
 243 701 169 600 169 396 c 256
 169 153 303 56 374 56 c 256
 376 56 379 56 381 56 c 256
 433 62 541 143 541 404 c 256
 541 501 509 601 461 642 c 256
 454 648 451 656 451 664 c 256
 451 671 453 679 459 686 c 257
EndSplineSet
Validated: 1
EndChar

StartChar: one
Encoding: 49 49 21
Width: 630
VWidth: 0
GlyphClass: 2
Flags: HMW
LayerCount: 3
Back
SplineSet
180 630 m 5
 262 663 353 704 425 770 c 5
 414 467 417 341 425 90 c 4
 427 24 568 40 630 30 c 5
 462 32 353 27 180 20 c 1029
EndSplineSet
Fore
Refer: 734 -1 S 1 0 0 1 -70 0 2
Validated: 1
Layer: 2
Refer: 734 -1 S 1 0 0 1 -70 0 2
Validated: 1
EndChar

StartChar: two
Encoding: 50 50 22
Width: 690
VWidth: 0
GlyphClass: 2
Flags: HMW
LayerCount: 3
Back
SplineSet
595 45 m 5
 443 29 125 16 125 65 c 4
 125 286 555 382 555 600 c 4
 555 831 239 826 135 660 c 1029
EndSplineSet
Fore
Refer: 735 -1 N 1 0 0 1 -15 0 2
Validated: 1
Layer: 2
Refer: 735 -1 N 1 0 0 1 -15 0 2
Validated: 1
EndChar

StartChar: three
Encoding: 51 51 23
Width: 690
VWidth: 0
GlyphClass: 2
Flags: HMW
LayerCount: 3
Back
SplineSet
130 670 m 5
 244 826 545 827 545 610 c 4
 545 414 283 411 240 400 c 5
 294 400 600 472 600 230 c 4
 600 -48 225 -29 120 120 c 1029
EndSplineSet
Fore
Refer: 736 -1 N 1 0 0 1 -20 0 2
Validated: 1
Layer: 2
Refer: 736 -1 N 1 0 0 1 -20 0 2
Validated: 1
EndChar

StartChar: four
Encoding: 52 52 24
Width: 720
VWidth: 0
GlyphClass: 2
Flags: HMW
LayerCount: 3
Back
SplineSet
510 580 m 13
 515 10 l 1
 509 113 508 392 510 580 c 13
635 230 m 1
 393 210 85 209 85 240 c 0
 85 276 329 501 330 790 c 1025
EndSplineSet
Fore
Refer: 737 -1 S 1 0 0 1 0 0 2
Validated: 1
Layer: 2
Refer: 737 -1 S 1 0 0 1 0 0 2
Validated: 1
EndChar

StartChar: five
Encoding: 53 53 25
Width: 710
VWidth: 0
GlyphClass: 2
Flags: HMW
LayerCount: 3
Back
SplineSet
570 765 m 5
 523 758 464 755 375 755 c 4
 291 755 226 759 180 765 c 5
 188 654 170 482 160 380 c 5
 348 484 595 492 595 250 c 4
 595 -52 225 -29 130 120 c 1029
EndSplineSet
Fore
Refer: 738 -1 N 1 0 0 1 -10 0 2
Validated: 1
Layer: 2
Refer: 738 -1 N 1 0 0 1 -10 0 2
Validated: 1
EndChar

StartChar: six
Encoding: 54 54 26
Width: 720
VWidth: 0
GlyphClass: 2
Flags: HMW
LayerCount: 3
Back
SplineSet
90 290 m 5
 655 740 784 10 375 10 c 4
 74 10 44 480 420 790 c 1029
EndSplineSet
Fore
Refer: 739 -1 S 1 0 0 1 0 0 2
Validated: 1
Layer: 2
Refer: 739 -1 S 1 0 0 1 0 0 2
Validated: 1
EndChar

StartChar: seven
Encoding: 55 55 27
Width: 690
VWidth: 0
GlyphClass: 2
Flags: HMW
LayerCount: 3
Back
SplineSet
160 590 m 5
 149 660 131 721 120 765 c 5
 166 763 266 755 360 755 c 4
 465 755 536 761 600 765 c 5
 469 516 397 328 329 20 c 1029
EndSplineSet
Fore
Refer: 740 -1 N 1 0 0 1 -15 0 2
Validated: 1
Layer: 2
Refer: 740 -1 N 1 0 0 1 -15 0 2
Validated: 1
EndChar

StartChar: eight
Encoding: 56 56 28
Width: 695
VWidth: 0
GlyphClass: 2
Flags: HMW
LayerCount: 3
Back
SplineSet
540 690 m 5
 504 735 439 780 340 780 c 4
 139 780 5 522 370 430 c 4
 712 344 654 15 360 15 c 4
 214 15 130 107 130 194 c 4
 130 321 250 384 389 474 c 4
 493 541 550 580 550 580 c 1029
EndSplineSet
Fore
Refer: 741 -1 N 1 0 0 1 -15 0 2
Validated: 1
Layer: 2
Refer: 741 -1 N 1 0 0 1 -15 0 2
Validated: 1
EndChar

StartChar: nine
Encoding: 57 57 29
Width: 720
VWidth: 0
GlyphClass: 2
Flags: HMW
LayerCount: 3
Back
SplineSet
630 510 m 5
 65 60 -64 790 345 790 c 4
 646 790 676 320 300 10 c 1029
EndSplineSet
Fore
Refer: 742 -1 S 1 0 0 1 0 0 2
Validated: 1
Layer: 2
Refer: 742 -1 S 1 0 0 1 0 0 2
Validated: 1
EndChar

StartChar: less
Encoding: 60 60 32
Width: 600
VWidth: 0
GlyphClass: 2
Flags: MW
LayerCount: 3
Back
SplineSet
485 100 m 5
 404 146 231 257 115 340 c 5
 228 402 387 516 475 580 c 1029
EndSplineSet
Fore
SplineSet
521 80 m 0
 510 70 494 65 478 65 c 0
 468 65 459 67 451 71 c 0
 368 118 195 229 78 313 c 0
 72 317 63 326 63 337 c 0
 63 346 69 356 89 367 c 0
 196 426 356 540 443 603 c 0
 454 611 468 616 482 616 c 0
 493 616 504 613 512 607 c 0
 520 601 524 594 524 586 c 0
 524 576 518 565 507 557 c 0
 430 501 301 407 190 341 c 1
 301 264 449 169 519 129 c 0
 529 123 534 115 534 106 c 0
 534 97 530 88 521 80 c 0
EndSplineSet
Validated: 1
Layer: 2
SplineSet
521 80 m 0
 510 70 494 65 478 65 c 0
 468 65 459 67 451 71 c 0
 368 118 195 229 78 313 c 0
 72 317 63 326 63 337 c 0
 63 346 69 356 89 367 c 0
 196 426 356 540 443 603 c 0
 454 611 468 616 482 616 c 0
 493 616 504 613 512 607 c 0
 520 601 524 594 524 586 c 0
 524 576 518 565 507 557 c 0
 430 501 301 407 190 341 c 1
 301 264 449 169 519 129 c 0
 529 123 534 115 534 106 c 0
 534 97 530 88 521 80 c 0
EndSplineSet
Validated: 1
EndChar

StartChar: equal
Encoding: 61 61 33
Width: 600
VWidth: 0
GlyphClass: 2
Flags: MW
LayerCount: 3
Back
SplineSet
475 240 m 5
 336 235 213 237 125 245 c 1029
475 440 m 1
 336 435 213 437 125 445 c 1025
EndSplineSet
Fore
SplineSet
77 249 m 0
 84 267 108 281 133 281 c 2
 138 281 l 1
 191 276 259 273 337 273 c 0
 382 273 430 274 480 276 c 2
 482 276 l 2
 506 276 524 263 524 246 c 2
 524 242 l 2
 521 223 497 205 470 204 c 0
 418 202 369 201 322 201 c 0
 242 201 170 204 112 209 c 0
 90 211 75 224 75 240 c 0
 75 243 76 246 77 249 c 0
77 449 m 0
 84 467 108 481 133 481 c 2
 138 481 l 1
 191 476 259 473 337 473 c 0
 382 473 430 474 480 476 c 2
 482 476 l 2
 506 476 524 463 524 446 c 2
 524 442 l 2
 521 423 497 405 470 404 c 0
 418 402 369 401 322 401 c 0
 242 401 170 404 112 409 c 0
 90 411 75 424 75 440 c 0
 75 443 76 446 77 449 c 0
EndSplineSet
Validated: 1
Layer: 2
SplineSet
77 249 m 0
 84 267 108 281 133 281 c 2
 138 281 l 1
 191 276 259 273 337 273 c 0
 382 273 430 274 480 276 c 2
 482 276 l 2
 506 276 524 263 524 246 c 2
 524 242 l 2
 521 223 497 205 470 204 c 0
 418 202 369 201 322 201 c 0
 242 201 170 204 112 209 c 0
 90 211 75 224 75 240 c 0
 75 243 76 246 77 249 c 0
77 449 m 0
 84 467 108 481 133 481 c 2
 138 481 l 1
 191 476 259 473 337 473 c 0
 382 473 430 474 480 476 c 2
 482 476 l 2
 506 476 524 463 524 446 c 2
 524 442 l 2
 521 423 497 405 470 404 c 0
 418 402 369 401 322 401 c 0
 242 401 170 404 112 409 c 0
 90 411 75 424 75 440 c 0
 75 443 76 446 77 449 c 0
EndSplineSet
Validated: 1
EndChar

StartChar: greater
Encoding: 62 62 34
Width: 600
VWidth: 0
GlyphClass: 2
Flags: MW
LayerCount: 3
Back
SplineSet
115 580 m 1
 196 534 369 423 485 340 c 1
 372 278 213 164 125 100 c 1025
EndSplineSet
Fore
Refer: 32 60 S -1 0 0 -1 600 681 2
Validated: 1
Layer: 2
Refer: 32 60 S -1 0 0 -1 600 681 2
Validated: 1
EndChar

StartChar: question
Encoding: 63 63 35
Width: 480
VWidth: 0
GlyphClass: 2
Flags: MW
LayerCount: 3
Back
SplineSet
220 290 m 1
 144 464 400 511 400 670 c 0
 400 918 -39 827 80 630 c 1025
EndSplineSet
Fore
SplineSet
229 258 m 0
 222 256 215 255 209 255 c 0
 194 255 184 262 178 275 c 0
 166 303 161 328 161 351 c 0
 161 492 351 559 351 665 c 0
 351 693 344 715 334 732 c 0
 312 769 271 784 230 784 c 0
 208 784 187 780 168 773 c 0
 137 760 108 738 108 702 c 0
 108 687 114 669 126 648 c 0
 128 644 130 639 130 635 c 0
 130 621 118 607 99 599 c 0
 91 596 82 594 74 594 c 0
 57 594 41 601 34 612 c 0
 18 638 11 664 11 689 c 0
 11 753 60 807 131 835 c 0
 166 849 205 856 243 856 c 0
 318 856 390 828 426 768 c 0
 441 742 449 711 449 675 c 0
 449 503 251 466 251 354 c 0
 251 339 254 323 262 305 c 0
 263 302 264 298 264 295 c 0
 264 280 250 265 229 258 c 0
EndSplineSet
Refer: 18 46 S 1 0 0 1 70 0 2
Validated: 1
Layer: 2
SplineSet
229 258 m 0
 222 256 215 255 209 255 c 0
 194 255 184 262 178 275 c 0
 166 303 161 328 161 351 c 0
 161 492 351 559 351 665 c 0
 351 693 344 715 334 732 c 0
 312 769 271 784 230 784 c 0
 208 784 187 780 168 773 c 0
 137 760 108 738 108 702 c 0
 108 687 114 669 126 648 c 0
 128 644 130 639 130 635 c 0
 130 621 118 607 99 599 c 0
 91 596 82 594 74 594 c 0
 57 594 41 601 34 612 c 0
 18 638 11 664 11 689 c 0
 11 753 60 807 131 835 c 0
 166 849 205 856 243 856 c 0
 318 856 390 828 426 768 c 0
 441 742 449 711 449 675 c 0
 449 503 251 466 251 354 c 0
 251 339 254 323 262 305 c 0
 263 302 264 298 264 295 c 0
 264 280 250 265 229 258 c 0
EndSplineSet
Refer: 18 46 S 1 0 0 1 70 0 2
Validated: 1
EndChar

StartChar: at
Encoding: 64 64 36
Width: 1020
VWidth: 0
GlyphClass: 2
Flags: MW
LayerCount: 3
Back
SplineSet
696 -95 m 1
 666 -113 581 -150 502 -150 c 0
 -88 -150 46 740 558 740 c 0
 953 740 1005 248 742 85 c 0
 652 29 624 131 647 330 c 1025
647 330 m 1
 618 212 578 70 472 70 c 0
 238 70 333 522 578 522 c 0
 651 522 667 451 667 431 c 1033
EndSplineSet
Fore
SplineSet
690 345 m 1
 685 301 680 251 680 220 c 0
 680 146 692 107 705 99 c 0
 707 100 712 102 719 106 c 0
 814 165 865 279 865 393 c 0
 865 485 832 576 762 638 c 0
 710 684 641 711 552 711 c 0
 352 711 205 547 164 346 c 0
 157 311 153 276 153 242 c 0
 153 48 268 -121 508 -121 c 0
 571 -121 650 -88 674 -74 c 0
 683 -69 692 -66 702 -66 c 0
 713 -66 723 -69 729 -75 c 0
 733 -79 736 -85 736 -90 c 0
 736 -99 729 -109 718 -116 c 0
 682 -138 591 -179 496 -179 c 0
 196 -179 74 25 74 235 c 0
 74 272 78 310 85 346 c 0
 127 553 291 769 564 769 c 0
 677 769 765 733 826 678 c 0
 905 607 945 504 945 398 c 0
 945 270 886 139 765 64 c 0
 746 52 723 43 698 41 c 2
 692 41 l 2
 640 41 620 90 615 159 c 1
 587 93 543 38 465 38 c 0
 336 38 293 129 293 222 c 0
 293 245 295 268 300 290 c 0
 324 405 415 554 585 554 c 0
 701 554 712 456 712 436 c 0
 712 419 691 402 667 399 c 2
 660 399 l 2
 639 399 622 411 622 426 c 0
 622 446 601 490 571 490 c 0
 492 490 411 405 388 290 c 0
 384 270 382 251 382 234 c 0
 382 154 422 102 479 102 c 0
 525 102 570 196 603 331 c 0
 607 348 620 362 643 362 c 0
 661 362 690 345 690 345 c 1
EndSplineSet
Validated: 1
Layer: 2
SplineSet
690 345 m 1
 685 301 680 251 680 220 c 0
 680 146 692 107 705 99 c 0
 707 100 712 102 719 106 c 0
 814 165 865 279 865 393 c 0
 865 485 832 576 762 638 c 0
 710 684 641 711 552 711 c 0
 352 711 205 547 164 346 c 0
 157 311 153 276 153 242 c 0
 153 48 268 -121 508 -121 c 0
 571 -121 650 -88 674 -74 c 0
 683 -69 692 -66 702 -66 c 0
 713 -66 723 -69 729 -75 c 0
 733 -79 736 -85 736 -90 c 0
 736 -99 729 -109 718 -116 c 0
 682 -138 591 -179 496 -179 c 0
 196 -179 74 25 74 235 c 0
 74 272 78 310 85 346 c 0
 127 553 291 769 564 769 c 0
 677 769 765 733 826 678 c 0
 905 607 945 504 945 398 c 0
 945 270 886 139 765 64 c 0
 746 52 723 43 698 41 c 2
 692 41 l 2
 640 41 620 90 615 159 c 1
 587 93 543 38 465 38 c 0
 336 38 293 129 293 222 c 0
 293 245 295 268 300 290 c 0
 324 405 415 554 585 554 c 0
 701 554 712 456 712 436 c 0
 712 419 691 402 667 399 c 2
 660 399 l 2
 639 399 622 411 622 426 c 0
 622 446 601 490 571 490 c 0
 492 490 411 405 388 290 c 0
 384 270 382 251 382 234 c 0
 382 154 422 102 479 102 c 0
 525 102 570 196 603 331 c 0
 607 348 620 362 643 362 c 0
 661 362 690 345 690 345 c 1
EndSplineSet
Validated: 1
EndChar

StartChar: A
Encoding: 65 65 37
Width: 800
VWidth: 0
GlyphClass: 2
Flags: MW
LayerCount: 3
Back
SplineSet
85 215 m 5
 178 230 397 245 490 245 c 4
 682 245 681 121 720 40 c 5
 688 148 563 509 415 785 c 5
 360 624 199 200 90 20 c 1029
EndSplineSet
Fore
SplineSet
227 196 m 1
 194 124 162 60 132 11 c 0
 123 -5 99 -16 76 -16 c 0
 72 -16 68 -16 64 -15 c 0
 45 -11 34 0 34 14 c 0
 34 19 35 24 38 29 c 0
 62 69 90 124 119 185 c 1
 106 183 93 182 83 180 c 0
 79 179 75 179 71 179 c 0
 48 179 30 191 28 207 c 2
 28 209 l 2
 28 227 50 245 77 250 c 0
 98 253 124 257 153 260 c 1
 234 444 316 662 355 774 c 0
 357 779 359 784 360 788 c 0
 368 812 385 820 403 820 c 0
 430 820 459 802 459 802 c 1
 604 532 725 186 762 64 c 0
 763 60 765 57 766 53 c 0
 767 49 768 45 768 41 c 0
 768 15 739 3 712 3 c 0
 692 3 672 10 665 24 c 0
 619 119 626 209 476 209 c 0
 423 209 319 204 227 196 c 1
260 269 m 1
 348 276 439 281 494 281 c 0
 526 281 556 277 580 272 c 1
 536 389 478 529 416 659 c 1
 374 547 318 401 260 269 c 1
EndSplineSet
Validated: 1
Layer: 2
SplineSet
227 196 m 1
 194 124 162 60 132 11 c 0
 123 -5 99 -16 76 -16 c 0
 72 -16 68 -16 64 -15 c 0
 45 -11 34 0 34 14 c 0
 34 19 35 24 38 29 c 0
 62 69 90 124 119 185 c 1
 106 183 93 182 83 180 c 0
 79 179 75 179 71 179 c 0
 48 179 30 191 28 207 c 2
 28 209 l 2
 28 227 50 245 77 250 c 0
 98 253 124 257 153 260 c 1
 234 444 316 662 355 774 c 0
 357 779 359 784 360 788 c 0
 368 812 385 820 403 820 c 0
 430 820 459 802 459 802 c 1
 604 532 725 186 762 64 c 0
 763 60 765 57 766 53 c 0
 767 49 768 45 768 41 c 0
 768 15 739 3 712 3 c 0
 692 3 672 10 665 24 c 0
 619 119 626 209 476 209 c 0
 423 209 319 204 227 196 c 1
260 269 m 1
 348 276 439 281 494 281 c 0
 526 281 556 277 580 272 c 1
 536 389 478 529 416 659 c 1
 374 547 318 401 260 269 c 1
EndSplineSet
Validated: 1
EndChar

StartChar: B
Encoding: 66 66 38
Width: 790
VWidth: 0
GlyphClass: 2
Flags: MW
LayerCount: 3
Back
SplineSet
80 700 m 5
 599 940 714 574 465 460 c 4
 409 434 334 404 260 390 c 5
 398 447 707 485 690 270 c 4
 666 -29 175 -6 175 60 c 4
 175 153 187 477 170 605 c 1029
EndSplineSet
Fore
SplineSet
233 353 m 2
 232 239 229 126 229 72 c 1
 245 64 279 59 322 59 c 0
 403 59 514 79 577 139 c 0
 607 168 631 208 636 266 c 0
 636 271 637 276 637 281 c 0
 637 369 569 395 482 395 c 0
 471 395 460 395 449 394 c 0
 430 393 410 390 391 387 c 0
 352 373 309 360 266 352 c 1
 266 352 246 366 233 383 c 1
 233 353 l 2
233 421 m 1
 239 424 l 2
 245 427 251 429 258 431 c 0
 290 443 327 453 366 461 c 1
 393 471 418 481 441 492 c 0
 503 520 537 572 537 622 c 0
 537 644 530 666 516 685 c 0
 494 716 449 742 374 742 c 0
 309 742 221 722 104 668 c 0
 93 663 81 661 70 661 c 0
 53 661 39 666 31 677 c 0
 27 682 26 688 26 694 c 0
 26 709 37 723 56 732 c 0
 187 792 300 819 392 819 c 0
 461 819 519 804 562 777 c 0
 618 742 646 689 646 634 c 0
 646 577 616 517 558 470 c 1
 661 456 745 400 745 292 c 0
 745 286 745 280 744 274 c 0
 729 83 536 0 380 -17 c 0
 353 -20 326 -22 300 -22 c 0
 225 -22 157 -8 130 27 c 0
 124 34 121 44 121 54 c 0
 121 110 125 247 125 376 c 0
 125 463 123 547 116 596 c 1
 116 600 l 2
 116 620 138 638 165 643 c 0
 169 644 173 644 177 644 c 0
 201 644 221 632 224 614 c 0
 230 567 232 497 233 422 c 2
 233 421 l 1
EndSplineSet
Validated: 1
Layer: 2
SplineSet
233 353 m 2
 232 239 229 126 229 72 c 1
 245 64 279 59 322 59 c 0
 403 59 514 79 577 139 c 0
 607 168 631 208 636 266 c 0
 636 271 637 276 637 281 c 0
 637 369 569 395 482 395 c 0
 471 395 460 395 449 394 c 0
 430 393 410 390 391 387 c 0
 352 373 309 360 266 352 c 1
 266 352 246 366 233 383 c 1
 233 353 l 2
233 421 m 1
 239 424 l 2
 245 427 251 429 258 431 c 0
 290 443 327 453 366 461 c 1
 393 471 418 481 441 492 c 0
 503 520 537 572 537 622 c 0
 537 644 530 666 516 685 c 0
 494 716 449 742 374 742 c 0
 309 742 221 722 104 668 c 0
 93 663 81 661 70 661 c 0
 53 661 39 666 31 677 c 0
 27 682 26 688 26 694 c 0
 26 709 37 723 56 732 c 0
 187 792 300 819 392 819 c 0
 461 819 519 804 562 777 c 0
 618 742 646 689 646 634 c 0
 646 577 616 517 558 470 c 1
 661 456 745 400 745 292 c 0
 745 286 745 280 744 274 c 0
 729 83 536 0 380 -17 c 0
 353 -20 326 -22 300 -22 c 0
 225 -22 157 -8 130 27 c 0
 124 34 121 44 121 54 c 0
 121 110 125 247 125 376 c 0
 125 463 123 547 116 596 c 1
 116 600 l 2
 116 620 138 638 165 643 c 0
 169 644 173 644 177 644 c 0
 201 644 221 632 224 614 c 0
 230 567 232 497 233 422 c 2
 233 421 l 1
EndSplineSet
Validated: 1
EndChar

StartChar: C
Encoding: 67 67 39
Width: 740
VWidth: 0
GlyphClass: 2
Flags: MW
LayerCount: 3
Back
SplineSet
660 139 m 5
 551 -40 125 -59 125 393 c 4
 125 865 626 858 626 626 c 1029
EndSplineSet
Fore
SplineSet
674 178 m 0
 695 174 707 160 707 145 c 0
 707 140 705 134 702 128 c 0
 654 50 555 -6 447 -18 c 0
 432 -20 418 -20 403 -20 c 0
 219 -20 58 109 58 387 c 0
 58 651 215 799 397 819 c 0
 410 820 422 821 435 821 c 0
 566 821 673 747 673 632 c 0
 673 610 647 589 616 586 c 2
 608 586 l 2
 581 586 559 600 559 620 c 0
 559 699 491 739 419 739 c 0
 412 739 404 739 397 738 c 0
 310 729 172 648 172 399 c 0
 172 137 315 62 422 62 c 0
 430 62 439 62 447 63 c 0
 510 70 568 101 598 150 c 0
 609 168 635 179 660 179 c 0
 665 179 669 179 674 178 c 0
EndSplineSet
Validated: 1
Layer: 2
SplineSet
674 178 m 0
 695 174 707 160 707 145 c 0
 707 140 705 134 702 128 c 0
 654 50 555 -6 447 -18 c 0
 432 -20 418 -20 403 -20 c 0
 219 -20 58 109 58 387 c 0
 58 651 215 799 397 819 c 0
 410 820 422 821 435 821 c 0
 566 821 673 747 673 632 c 0
 673 610 647 589 616 586 c 2
 608 586 l 2
 581 586 559 600 559 620 c 0
 559 699 491 739 419 739 c 0
 412 739 404 739 397 738 c 0
 310 729 172 648 172 399 c 0
 172 137 315 62 422 62 c 0
 430 62 439 62 447 63 c 0
 510 70 568 101 598 150 c 0
 609 168 635 179 660 179 c 0
 665 179 669 179 674 178 c 0
EndSplineSet
Validated: 1
EndChar

StartChar: D
Encoding: 68 68 40
Width: 800
VWidth: 0
GlyphClass: 2
Flags: MW
LayerCount: 3
Back
SplineSet
80 700 m 1
 330 838 645 820 680 485 c 0
 739 -79 175 -6 175 70 c 0
 175 163 187 477 170 605 c 1025
EndSplineSet
Fore
SplineSet
34 675 m 0
 28 681 26 687 26 694 c 0
 26 707 35 721 51 730 c 0
 125 771 206 800 287 813 c 0
 317 818 346 820 375 820 c 0
 562 820 711 717 734 494 c 0
 737 465 739 438 739 412 c 0
 739 123 550 1 370 -18 c 0
 351 -20 332 -21 313 -21 c 0
 228 -21 151 -1 127 42 c 0
 123 48 121 56 121 64 c 0
 121 118 125 247 125 369 c 0
 125 458 123 544 116 596 c 1
 116 600 l 2
 116 620 138 638 165 643 c 0
 169 644 173 644 177 644 c 0
 201 644 221 632 224 614 c 0
 231 560 233 475 233 388 c 0
 233 265 229 137 229 80 c 1
 241 70 282 59 333 59 c 0
 386 59 449 70 502 106 c 0
 568 150 630 236 630 400 c 0
 630 424 629 449 626 476 c 0
 605 673 490 742 361 742 c 0
 339 742 317 740 295 736 c 0
 235 726 170 704 109 670 c 0
 98 664 86 661 74 661 c 0
 58 661 43 666 34 675 c 0
EndSplineSet
Validated: 1
Layer: 2
SplineSet
34 675 m 0
 28 681 26 687 26 694 c 0
 26 707 35 721 51 730 c 0
 125 771 206 800 287 813 c 0
 317 818 346 820 375 820 c 0
 562 820 711 717 734 494 c 0
 737 465 739 438 739 412 c 0
 739 123 550 1 370 -18 c 0
 351 -20 332 -21 313 -21 c 0
 228 -21 151 -1 127 42 c 0
 123 48 121 56 121 64 c 0
 121 118 125 247 125 369 c 0
 125 458 123 544 116 596 c 1
 116 600 l 2
 116 620 138 638 165 643 c 0
 169 644 173 644 177 644 c 0
 201 644 221 632 224 614 c 0
 231 560 233 475 233 388 c 0
 233 265 229 137 229 80 c 1
 241 70 282 59 333 59 c 0
 386 59 449 70 502 106 c 0
 568 150 630 236 630 400 c 0
 630 424 629 449 626 476 c 0
 605 673 490 742 361 742 c 0
 339 742 317 740 295 736 c 0
 235 726 170 704 109 670 c 0
 98 664 86 661 74 661 c 0
 58 661 43 666 34 675 c 0
EndSplineSet
Validated: 1
EndChar

StartChar: E
Encoding: 69 69 41
Width: 720
VWidth: 0
GlyphClass: 2
Flags: MW
LayerCount: 3
Back
SplineSet
660 30 m 5
 377 18 182 -16 190 100 c 4
 200 243 208 420 205 640 c 4
 204 717 191 752 130 770 c 5
 395 759 562 768 630 775 c 1029
150 400 m 5
 314 392 386 392 550 400 c 1029
EndSplineSet
Fore
SplineSet
694 32 m 2
 691 11 665 -8 635 -9 c 0
 533 -13 424 -24 333 -24 c 0
 208 -24 116 -3 116 86 c 2
 116 96 l 1
 121 173 126 261 129 360 c 1
 125 360 122 361 118 361 c 0
 93 362 76 377 76 395 c 0
 76 398 76 400 77 403 c 0
 82 422 106 437 131 439 c 1
 131 469 132 502 132 534 c 0
 132 566 131 600 131 634 c 0
 130 703 119 719 96 729 c 0
 93 730 88 732 83 733 c 1
 83 733 82 742 82 754 c 0
 82 777 87 809 119 809 c 2
 121 809 l 1
 206 805 281 804 345 804 c 0
 479 804 567 810 610 814 c 1
 618 814 l 2
 644 814 664 800 664 781 c 0
 664 760 640 739 610 736 c 0
 561 731 473 726 340 726 c 0
 306 726 269 726 229 727 c 1
 236 705 239 677 239 646 c 0
 239 608 240 572 240 537 c 0
 240 502 239 468 239 435 c 1
 275 434 307 433 339 433 c 0
 396 433 453 435 534 439 c 1
 537 439 l 2
 564 439 584 425 584 406 c 2
 584 403 l 2
 582 382 556 362 526 361 c 0
 443 357 382 355 321 355 c 0
 294 355 266 355 237 356 c 1
 234 262 229 179 224 104 c 1
 224 101 l 2
 224 67 257 56 341 56 c 0
 408 56 506 63 645 69 c 1
 648 69 l 2
 675 69 694 55 694 36 c 2
 694 32 l 2
EndSplineSet
Validated: 1
Layer: 2
SplineSet
694 32 m 2
 691 11 665 -8 635 -9 c 0
 533 -13 424 -24 333 -24 c 0
 208 -24 116 -3 116 86 c 2
 116 96 l 1
 121 173 126 261 129 360 c 1
 125 360 122 361 118 361 c 0
 93 362 76 377 76 395 c 0
 76 398 76 400 77 403 c 0
 82 422 106 437 131 439 c 1
 131 469 132 502 132 534 c 0
 132 566 131 600 131 634 c 0
 130 703 119 719 96 729 c 0
 93 730 88 732 83 733 c 1
 83 733 82 742 82 754 c 0
 82 777 87 809 119 809 c 2
 121 809 l 1
 206 805 281 804 345 804 c 0
 479 804 567 810 610 814 c 1
 618 814 l 2
 644 814 664 800 664 781 c 0
 664 760 640 739 610 736 c 0
 561 731 473 726 340 726 c 0
 306 726 269 726 229 727 c 1
 236 705 239 677 239 646 c 0
 239 608 240 572 240 537 c 0
 240 502 239 468 239 435 c 1
 275 434 307 433 339 433 c 0
 396 433 453 435 534 439 c 1
 537 439 l 2
 564 439 584 425 584 406 c 2
 584 403 l 2
 582 382 556 362 526 361 c 0
 443 357 382 355 321 355 c 0
 294 355 266 355 237 356 c 1
 234 262 229 179 224 104 c 1
 224 101 l 2
 224 67 257 56 341 56 c 0
 408 56 506 63 645 69 c 1
 648 69 l 2
 675 69 694 55 694 36 c 2
 694 32 l 2
EndSplineSet
Validated: 1
EndChar

StartChar: F
Encoding: 70 70 42
Width: 690
VWidth: 0
GlyphClass: 2
Flags: MW
LayerCount: 3
Back
SplineSet
150 400 m 5
 314 392 386 392 550 400 c 1029
200 25 m 5
 211 208 208 420 205 640 c 4
 204 717 191 752 130 770 c 5
 395 759 562 768 630 775 c 1029
EndSplineSet
Fore
SplineSet
664 781 m 0
 664 760 640 739 610 736 c 0
 561 731 471 726 339 726 c 0
 305 726 269 726 229 727 c 1
 237 703 239 677 239 646 c 0
 240 575 241 504 241 435 c 1
 277 434 308 433 340 433 c 0
 397 433 454 435 534 439 c 1
 537 439 l 2
 564 439 584 425 584 406 c 2
 584 403 l 2
 582 382 556 362 526 361 c 0
 444 357 384 355 323 355 c 0
 297 355 270 355 242 356 c 1
 242 241 240 131 234 29 c 0
 233 8 208 -12 178 -14 c 2
 173 -14 l 2
 146 -14 126 1 126 20 c 2
 126 21 l 1
 132 125 134 240 134 360 c 1
 129 360 123 361 118 361 c 0
 93 362 76 377 76 395 c 0
 76 398 76 400 77 403 c 0
 82 422 107 437 133 439 c 1
 132 503 132 568 131 634 c 0
 130 703 119 719 96 729 c 0
 93 730 88 732 83 733 c 0
 73 736 69 742 69 748 c 0
 69 771 121 809 121 809 c 1
 206 805 281 804 345 804 c 0
 479 804 567 810 610 814 c 1
 618 814 l 2
 644 814 664 800 664 781 c 0
EndSplineSet
Validated: 1
Layer: 2
SplineSet
664 781 m 0
 664 760 640 739 610 736 c 0
 561 731 471 726 339 726 c 0
 305 726 269 726 229 727 c 1
 237 703 239 677 239 646 c 0
 240 575 241 504 241 435 c 1
 277 434 308 433 340 433 c 0
 397 433 454 435 534 439 c 1
 537 439 l 2
 564 439 584 425 584 406 c 2
 584 403 l 2
 582 382 556 362 526 361 c 0
 444 357 384 355 323 355 c 0
 297 355 270 355 242 356 c 1
 242 241 240 131 234 29 c 0
 233 8 208 -12 178 -14 c 2
 173 -14 l 2
 146 -14 126 1 126 20 c 2
 126 21 l 1
 132 125 134 240 134 360 c 1
 129 360 123 361 118 361 c 0
 93 362 76 377 76 395 c 0
 76 398 76 400 77 403 c 0
 82 422 107 437 133 439 c 1
 132 503 132 568 131 634 c 0
 130 703 119 719 96 729 c 0
 93 730 88 732 83 733 c 0
 73 736 69 742 69 748 c 0
 69 771 121 809 121 809 c 1
 206 805 281 804 345 804 c 0
 479 804 567 810 610 814 c 1
 618 814 l 2
 644 814 664 800 664 781 c 0
EndSplineSet
Validated: 1
EndChar

StartChar: G
Encoding: 71 71 43
Width: 770
VWidth: 0
GlyphClass: 2
Flags: MW
LayerCount: 3
Back
SplineSet
440 330 m 5
 473 339 558 357 594 360 c 4
 719 370 708 15 420 15 c 4
 261 15 125 140 125 393 c 4
 125 865 626 858 626 626 c 1029
EndSplineSet
Fore
SplineSet
377 316 m 0
 376 319 376 322 376 325 c 0
 376 343 393 360 418 367 c 0
 457 378 538 395 586 399 c 0
 590 399 593 400 596 400 c 0
 605 400 614 399 622 397 c 0
 693 383 715 324 715 264 c 0
 715 244 713 225 709 206 c 0
 689 107 598 -24 402 -24 c 0
 200 -24 61 128 61 387 c 0
 61 651 218 799 398 818 c 0
 411 819 423 820 436 820 c 0
 566 820 670 746 670 632 c 0
 670 611 646 590 616 587 c 2
 608 587 l 2
 582 587 562 601 562 620 c 0
 562 699 494 741 420 741 c 0
 413 741 405 741 398 740 c 0
 308 730 169 648 169 399 c 0
 169 152 302 54 418 54 c 0
 526 54 584 121 601 206 c 0
 604 219 605 231 605 242 c 0
 605 284 589 315 580 321 c 1
 552 318 468 300 442 293 c 0
 436 291 429 290 423 290 c 0
 401 290 382 300 377 316 c 0
EndSplineSet
Validated: 1
Layer: 2
SplineSet
377 316 m 0
 376 319 376 322 376 325 c 0
 376 343 393 360 418 367 c 0
 457 378 538 395 586 399 c 0
 590 399 593 400 596 400 c 0
 605 400 614 399 622 397 c 0
 693 383 715 324 715 264 c 0
 715 244 713 225 709 206 c 0
 689 107 598 -24 402 -24 c 0
 200 -24 61 128 61 387 c 0
 61 651 218 799 398 818 c 0
 411 819 423 820 436 820 c 0
 566 820 670 746 670 632 c 0
 670 611 646 590 616 587 c 2
 608 587 l 2
 582 587 562 601 562 620 c 0
 562 699 494 741 420 741 c 0
 413 741 405 741 398 740 c 0
 308 730 169 648 169 399 c 0
 169 152 302 54 418 54 c 0
 526 54 584 121 601 206 c 0
 604 219 605 231 605 242 c 0
 605 284 589 315 580 321 c 1
 552 318 468 300 442 293 c 0
 436 291 429 290 423 290 c 0
 401 290 382 300 377 316 c 0
EndSplineSet
Validated: 1
EndChar

StartChar: H
Encoding: 72 72 44
Width: 810
VWidth: 0
GlyphClass: 2
Flags: MW
LayerCount: 3
Back
SplineSet
700 400 m 5
 536 392 284 392 120 400 c 1029
155 770 m 1
 172 590 167 276 165 25 c 1025
660 765 m 17
 661 478 662 317 665 30 c 1033
EndSplineSet
Fore
SplineSet
661 -9 m 0
 658 -9 655 -10 652 -10 c 0
 626 -10 607 5 606 24 c 0
 604 107 602 228 601 358 c 1
 531 356 455 355 378 355 c 0
 323 355 268 356 216 357 c 1
 216 247 215 134 214 31 c 0
 214 10 190 -11 160 -14 c 2
 152 -14 l 2
 126 -14 106 0 106 19 c 0
 107 126 108 246 108 361 c 1
 103 361 l 2
 78 362 61 377 61 395 c 0
 61 398 61 400 62 403 c 0
 67 420 86 434 108 438 c 1
 107 563 104 678 96 762 c 1
 96 765 l 2
 96 785 117 803 146 808 c 0
 150 809 154 809 158 809 c 0
 183 809 202 796 204 778 c 0
 212 688 215 566 216 436 c 1
 286 434 363 433 440 433 c 0
 495 433 550 434 601 435 c 1
 601 490 600 545 600 600 c 0
 600 655 601 709 601 759 c 0
 601 780 625 801 655 804 c 2
 663 804 l 2
 689 804 709 790 709 771 c 0
 709 719 708 664 708 608 c 0
 708 552 709 495 709 439 c 1
 733 437 749 424 749 406 c 2
 749 403 l 2
 747 386 731 370 709 364 c 1
 710 236 712 118 714 36 c 2
 714 35 l 2
 714 14 690 -5 661 -9 c 0
EndSplineSet
Validated: 1
Layer: 2
SplineSet
661 -9 m 0
 658 -9 655 -10 652 -10 c 0
 626 -10 607 5 606 24 c 0
 604 107 602 228 601 358 c 1
 531 356 455 355 378 355 c 0
 323 355 268 356 216 357 c 1
 216 247 215 134 214 31 c 0
 214 10 190 -11 160 -14 c 2
 152 -14 l 2
 126 -14 106 0 106 19 c 0
 107 126 108 246 108 361 c 1
 103 361 l 2
 78 362 61 377 61 395 c 0
 61 398 61 400 62 403 c 0
 67 420 86 434 108 438 c 1
 107 563 104 678 96 762 c 1
 96 765 l 2
 96 785 117 803 146 808 c 0
 150 809 154 809 158 809 c 0
 183 809 202 796 204 778 c 0
 212 688 215 566 216 436 c 1
 286 434 363 433 440 433 c 0
 495 433 550 434 601 435 c 1
 601 490 600 545 600 600 c 0
 600 655 601 709 601 759 c 0
 601 780 625 801 655 804 c 2
 663 804 l 2
 689 804 709 790 709 771 c 0
 709 719 708 664 708 608 c 0
 708 552 709 495 709 439 c 1
 733 437 749 424 749 406 c 2
 749 403 l 2
 747 386 731 370 709 364 c 1
 710 236 712 118 714 36 c 2
 714 35 l 2
 714 14 690 -5 661 -9 c 0
EndSplineSet
Validated: 1
EndChar

StartChar: I
Encoding: 73 73 45
Width: 460
VWidth: 0
GlyphClass: 2
Flags: MW
LayerCount: 3
Back
SplineSet
375 765 m 5
 298 760 207 761 105 765 c 5
 176 747 244 757 245 680 c 4
 248 460 240 313 240 100 c 4
 240 35 293 47 385 42 c 5
 292 24 217 31 105 36 c 1029
EndSplineSet
Fore
SplineSet
45 38 m 0
 53 55 80 69 106 69 c 2
 109 69 l 2
 135 68 160 66 182 65 c 1
 179 75 178 83 178 93 c 0
 178 273 184 406 184 574 c 0
 184 606 183 638 183 673 c 0
 182 728 161 714 79 732 c 0
 75 733 71 733 67 734 c 1
 67 739 l 2
 67 754 70 798 107 798 c 2
 109 798 l 2
 162 796 212 795 258 795 c 0
 299 795 337 796 371 798 c 2
 376 798 l 2
 399 798 416 787 416 772 c 2
 416 768 l 2
 413 750 387 734 359 732 c 0
 333 730 308 730 278 729 c 1
 284 717 287 703 287 687 c 0
 287 652 288 619 288 587 c 0
 288 418 282 286 282 107 c 2
 282 105 l 2
 282 78 283 77 319 77 c 2
 327 77 l 2
 342 77 363 76 390 75 c 0
 408 74 414 68 414 60 c 0
 414 41 380 11 380 11 c 1
 326 1 279 -3 231 -3 c 0
 183 -3 135 1 81 3 c 0
 59 4 43 15 43 29 c 0
 43 32 44 35 45 38 c 0
EndSplineSet
Validated: 1
Layer: 2
SplineSet
45 38 m 0
 53 55 80 69 106 69 c 2
 109 69 l 2
 135 68 160 66 182 65 c 1
 179 75 178 83 178 93 c 0
 178 273 184 406 184 574 c 0
 184 606 183 638 183 673 c 0
 182 728 161 714 79 732 c 0
 75 733 71 733 67 734 c 1
 67 739 l 2
 67 754 70 798 107 798 c 2
 109 798 l 2
 162 796 212 795 258 795 c 0
 299 795 337 796 371 798 c 2
 376 798 l 2
 399 798 416 787 416 772 c 2
 416 768 l 2
 413 750 387 734 359 732 c 0
 333 730 308 730 278 729 c 1
 284 717 287 703 287 687 c 0
 287 652 288 619 288 587 c 0
 288 418 282 286 282 107 c 2
 282 105 l 2
 282 78 283 77 319 77 c 2
 327 77 l 2
 342 77 363 76 390 75 c 0
 408 74 414 68 414 60 c 0
 414 41 380 11 380 11 c 1
 326 1 279 -3 231 -3 c 0
 183 -3 135 1 81 3 c 0
 59 4 43 15 43 29 c 0
 43 32 44 35 45 38 c 0
EndSplineSet
Validated: 1
EndChar

StartChar: J
Encoding: 74 74 46
Width: 520
VWidth: 0
GlyphClass: 2
Flags: MW
LayerCount: 3
Back
SplineSet
450 765 m 1
 373 760 282 761 180 765 c 1
 251 747 341 757 350 680 c 0
 362 572 370 344 370 223 c 0
 370 111 349 25 228 25 c 0
 163 25 99 61 70 100 c 1025
EndSplineSet
Fore
SplineSet
412 229 m 0
 412 134 403 4 241 -13 c 0
 231 -14 220 -14 210 -14 c 0
 120 -14 46 31 11 78 c 0
 7 83 6 88 6 94 c 0
 6 108 17 123 36 132 c 0
 46 137 57 139 68 139 c 0
 85 139 101 133 109 122 c 0
 132 91 186 64 226 64 c 0
 232 64 237 65 241 65 c 0
 281 69 308 102 308 216 c 0
 308 336 300 565 288 671 c 0
 281 728 235 710 142 734 c 1
 142 739 l 2
 142 754 145 798 182 798 c 2
 184 798 l 2
 237 796 287 795 333 795 c 0
 374 795 412 796 446 798 c 2
 451 798 l 2
 475 798 492 786 492 771 c 2
 492 768 l 2
 489 750 462 734 434 732 c 0
 416 731 398 731 378 730 c 1
 385 719 390 705 392 689 c 0
 404 579 412 351 412 229 c 0
EndSplineSet
Validated: 1
Layer: 2
SplineSet
412 229 m 0
 412 134 403 4 241 -13 c 0
 231 -14 220 -14 210 -14 c 0
 120 -14 46 31 11 78 c 0
 7 83 6 88 6 94 c 0
 6 108 17 123 36 132 c 0
 46 137 57 139 68 139 c 0
 85 139 101 133 109 122 c 0
 132 91 186 64 226 64 c 0
 232 64 237 65 241 65 c 0
 281 69 308 102 308 216 c 0
 308 336 300 565 288 671 c 0
 281 728 235 710 142 734 c 1
 142 739 l 2
 142 754 145 798 182 798 c 2
 184 798 l 2
 237 796 287 795 333 795 c 0
 374 795 412 796 446 798 c 2
 451 798 l 2
 475 798 492 786 492 771 c 2
 492 768 l 2
 489 750 462 734 434 732 c 0
 416 731 398 731 378 730 c 1
 385 719 390 705 392 689 c 0
 404 579 412 351 412 229 c 0
EndSplineSet
Validated: 1
EndChar

StartChar: K
Encoding: 75 75 47
Width: 770
VWidth: 0
GlyphClass: 2
Flags: MW
LayerCount: 3
Back
SplineSet
690 30 m 1
 653 75 383 376 130 455 c 1
 331 555 545 691 635 770 c 1025
140 770 m 1
 167 682 174 425 175 25 c 1029
EndSplineSet
Fore
SplineSet
124 807 m 0
 130 809 137 809 143 809 c 0
 165 809 183 800 188 784 c 0
 202 738 211 658 216 544 c 1
 374 632 524 734 590 792 c 0
 602 803 620 809 637 809 c 0
 648 809 659 807 667 802 c 0
 679 796 684 786 684 776 c 0
 684 767 680 757 670 748 c 0
 584 673 408 559 227 463 c 1
 470 353 697 97 733 54 c 0
 737 49 739 43 739 37 c 0
 739 23 729 8 711 -1 c 0
 700 -6 688 -9 676 -9 c 0
 660 -9 645 -4 637 6 c 0
 608 41 417 253 221 367 c 1
 223 270 224 158 224 31 c 0
 224 10 200 -11 170 -14 c 2
 162 -14 l 2
 136 -14 116 0 116 19 c 0
 116 174 114 308 111 419 c 0
 107 421 102 422 98 423 c 2
 98 423 59 429 59 446 c 0
 59 455 69 466 99 481 c 0
 102 483 105 484 108 486 c 0
 103 622 95 714 82 756 c 0
 81 758 81 761 81 764 c 0
 81 782 99 801 124 807 c 0
EndSplineSet
Validated: 1
Layer: 2
SplineSet
124 807 m 0
 130 809 137 809 143 809 c 0
 165 809 183 800 188 784 c 0
 202 738 211 658 216 544 c 1
 374 632 524 734 590 792 c 0
 602 803 620 809 637 809 c 0
 648 809 659 807 667 802 c 0
 679 796 684 786 684 776 c 0
 684 767 680 757 670 748 c 0
 584 673 408 559 227 463 c 1
 470 353 697 97 733 54 c 0
 737 49 739 43 739 37 c 0
 739 23 729 8 711 -1 c 0
 700 -6 688 -9 676 -9 c 0
 660 -9 645 -4 637 6 c 0
 608 41 417 253 221 367 c 1
 223 270 224 158 224 31 c 0
 224 10 200 -11 170 -14 c 2
 162 -14 l 2
 136 -14 116 0 116 19 c 0
 116 174 114 308 111 419 c 0
 107 421 102 422 98 423 c 2
 98 423 59 429 59 446 c 0
 59 455 69 466 99 481 c 0
 102 483 105 484 108 486 c 0
 103 622 95 714 82 756 c 0
 81 758 81 761 81 764 c 0
 81 782 99 801 124 807 c 0
EndSplineSet
Validated: 1
EndChar

StartChar: L
Encoding: 76 76 48
Width: 650
VWidth: 0
GlyphClass: 2
Flags: MW
LayerCount: 3
Back
SplineSet
580 30 m 1
 297 18 172 -16 180 100 c 0
 190 243 212 562 185 765 c 1025
EndSplineSet
Fore
SplineSet
624 32 m 2
 621 11 595 -8 565 -9 c 0
 465 -13 372 -23 297 -23 c 0
 188 -23 116 -3 116 84 c 2
 116 96 l 1
 122 188 134 355 134 514 c 0
 134 601 130 686 121 756 c 1
 121 760 l 2
 121 780 143 798 170 803 c 0
 174 804 178 804 182 804 c 0
 206 804 226 792 229 774 c 0
 239 701 242 613 242 525 c 0
 242 363 230 197 224 104 c 1
 224 94 l 2
 224 64 237 55 292 55 c 0
 343 55 430 63 575 69 c 1
 578 69 l 2
 605 69 624 55 624 36 c 2
 624 32 l 2
EndSplineSet
Validated: 1
Layer: 2
SplineSet
624 32 m 2
 621 11 595 -8 565 -9 c 0
 465 -13 372 -23 297 -23 c 0
 188 -23 116 -3 116 84 c 2
 116 96 l 1
 122 188 134 355 134 514 c 0
 134 601 130 686 121 756 c 1
 121 760 l 2
 121 780 143 798 170 803 c 0
 174 804 178 804 182 804 c 0
 206 804 226 792 229 774 c 0
 239 701 242 613 242 525 c 0
 242 363 230 197 224 104 c 1
 224 94 l 2
 224 64 237 55 292 55 c 0
 343 55 430 63 575 69 c 1
 578 69 l 2
 605 69 624 55 624 36 c 2
 624 32 l 2
EndSplineSet
Validated: 1
EndChar

StartChar: M
Encoding: 77 77 49
Width: 890
VWidth: 0
GlyphClass: 2
Flags: MW
LayerCount: 3
Back
SplineSet
120 20 m 5
 142 200 152 544 160 760 c 5
 362 403 432 197 450 180 c 5
 468 196 547 415 740 775 c 5
 744 541 761 170 780 30 c 1029
EndSplineSet
Fore
SplineSet
110 -19 m 2
 107 -19 l 2
 80 -19 61 -5 61 14 c 2
 61 18 l 1
 79 169 90 440 97 650 c 0
 98 687 100 723 101 755 c 1
 101 755 148 793 181 793 c 0
 191 793 200 789 206 779 c 0
 224 747 241 716 257 687 c 0
 351 514 416 353 453 270 c 1
 499 372 578 567 690 784 c 1
 690 784 732 805 761 805 c 0
 777 805 789 799 789 781 c 0
 789 771 790 761 790 751 c 0
 795 517 811 170 829 39 c 1
 829 35 l 2
 829 15 807 -3 780 -8 c 0
 776 -9 772 -9 768 -9 c 0
 744 -9 724 3 721 21 c 0
 707 128 693 391 686 598 c 1
 564 352 522 195 480 158 c 0
 462 142 448 137 437 137 c 0
 420 137 409 149 405 153 c 0
 372 184 332 337 202 586 c 1
 195 395 185 154 169 22 c 0
 166 1 140 -18 110 -19 c 2
EndSplineSet
Validated: 1
Layer: 2
SplineSet
110 -19 m 2
 107 -19 l 2
 80 -19 61 -5 61 14 c 2
 61 18 l 1
 79 169 90 440 97 650 c 0
 98 687 100 723 101 755 c 1
 101 755 148 793 181 793 c 0
 191 793 200 789 206 779 c 0
 224 747 241 716 257 687 c 0
 351 514 416 353 453 270 c 1
 499 372 578 567 690 784 c 1
 690 784 732 805 761 805 c 0
 777 805 789 799 789 781 c 0
 789 771 790 761 790 751 c 0
 795 517 811 170 829 39 c 1
 829 35 l 2
 829 15 807 -3 780 -8 c 0
 776 -9 772 -9 768 -9 c 0
 744 -9 724 3 721 21 c 0
 707 128 693 391 686 598 c 1
 564 352 522 195 480 158 c 0
 462 142 448 137 437 137 c 0
 420 137 409 149 405 153 c 0
 372 184 332 337 202 586 c 1
 195 395 185 154 169 22 c 0
 166 1 140 -18 110 -19 c 2
EndSplineSet
Validated: 1
EndChar

StartChar: N
Encoding: 78 78 50
Width: 810
VWidth: 0
GlyphClass: 2
Flags: MW
LayerCount: 3
Back
SplineSet
165 25 m 5
 167 276 167 590 150 770 c 5
 314 548 630 61 665 30 c 5
 669 198 668 602 655 765 c 1029
EndSplineSet
Fore
SplineSet
160 -14 m 2
 152 -14 l 2
 126 -14 106 0 106 19 c 0
 106 76 107 136 107 197 c 0
 107 398 103 609 92 747 c 0
 92 752 91 757 91 762 c 1
 91 762 136 804 170 804 c 0
 179 804 188 801 194 792 c 0
 308 638 493 345 608 177 c 1
 608 249 l 2
 608 431 605 652 596 757 c 1
 596 760 l 2
 596 780 618 800 647 804 c 0
 650 804 654 805 657 805 c 0
 682 805 702 792 704 773 c 0
 713 661 716 441 716 258 c 0
 716 170 715 90 714 35 c 0
 713 1 691 -8 668 -8 c 0
 643 -8 616 3 616 3 c 2
 612 7 609 9 606 13 c 0
 558 70 367 375 210 602 c 1
 214 496 215 369 215 246 c 0
 215 171 214 98 214 31 c 0
 214 10 190 -11 160 -14 c 2
EndSplineSet
Validated: 1
Layer: 2
SplineSet
160 -14 m 2
 152 -14 l 2
 126 -14 106 0 106 19 c 0
 106 76 107 136 107 197 c 0
 107 398 103 609 92 747 c 0
 92 752 91 757 91 762 c 1
 91 762 136 804 170 804 c 0
 179 804 188 801 194 792 c 0
 308 638 493 345 608 177 c 1
 608 249 l 2
 608 431 605 652 596 757 c 1
 596 760 l 2
 596 780 618 800 647 804 c 0
 650 804 654 805 657 805 c 0
 682 805 702 792 704 773 c 0
 713 661 716 441 716 258 c 0
 716 170 715 90 714 35 c 0
 713 1 691 -8 668 -8 c 0
 643 -8 616 3 616 3 c 2
 612 7 609 9 606 13 c 0
 558 70 367 375 210 602 c 1
 214 496 215 369 215 246 c 0
 215 171 214 98 214 31 c 0
 214 10 190 -11 160 -14 c 2
EndSplineSet
Validated: 1
EndChar

StartChar: O
Encoding: 79 79 51
Width: 820
VWidth: 0
GlyphClass: 2
Flags: MW
LayerCount: 3
Back
SplineSet
626 596 m 5
 678 583 713 473 713 384 c 4
 713 -107 120 -104 120 391 c 4
 120 847 573 867 646 638 c 1029
EndSplineSet
Fore
SplineSet
588 623 m 1
 562 703 488 742 416 742 c 0
 398 742 381 740 364 735 c 0
 279 713 169 620 169 397 c 0
 169 154 315 57 423 57 c 0
 429 57 436 57 442 58 c 0
 531 68 654 155 654 378 c 0
 654 457 615 549 596 559 c 0
 579 564 567 576 567 591 c 0
 567 596 568 602 572 608 c 0
 576 614 581 619 588 623 c 1
681 616 m 1
 740 572 762 472 762 390 c 0
 762 156 627 0 442 -20 c 0
 429 -21 417 -22 404 -22 c 0
 214 -22 61 131 61 385 c 0
 61 620 180 766 341 809 c 0
 372 817 403 821 433 821 c 0
 556 821 661 755 694 652 c 0
 695 649 695 647 695 644 c 0
 695 635 690 624 681 616 c 1
EndSplineSet
Validated: 1
Layer: 2
SplineSet
588 623 m 1
 562 703 488 742 416 742 c 0
 398 742 381 740 364 735 c 0
 279 713 169 620 169 397 c 0
 169 154 315 57 423 57 c 0
 429 57 436 57 442 58 c 0
 531 68 654 155 654 378 c 0
 654 457 615 549 596 559 c 0
 579 564 567 576 567 591 c 0
 567 596 568 602 572 608 c 0
 576 614 581 619 588 623 c 1
681 616 m 1
 740 572 762 472 762 390 c 0
 762 156 627 0 442 -20 c 0
 429 -21 417 -22 404 -22 c 0
 214 -22 61 131 61 385 c 0
 61 620 180 766 341 809 c 0
 372 817 403 821 433 821 c 0
 556 821 661 755 694 652 c 0
 695 649 695 647 695 644 c 0
 695 635 690 624 681 616 c 1
EndSplineSet
Validated: 1
EndChar

StartChar: P
Encoding: 80 80 52
Width: 745
VWidth: 0
GlyphClass: 2
Flags: MW
LayerCount: 3
Back
SplineSet
80 700 m 5
 829 1063 841 97 90 400 c 1029
170 605 m 5
 187 477 187 224 180 15 c 1029
EndSplineSet
Fore
SplineSet
174 -24 m 2
 167 -24 l 2
 141 -24 121 -10 121 9 c 2
 121 10 l 2
 124 91 125 178 125 262 c 2
 125 339 l 1
 102 346 77 355 53 365 c 0
 39 371 31 382 31 394 c 0
 31 402 34 410 41 418 c 0
 53 431 74 439 94 439 c 0
 102 439 110 438 117 435 c 0
 119 434 120 434 122 433 c 1
 120 498 116 554 111 596 c 1
 111 600 l 2
 111 620 133 638 160 643 c 0
 164 644 168 644 172 644 c 0
 196 644 216 632 219 614 c 0
 227 559 231 483 233 397 c 1
 283 384 326 379 363 379 c 0
 454 379 511 411 544 447 c 0
 573 479 587 521 587 562 c 0
 587 629 550 696 475 726 c 0
 448 737 415 744 374 744 c 0
 305 744 214 724 100 668 c 0
 90 663 79 661 68 661 c 0
 51 661 36 667 27 677 c 0
 23 682 21 688 21 694 c 0
 21 708 32 723 50 732 c 0
 179 795 295 823 391 823 c 0
 447 823 496 813 538 796 c 0
 645 753 698 665 698 576 c 0
 698 519 676 460 632 412 c 0
 570 344 471 302 345 302 c 0
 310 302 273 305 234 312 c 1
 234 216 232 114 229 20 c 0
 228 -1 204 -21 174 -24 c 2
EndSplineSet
Validated: 1
Layer: 2
SplineSet
174 -24 m 2
 167 -24 l 2
 141 -24 121 -10 121 9 c 2
 121 10 l 2
 124 91 125 178 125 262 c 2
 125 339 l 1
 102 346 77 355 53 365 c 0
 39 371 31 382 31 394 c 0
 31 402 34 410 41 418 c 0
 53 431 74 439 94 439 c 0
 102 439 110 438 117 435 c 0
 119 434 120 434 122 433 c 1
 120 498 116 554 111 596 c 1
 111 600 l 2
 111 620 133 638 160 643 c 0
 164 644 168 644 172 644 c 0
 196 644 216 632 219 614 c 0
 227 559 231 483 233 397 c 1
 283 384 326 379 363 379 c 0
 454 379 511 411 544 447 c 0
 573 479 587 521 587 562 c 0
 587 629 550 696 475 726 c 0
 448 737 415 744 374 744 c 0
 305 744 214 724 100 668 c 0
 90 663 79 661 68 661 c 0
 51 661 36 667 27 677 c 0
 23 682 21 688 21 694 c 0
 21 708 32 723 50 732 c 0
 179 795 295 823 391 823 c 0
 447 823 496 813 538 796 c 0
 645 753 698 665 698 576 c 0
 698 519 676 460 632 412 c 0
 570 344 471 302 345 302 c 0
 310 302 273 305 234 312 c 1
 234 216 232 114 229 20 c 0
 228 -1 204 -21 174 -24 c 2
EndSplineSet
Validated: 1
EndChar

StartChar: Q
Encoding: 81 81 53
Width: 820
VWidth: 0
GlyphClass: 2
Flags: MW
LayerCount: 3
Back
SplineSet
730 -170 m 1
 418 -44 356 550 605 550 c 0
 687 550 720 474 720 385 c 0
 720 -96 120 -104 120 391 c 0
 120 847 573 867 646 638 c 1025
EndSplineSet
Fore
SplineSet
542 93 m 1
 611 138 670 228 670 380 c 0
 670 471 632 514 593 514 c 0
 561 514 521 489 503 401 c 0
 498 376 496 348 496 320 c 0
 496 248 511 167 542 93 c 1
455 58 m 1
 420 141 402 232 402 312 c 0
 402 344 404 373 410 401 c 0
 428 488 479 586 607 586 c 0
 732 586 765 477 765 390 c 0
 765 222 689 91 575 27 c 1
 618 -47 678 -109 754 -138 c 0
 767 -143 774 -153 774 -164 c 0
 774 -171 771 -179 765 -186 c 0
 754 -198 734 -206 716 -206 c 0
 709 -206 702 -205 696 -202 c 0
 606 -164 537 -92 488 -7 c 1
 474 -10 459 -13 444 -15 c 0
 430 -17 416 -17 403 -17 c 0
 214 -17 61 132 61 385 c 0
 61 620 180 766 341 809 c 0
 372 817 403 821 433 821 c 0
 556 821 661 755 694 652 c 0
 695 649 695 647 695 644 c 0
 695 626 678 608 653 601 c 0
 647 599 640 598 634 598 c 0
 612 598 593 608 588 624 c 0
 562 704 488 742 416 742 c 0
 398 742 381 740 364 735 c 0
 279 713 169 620 169 397 c 0
 169 154 317 56 427 56 c 0
 433 56 438 56 444 57 c 0
 448 57 451 57 455 58 c 1
EndSplineSet
Validated: 1
Layer: 2
SplineSet
542 93 m 1
 611 138 670 228 670 380 c 0
 670 471 632 514 593 514 c 0
 561 514 521 489 503 401 c 0
 498 376 496 348 496 320 c 0
 496 248 511 167 542 93 c 1
455 58 m 1
 420 141 402 232 402 312 c 0
 402 344 404 373 410 401 c 0
 428 488 479 586 607 586 c 0
 732 586 765 477 765 390 c 0
 765 222 689 91 575 27 c 1
 618 -47 678 -109 754 -138 c 0
 767 -143 774 -153 774 -164 c 0
 774 -171 771 -179 765 -186 c 0
 754 -198 734 -206 716 -206 c 0
 709 -206 702 -205 696 -202 c 0
 606 -164 537 -92 488 -7 c 1
 474 -10 459 -13 444 -15 c 0
 430 -17 416 -17 403 -17 c 0
 214 -17 61 132 61 385 c 0
 61 620 180 766 341 809 c 0
 372 817 403 821 433 821 c 0
 556 821 661 755 694 652 c 0
 695 649 695 647 695 644 c 0
 695 626 678 608 653 601 c 0
 647 599 640 598 634 598 c 0
 612 598 593 608 588 624 c 0
 562 704 488 742 416 742 c 0
 398 742 381 740 364 735 c 0
 279 713 169 620 169 397 c 0
 169 154 317 56 427 56 c 0
 433 56 438 56 444 57 c 0
 448 57 451 57 455 58 c 1
EndSplineSet
Validated: 1
EndChar

StartChar: R
Encoding: 82 82 54
Width: 770
VWidth: 0
GlyphClass: 2
Flags: MW
LayerCount: 3
Back
SplineSet
690 10 m 5
 545 118 260 400 260 400 c 5
 817 210 824 1042 80 700 c 1029
170 605 m 5
 187 477 187 224 180 15 c 1029
EndSplineSet
Fore
SplineSet
174 -24 m 2
 167 -24 l 2
 141 -24 121 -10 121 9 c 2
 121 10 l 2
 124 88 125 173 125 255 c 0
 125 391 121 519 111 596 c 1
 111 600 l 2
 111 620 133 638 160 643 c 0
 164 644 168 644 172 644 c 0
 196 644 216 632 219 614 c 0
 226 565 230 500 232 426 c 1
 240 434 249 440 263 440 c 0
 269 440 276 439 284 436 c 0
 338 418 383 411 420 411 c 0
 458 411 487 418 509 428 c 0
 565 454 600 513 600 574 c 0
 600 606 591 639 569 668 c 0
 537 711 480 745 388 745 c 0
 315 745 220 724 99 668 c 0
 89 663 78 661 67 661 c 0
 50 661 34 667 26 678 c 0
 22 683 21 688 21 694 c 0
 21 708 32 723 51 732 c 0
 188 795 307 822 404 822 c 0
 529 822 619 778 667 713 c 0
 695 675 710 629 710 582 c 0
 710 498 662 412 557 364 c 0
 513 344 460 332 404 332 c 2
 397 332 l 1
 491 242 640 104 727 39 c 0
 735 33 739 25 739 16 c 0
 739 5 733 -7 720 -16 c 0
 708 -25 692 -29 677 -29 c 0
 664 -29 652 -26 643 -19 c 0
 519 73 305 280 233 350 c 1
 233 273 l 2
 233 189 232 101 229 20 c 0
 228 -1 204 -21 174 -24 c 2
EndSplineSet
Validated: 1
Layer: 2
SplineSet
174 -24 m 2
 167 -24 l 2
 141 -24 121 -10 121 9 c 2
 121 10 l 2
 124 88 125 173 125 255 c 0
 125 391 121 519 111 596 c 1
 111 600 l 2
 111 620 133 638 160 643 c 0
 164 644 168 644 172 644 c 0
 196 644 216 632 219 614 c 0
 226 565 230 500 232 426 c 1
 240 434 249 440 263 440 c 0
 269 440 276 439 284 436 c 0
 338 418 383 411 420 411 c 0
 458 411 487 418 509 428 c 0
 565 454 600 513 600 574 c 0
 600 606 591 639 569 668 c 0
 537 711 480 745 388 745 c 0
 315 745 220 724 99 668 c 0
 89 663 78 661 67 661 c 0
 50 661 34 667 26 678 c 0
 22 683 21 688 21 694 c 0
 21 708 32 723 51 732 c 0
 188 795 307 822 404 822 c 0
 529 822 619 778 667 713 c 0
 695 675 710 629 710 582 c 0
 710 498 662 412 557 364 c 0
 513 344 460 332 404 332 c 2
 397 332 l 1
 491 242 640 104 727 39 c 0
 735 33 739 25 739 16 c 0
 739 5 733 -7 720 -16 c 0
 708 -25 692 -29 677 -29 c 0
 664 -29 652 -26 643 -19 c 0
 519 73 305 280 233 350 c 1
 233 273 l 2
 233 189 232 101 229 20 c 0
 228 -1 204 -21 174 -24 c 2
EndSplineSet
Validated: 1
EndChar

StartChar: S
Encoding: 83 83 55
Width: 690
VWidth: 0
GlyphClass: 2
Flags: MW
LayerCount: 3
Back
SplineSet
548 623 m 5
 560 704 495 783 382 783 c 4
 107 783 10 524 255 443 c 4
 299 428 432 381 468 369 c 4
 711 292 618 17 367 17 c 4
 240 17 157 76 122 163 c 1029
EndSplineSet
Fore
SplineSet
103 199 m 0
 111 201 119 202 126 202 c 0
 146 202 163 194 169 179 c 0
 200 102 269 56 370 56 c 0
 442 56 492 84 522 124 c 0
 540 148 550 176 550 203 c 0
 550 254 516 305 435 330 c 0
 397 343 264 389 221 404 c 0
 108 442 55 515 55 590 c 0
 55 601 56 611 58 622 c 0
 79 725 204 822 385 822 c 0
 524 822 599 737 599 648 c 0
 599 640 598 633 597 625 c 0
 594 604 566 585 537 584 c 2
 535 584 l 2
 509 584 489 598 489 617 c 2
 489 621 l 2
 490 626 490 631 490 636 c 0
 490 695 438 744 369 744 c 0
 248 744 179 686 166 622 c 0
 165 615 164 609 164 602 c 0
 164 555 198 509 279 482 c 0
 324 467 455 420 491 408 c 0
 607 371 659 294 659 216 c 0
 659 174 643 131 615 94 c 0
 565 29 471 -22 354 -22 c 0
 201 -22 104 50 65 147 c 0
 64 150 63 154 63 157 c 0
 63 174 79 192 103 199 c 0
EndSplineSet
Validated: 1
Layer: 2
SplineSet
103 199 m 0
 111 201 119 202 126 202 c 0
 146 202 163 194 169 179 c 0
 200 102 269 56 370 56 c 0
 442 56 492 84 522 124 c 0
 540 148 550 176 550 203 c 0
 550 254 516 305 435 330 c 0
 397 343 264 389 221 404 c 0
 108 442 55 515 55 590 c 0
 55 601 56 611 58 622 c 0
 79 725 204 822 385 822 c 0
 524 822 599 737 599 648 c 0
 599 640 598 633 597 625 c 0
 594 604 566 585 537 584 c 2
 535 584 l 2
 509 584 489 598 489 617 c 2
 489 621 l 2
 490 626 490 631 490 636 c 0
 490 695 438 744 369 744 c 0
 248 744 179 686 166 622 c 0
 165 615 164 609 164 602 c 0
 164 555 198 509 279 482 c 0
 324 467 455 420 491 408 c 0
 607 371 659 294 659 216 c 0
 659 174 643 131 615 94 c 0
 565 29 471 -22 354 -22 c 0
 201 -22 104 50 65 147 c 0
 64 150 63 154 63 157 c 0
 63 174 79 192 103 199 c 0
EndSplineSet
Validated: 1
EndChar

StartChar: T
Encoding: 84 84 56
Width: 710
VWidth: 0
GlyphClass: 2
Flags: MW
LayerCount: 3
Back
SplineSet
360 20 m 1
 366 332 364 540 355 680 c 0
 352 727 320 744 284 748 c 0
 218 756 95 767 90 770 c 1
 96 771 224 761 374 761 c 4
 458 761 549 767 630 770 c 1025
EndSplineSet
Fore
SplineSet
679 772 m 2
 676 751 649 732 620 731 c 0
 551 728 473 723 397 722 c 1
 401 711 403 701 404 688 c 0
 410 601 412 488 412 341 c 0
 412 249 411 145 409 25 c 0
 409 4 384 -16 354 -19 c 2
 347 -19 l 2
 321 -19 301 -4 301 15 c 0
 303 135 304 239 304 330 c 0
 304 476 302 586 296 672 c 0
 294 705 280 707 263 709 c 0
 194 717 86 715 47 738 c 0
 27 750 20 760 20 769 c 0
 20 795 80 808 80 808 c 2
 88 809 98 810 110 810 c 0
 162 810 252 800 377 800 c 0
 458 800 547 806 630 809 c 2
 632 809 l 2
 658 809 679 795 679 776 c 2
 679 772 l 2
EndSplineSet
Validated: 1
Layer: 2
SplineSet
679 772 m 2
 676 751 649 732 620 731 c 0
 551 728 473 723 397 722 c 1
 401 711 403 701 404 688 c 0
 410 601 412 488 412 341 c 0
 412 249 411 145 409 25 c 0
 409 4 384 -16 354 -19 c 2
 347 -19 l 2
 321 -19 301 -4 301 15 c 0
 303 135 304 239 304 330 c 0
 304 476 302 586 296 672 c 0
 294 705 280 707 263 709 c 0
 194 717 86 715 47 738 c 0
 27 750 20 760 20 769 c 0
 20 795 80 808 80 808 c 2
 88 809 98 810 110 810 c 0
 162 810 252 800 377 800 c 0
 458 800 547 806 630 809 c 2
 632 809 l 2
 658 809 679 795 679 776 c 2
 679 772 l 2
EndSplineSet
Validated: 1
EndChar

StartChar: U
Encoding: 85 85 57
Width: 810
VWidth: 0
GlyphClass: 2
Flags: MW
LayerCount: 3
Back
SplineSet
657 760 m 5
 660 588 670 417 670 320 c 4
 670 144 606 15 410 15 c 4
 235 15 150 99 150 320 c 4
 150 417 161 620 161 760 c 1029
EndSplineSet
Fore
SplineSet
651 799 m 2
 659 799 l 2
 686 799 706 785 706 766 c 0
 709 595 719 425 719 326 c 0
 719 287 716 249 709 214 c 0
 683 87 591 -24 397 -24 c 0
 185 -24 91 88 91 314 c 0
 91 413 102 615 102 754 c 0
 102 775 126 796 156 799 c 2
 164 799 l 2
 190 799 210 785 210 766 c 0
 210 625 199 421 199 326 c 0
 199 110 275 54 413 54 c 0
 527 54 580 102 602 214 c 0
 608 244 611 278 611 314 c 0
 611 409 601 581 598 754 c 0
 598 775 621 796 651 799 c 2
EndSplineSet
Validated: 1
Layer: 2
SplineSet
651 799 m 2
 659 799 l 2
 686 799 706 785 706 766 c 0
 709 595 719 425 719 326 c 0
 719 287 716 249 709 214 c 0
 683 87 591 -24 397 -24 c 0
 185 -24 91 88 91 314 c 0
 91 413 102 615 102 754 c 0
 102 775 126 796 156 799 c 2
 164 799 l 2
 190 799 210 785 210 766 c 0
 210 625 199 421 199 326 c 0
 199 110 275 54 413 54 c 0
 527 54 580 102 602 214 c 0
 608 244 611 278 611 314 c 0
 611 409 601 581 598 754 c 0
 598 775 621 796 651 799 c 2
EndSplineSet
Validated: 1
EndChar

StartChar: V
Encoding: 86 86 58
Width: 790
VWidth: 0
GlyphClass: 2
Flags: MW
LayerCount: 3
Back
SplineSet
715 752 m 5
 683 643 555 299 405 20 c 5
 350 183 206 583 95 765 c 1029
EndSplineSet
Fore
SplineSet
717 791 m 2
 742 790 759 775 759 757 c 0
 759 754 759 752 758 749 c 0
 725 637 597 294 445 11 c 1
 445 11 407 -21 376 -21 c 0
 362 -21 349 -14 342 6 c 0
 341 10 340 14 338 19 c 0
 280 188 140 573 35 745 c 0
 32 749 31 754 31 759 c 0
 31 774 44 791 64 799 c 0
 73 803 82 804 91 804 c 0
 110 804 128 797 135 785 c 0
 227 633 338 335 407 142 c 1
 527 388 626 665 652 755 c 0
 658 775 686 791 714 791 c 2
 717 791 l 2
EndSplineSet
Validated: 1
Layer: 2
SplineSet
717 791 m 2
 742 790 759 775 759 757 c 0
 759 754 759 752 758 749 c 0
 725 637 597 294 445 11 c 1
 445 11 407 -21 376 -21 c 0
 362 -21 349 -14 342 6 c 0
 341 10 340 14 338 19 c 0
 280 188 140 573 35 745 c 0
 32 749 31 754 31 759 c 0
 31 774 44 791 64 799 c 0
 73 803 82 804 91 804 c 0
 110 804 128 797 135 785 c 0
 227 633 338 335 407 142 c 1
 527 388 626 665 652 755 c 0
 658 775 686 791 714 791 c 2
 717 791 l 2
EndSplineSet
Validated: 1
EndChar

StartChar: W
Encoding: 87 87 59
Width: 1080
VWidth: 0
GlyphClass: 2
Flags: MW
LayerCount: 3
Back
SplineSet
1000 760 m 1
 929 563 879 343 795 25 c 1
 732 203 567 684 540 725 c 1
 516 684 354 160 305 20 c 1
 240 282 152 600 100 760 c 1025
EndSplineSet
Fore
SplineSet
1004 799 m 2
 1028 797 1045 782 1045 765 c 0
 1045 762 1044 758 1043 755 c 0
 973 561 920 342 836 23 c 1
 836 23 792 -10 760 -10 c 0
 747 -10 737 -5 732 10 c 0
 731 13 730 17 729 20 c 0
 683 149 590 448 531 608 c 1
 472 430 381 116 346 16 c 1
 346 16 301 -13 270 -13 c 0
 256 -13 245 -8 241 8 c 0
 176 269 89 587 37 746 c 0
 36 749 36 751 36 754 c 0
 36 772 53 790 78 797 c 0
 84 799 91 800 97 800 c 0
 119 800 138 790 143 774 c 0
 184 648 256 386 308 169 c 1
 370 377 460 694 485 736 c 0
 501 763 518 772 533 772 c 0
 559 772 580 746 580 746 c 1
 607 704 714 384 784 168 c 1
 837 392 885 606 942 765 c 0
 950 785 972 799 999 799 c 2
 1004 799 l 2
EndSplineSet
Validated: 1
Layer: 2
SplineSet
1004 799 m 2
 1028 797 1045 782 1045 765 c 0
 1045 762 1044 758 1043 755 c 0
 973 561 920 342 836 23 c 1
 836 23 792 -10 760 -10 c 0
 747 -10 737 -5 732 10 c 0
 731 13 730 17 729 20 c 0
 683 149 590 448 531 608 c 1
 472 430 381 116 346 16 c 1
 346 16 301 -13 270 -13 c 0
 256 -13 245 -8 241 8 c 0
 176 269 89 587 37 746 c 0
 36 749 36 751 36 754 c 0
 36 772 53 790 78 797 c 0
 84 799 91 800 97 800 c 0
 119 800 138 790 143 774 c 0
 184 648 256 386 308 169 c 1
 370 377 460 694 485 736 c 0
 501 763 518 772 533 772 c 0
 559 772 580 746 580 746 c 1
 607 704 714 384 784 168 c 1
 837 392 885 606 942 765 c 0
 950 785 972 799 999 799 c 2
 1004 799 l 2
EndSplineSet
Validated: 1
EndChar

StartChar: X
Encoding: 88 88 60
Width: 770
VWidth: 0
GlyphClass: 2
Flags: MW
LayerCount: 3
Back
SplineSet
85 30 m 1
 277 303 412 487 643 760 c 1025
690 43 m 1
 457 314 332 487 145 760 c 1025
EndSplineSet
Fore
SplineSet
117 793 m 0
 127 797 137 799 147 799 c 0
 165 799 181 793 189 781 c 0
 257 681 317 595 377 513 c 1
 442 595 511 681 593 777 c 0
 605 791 627 800 647 800 c 0
 654 800 661 798 668 796 c 0
 684 790 692 779 692 766 c 0
 692 758 689 750 683 743 c 0
 587 629 508 532 434 436 c 1
 520 321 611 207 732 67 c 0
 737 61 739 55 739 48 c 0
 739 34 729 21 712 12 c 0
 701 7 689 4 678 4 c 0
 662 4 647 9 638 19 c 0
 531 143 447 248 369 350 c 1
 291 246 216 140 128 16 c 0
 117 0 94 -9 72 -9 c 0
 66 -9 60 -9 54 -7 c 0
 36 -2 26 11 26 25 c 0
 26 31 28 38 32 44 c 0
 133 187 219 306 311 427 c 1
 240 523 171 622 91 739 c 0
 88 744 86 750 86 755 c 0
 86 770 97 784 117 793 c 0
EndSplineSet
Validated: 1
Layer: 2
SplineSet
117 793 m 0
 127 797 137 799 147 799 c 0
 165 799 181 793 189 781 c 0
 257 681 317 595 377 513 c 1
 442 595 511 681 593 777 c 0
 605 791 627 800 647 800 c 0
 654 800 661 798 668 796 c 0
 684 790 692 779 692 766 c 0
 692 758 689 750 683 743 c 0
 587 629 508 532 434 436 c 1
 520 321 611 207 732 67 c 0
 737 61 739 55 739 48 c 0
 739 34 729 21 712 12 c 0
 701 7 689 4 678 4 c 0
 662 4 647 9 638 19 c 0
 531 143 447 248 369 350 c 1
 291 246 216 140 128 16 c 0
 117 0 94 -9 72 -9 c 0
 66 -9 60 -9 54 -7 c 0
 36 -2 26 11 26 25 c 0
 26 31 28 38 32 44 c 0
 133 187 219 306 311 427 c 1
 240 523 171 622 91 739 c 0
 88 744 86 750 86 755 c 0
 86 770 97 784 117 793 c 0
EndSplineSet
Validated: 1
EndChar

StartChar: Y
Encoding: 89 89 61
Width: 710
VWidth: 0
GlyphClass: 2
Flags: MW
LayerCount: 3
Back
SplineSet
427 392 m 5
 393 355 381 345 357 336 c 5
 264 383 156 581 90 770 c 1029
370 20 m 5
 364 104 363 180 365 260 c 4
 367 363 474 399 630 760 c 1029
EndSplineSet
Fore
SplineSet
642 799 m 2
 665 797 680 783 680 766 c 0
 680 762 679 758 677 754 c 0
 622 626 572 537 531 472 c 0
 452 348 415 317 414 265 c 0
 413 241 413 218 413 194 c 0
 413 140 415 86 419 28 c 1
 419 25 l 2
 419 5 397 -15 368 -19 c 0
 365 -19 361 -20 358 -20 c 0
 333 -20 313 -7 311 12 c 0
 307 71 305 127 305 183 c 0
 305 207 305 231 306 255 c 0
 306 273 309 289 314 305 c 1
 262 332 218 383 177 448 c 0
 121 535 70 646 32 755 c 0
 31 758 30 761 30 764 c 0
 30 782 47 800 72 807 c 0
 79 809 85 810 92 810 c 0
 114 810 133 800 138 785 c 0
 174 680 225 571 277 490 c 0
 304 449 332 404 355 382 c 1
 376 413 403 449 433 496 c 0
 472 557 520 642 573 766 c 0
 581 785 609 799 635 799 c 2
 642 799 l 2
EndSplineSet
Validated: 1
Layer: 2
SplineSet
642 799 m 2
 665 797 680 783 680 766 c 0
 680 762 679 758 677 754 c 0
 622 626 572 537 531 472 c 0
 452 348 415 317 414 265 c 0
 413 241 413 218 413 194 c 0
 413 140 415 86 419 28 c 1
 419 25 l 2
 419 5 397 -15 368 -19 c 0
 365 -19 361 -20 358 -20 c 0
 333 -20 313 -7 311 12 c 0
 307 71 305 127 305 183 c 0
 305 207 305 231 306 255 c 0
 306 273 309 289 314 305 c 1
 262 332 218 383 177 448 c 0
 121 535 70 646 32 755 c 0
 31 758 30 761 30 764 c 0
 30 782 47 800 72 807 c 0
 79 809 85 810 92 810 c 0
 114 810 133 800 138 785 c 0
 174 680 225 571 277 490 c 0
 304 449 332 404 355 382 c 1
 376 413 403 449 433 496 c 0
 472 557 520 642 573 766 c 0
 581 785 609 799 635 799 c 2
 642 799 l 2
EndSplineSet
Validated: 1
EndChar

StartChar: Z
Encoding: 90 90 62
Width: 730
VWidth: 0
GlyphClass: 2
Flags: MW
LayerCount: 3
Back
SplineSet
645 45 m 5
 475 29 110 21 110 67 c 4
 110 139 360 430 618 760 c 5
 425 748 327 744 130 755 c 1029
EndSplineSet
Fore
SplineSet
699 51 m 2
 697 29 666 8 631 5 c 0
 567 -1 432 -13 306 -13 c 0
 165 -13 36 2 36 58 c 0
 36 152 267 410 507 715 c 1
 434 711 373 709 308 709 c 0
 247 709 182 711 101 715 c 0
 74 717 56 729 56 746 c 0
 56 750 57 754 59 758 c 0
 68 779 102 795 134 795 c 2
 139 795 l 1
 218 791 279 789 337 789 c 0
 423 789 501 793 616 800 c 1
 630 800 l 2
 668 800 679 790 679 778 c 0
 679 764 665 749 665 749 c 1
 424 441 191 162 166 85 c 1
 197 77 271 74 355 74 c 0
 454 74 567 78 639 85 c 1
 648 85 l 2
 677 85 699 72 699 53 c 2
 699 51 l 2
EndSplineSet
Validated: 1
Layer: 2
SplineSet
699 51 m 2
 697 29 666 8 631 5 c 0
 567 -1 432 -13 306 -13 c 0
 165 -13 36 2 36 58 c 0
 36 152 267 410 507 715 c 1
 434 711 373 709 308 709 c 0
 247 709 182 711 101 715 c 0
 74 717 56 729 56 746 c 0
 56 750 57 754 59 758 c 0
 68 779 102 795 134 795 c 2
 139 795 l 1
 218 791 279 789 337 789 c 0
 423 789 501 793 616 800 c 1
 630 800 l 2
 668 800 679 790 679 778 c 0
 679 764 665 749 665 749 c 1
 424 441 191 162 166 85 c 1
 197 77 271 74 355 74 c 0
 454 74 567 78 639 85 c 1
 648 85 l 2
 677 85 699 72 699 53 c 2
 699 51 l 2
EndSplineSet
Validated: 1
EndChar

StartChar: bracketleft
Encoding: 91 91 63
Width: 360
VWidth: 0
GlyphClass: 2
Flags: MW
LayerCount: 3
Back
SplineSet
260 -60 m 1
 240 -60 177 -63 115 -62 c 1
 143 331 132 674 110 860 c 1
 159 858 234 858 260 860 c 1025
EndSplineSet
Fore
SplineSet
299 -60 m 2
 296 -76 275 -89 254 -89 c 0
 239 -89 189 -91 135 -91 c 2
 108 -91 l 2
 88 -91 75 -79 75 -66 c 2
 75 -65 l 1
 87 104 92 265 92 407 c 0
 92 594 83 749 71 853 c 1
 71 858 l 2
 71 868 75 889 114 889 c 2
 118 889 l 2
 147 888 188 887 219 887 c 0
 238 887 254 887 262 888 c 2
 267 888 l 2
 286 888 300 878 300 864 c 2
 300 863 l 2
 299 847 280 834 258 832 c 0
 241 831 215 830 186 830 c 2
 153 830 l 1
 164 724 171 577 171 406 c 0
 171 272 167 124 156 -34 c 1
 203 -34 247 -31 266 -31 c 0
 285 -31 299 -42 299 -56 c 2
 299 -60 l 2
EndSplineSet
Validated: 1
Layer: 2
SplineSet
299 -60 m 2
 296 -76 275 -89 254 -89 c 0
 239 -89 189 -91 135 -91 c 2
 108 -91 l 2
 88 -91 75 -79 75 -66 c 2
 75 -65 l 1
 87 104 92 265 92 407 c 0
 92 594 83 749 71 853 c 1
 71 858 l 2
 71 868 75 889 114 889 c 2
 118 889 l 2
 147 888 188 887 219 887 c 0
 238 887 254 887 262 888 c 2
 267 888 l 2
 286 888 300 878 300 864 c 2
 300 863 l 2
 299 847 280 834 258 832 c 0
 241 831 215 830 186 830 c 2
 153 830 l 1
 164 724 171 577 171 406 c 0
 171 272 167 124 156 -34 c 1
 203 -34 247 -31 266 -31 c 0
 285 -31 299 -42 299 -56 c 2
 299 -60 l 2
EndSplineSet
Validated: 1
EndChar

StartChar: backslash
Encoding: 92 92 64
Width: 480
VWidth: 0
GlyphClass: 2
Flags: MW
LayerCount: 3
Back
SplineSet
400 0 m 1
 274 264 171 524 80 800 c 1025
EndSplineSet
Fore
SplineSet
71 827 m 0
 76 828 80 829 85 829 c 0
 101 829 115 822 119 810 c 0
 210 535 312 276 438 13 c 0
 439 10 440 8 440 5 c 0
 440 -7 428 -20 412 -26 c 0
 406 -28 401 -29 395 -29 c 0
 381 -29 367 -23 362 -13 c 0
 236 252 132 513 41 790 c 0
 40 792 40 794 40 796 c 0
 40 809 53 822 71 827 c 0
EndSplineSet
Validated: 1
Layer: 2
SplineSet
71 827 m 0
 76 828 80 829 85 829 c 0
 101 829 115 822 119 810 c 0
 210 535 312 276 438 13 c 0
 439 10 440 8 440 5 c 0
 440 -7 428 -20 412 -26 c 0
 406 -28 401 -29 395 -29 c 0
 381 -29 367 -23 362 -13 c 0
 236 252 132 513 41 790 c 0
 40 792 40 794 40 796 c 0
 40 809 53 822 71 827 c 0
EndSplineSet
Validated: 1
EndChar

StartChar: bracketright
Encoding: 93 93 65
Width: 360
VWidth: 0
GlyphClass: 2
Flags: MW
LayerCount: 3
Back
SplineSet
100 858 m 1
 120 858 183 861 245 860 c 1
 217 467 228 124 250 -62 c 1
 201 -60 126 -60 100 -62 c 1025
EndSplineSet
Fore
SplineSet
61 858 m 2
 64 874 85 887 106 887 c 0
 121 887 171 889 225 889 c 2
 252 889 l 2
 272 889 285 877 285 864 c 2
 285 863 l 1
 273 694 268 533 268 391 c 0
 268 204 277 49 289 -55 c 1
 289 -60 l 2
 289 -70 285 -91 246 -91 c 2
 242 -91 l 2
 213 -90 172 -89 141 -89 c 0
 122 -89 106 -89 98 -90 c 2
 93 -90 l 2
 74 -90 60 -80 60 -66 c 2
 60 -65 l 2
 61 -49 80 -36 102 -34 c 0
 119 -33 145 -32 174 -32 c 2
 207 -32 l 1
 196 74 189 221 189 392 c 0
 189 526 193 674 204 832 c 1
 157 832 113 829 94 829 c 0
 75 829 61 840 61 854 c 2
 61 858 l 2
EndSplineSet
Validated: 1
Layer: 2
SplineSet
61 858 m 2
 64 874 85 887 106 887 c 0
 121 887 171 889 225 889 c 2
 252 889 l 2
 272 889 285 877 285 864 c 2
 285 863 l 1
 273 694 268 533 268 391 c 0
 268 204 277 49 289 -55 c 1
 289 -60 l 2
 289 -70 285 -91 246 -91 c 2
 242 -91 l 2
 213 -90 172 -89 141 -89 c 0
 122 -89 106 -89 98 -90 c 2
 93 -90 l 2
 74 -90 60 -80 60 -66 c 2
 60 -65 l 2
 61 -49 80 -36 102 -34 c 0
 119 -33 145 -32 174 -32 c 2
 207 -32 l 1
 196 74 189 221 189 392 c 0
 189 526 193 674 204 832 c 1
 157 832 113 829 94 829 c 0
 75 829 61 840 61 854 c 2
 61 858 l 2
EndSplineSet
Validated: 1
EndChar

StartChar: asciicircum
Encoding: 94 94 66
Width: 510
VWidth: 0
GlyphClass: 2
Flags: MW
LayerCount: 3
Back
SplineSet
255 815 m 5
 339 731 443 575 450 560 c 5
 435 569 335 700 258 775 c 5
 188 696 76 569 60 560 c 5
 67 575 183 722 255 815 c 5
EndSplineSet
Fore
SplineSet
288 834 m 0
 376 746 473 594 483 573 c 1
 483 573 475 531 447 531 c 0
 441 531 435 532 427 537 c 0
 399 554 326 649 256 724 c 1
 186 645 111 558 76 538 c 1
 76 538 59 532 44 532 c 0
 33 532 23 535 23 547 c 0
 23 552 25 558 28 565 c 0
 40 591 148 731 221 826 c 1
 221 826 235 849 257 849 c 0
 266 849 277 845 288 834 c 0
EndSplineSet
Validated: 1
Layer: 2
SplineSet
288 834 m 0
 376 746 473 594 483 573 c 1
 483 573 475 531 447 531 c 0
 441 531 435 532 427 537 c 0
 399 554 326 649 256 724 c 1
 186 645 111 558 76 538 c 1
 76 538 59 532 44 532 c 0
 33 532 23 535 23 547 c 0
 23 552 25 558 28 565 c 0
 40 591 148 731 221 826 c 1
 221 826 235 849 257 849 c 0
 266 849 277 845 288 834 c 0
EndSplineSet
Validated: 1
EndChar

StartChar: underscore
Encoding: 95 95 67
Width: 600
VWidth: 0
GlyphClass: 2
Flags: MW
LayerCount: 3
Back
SplineSet
520 -30 m 5
 381 -35 168 -33 80 -25 c 1029
EndSplineSet
Fore
SplineSet
32 -21 m 0
 39 -3 63 11 88 11 c 2
 93 11 l 1
 147 6 259 4 367 4 c 0
 423 4 479 4 525 6 c 2
 527 6 l 2
 551 6 569 -7 569 -24 c 2
 569 -28 l 2
 566 -47 542 -65 515 -66 c 0
 459 -68 393 -69 327 -69 c 0
 225 -69 124 -66 67 -61 c 0
 45 -59 30 -46 30 -30 c 0
 30 -27 31 -24 32 -21 c 0
EndSplineSet
Validated: 1
Layer: 2
SplineSet
32 -21 m 0
 39 -3 63 11 88 11 c 2
 93 11 l 1
 147 6 259 4 367 4 c 0
 423 4 479 4 525 6 c 2
 527 6 l 2
 551 6 569 -7 569 -24 c 2
 569 -28 l 2
 566 -47 542 -65 515 -66 c 0
 459 -68 393 -69 327 -69 c 0
 225 -69 124 -66 67 -61 c 0
 45 -59 30 -46 30 -30 c 0
 30 -27 31 -24 32 -21 c 0
EndSplineSet
Validated: 1
EndChar

StartChar: grave
Encoding: 96 96 68
Width: 360
VWidth: 0
GlyphClass: 2
Flags: MW
LayerCount: 3
Back
SplineSet
60 785 m 5
 86 815 l 5
 170 736 288 585 295 570 c 5
 278 580 142 720 60 785 c 5
EndSplineSet
Fore
SplineSet
27 798 m 2
 53 828 l 1
 53 828 68 848 89 848 c 0
 98 848 108 844 119 834 c 0
 207 751 312 606 323 583 c 1
 323 583 321 541 296 541 c 0
 291 541 285 542 277 547 c 0
 248 564 111 699 29 764 c 0
 23 769 20 776 20 782 c 0
 20 788 23 793 27 798 c 2
EndSplineSet
Validated: 1
Layer: 2
SplineSet
27 798 m 2
 53 828 l 1
 53 828 68 848 89 848 c 0
 98 848 108 844 119 834 c 0
 207 751 312 606 323 583 c 1
 323 583 321 541 296 541 c 0
 291 541 285 542 277 547 c 0
 248 564 111 699 29 764 c 0
 23 769 20 776 20 782 c 0
 20 788 23 793 27 798 c 2
EndSplineSet
Validated: 1
EndChar

StartChar: a
Encoding: 97 97 69
Width: 675
VWidth: 0
GlyphClass: 2
Flags: MW
LayerCount: 3
Back
SplineSet
610 25 m 5
 569 36 531 86 490 340 c 5
 482 204 444 15 290 15 c 4
 -2 15 85 585 379 585 c 4
 470 585 490 492 490 467 c 1029
EndSplineSet
Fore
SplineSet
535 360 m 1
 577 92 611 63 628 59 c 0
 645 55 654 43 654 30 c 0
 654 24 653 18 649 13 c 0
 639 -1 621 -11 602 -11 c 0
 597 -11 592 -10 587 -9 c 0
 542 4 513 43 486 150 c 1
 459 64 407 -21 278 -21 c 0
 112 -21 55 105 55 232 c 0
 55 262 58 292 64 320 c 0
 91 455 190 621 381 621 c 0
 521 621 534 496 534 472 c 0
 534 453 512 435 485 432 c 2
 478 432 l 2
 454 432 436 445 436 462 c 0
 436 488 409 549 367 549 c 0
 278 549 190 456 162 320 c 0
 157 294 154 268 154 244 c 0
 154 131 210 51 292 51 c 0
 351 51 399 111 422 226 c 0
 429 263 434 301 436 336 c 0
 437 350 449 372 468 372 c 0
 509 372 535 360 535 360 c 1
EndSplineSet
Validated: 1
Layer: 2
SplineSet
535 360 m 1
 577 92 611 63 628 59 c 0
 645 55 654 43 654 30 c 0
 654 24 653 18 649 13 c 0
 639 -1 621 -11 602 -11 c 0
 597 -11 592 -10 587 -9 c 0
 542 4 513 43 486 150 c 1
 459 64 407 -21 278 -21 c 0
 112 -21 55 105 55 232 c 0
 55 262 58 292 64 320 c 0
 91 455 190 621 381 621 c 0
 521 621 534 496 534 472 c 0
 534 453 512 435 485 432 c 2
 478 432 l 2
 454 432 436 445 436 462 c 0
 436 488 409 549 367 549 c 0
 278 549 190 456 162 320 c 0
 157 294 154 268 154 244 c 0
 154 131 210 51 292 51 c 0
 351 51 399 111 422 226 c 0
 429 263 434 301 436 336 c 0
 437 350 449 372 468 372 c 0
 509 372 535 360 535 360 c 1
EndSplineSet
Validated: 1
EndChar

StartChar: b
Encoding: 98 98 70
Width: 660
VWidth: 0
GlyphClass: 2
Flags: MW
LayerCount: 3
Back
SplineSet
260 560 m 1
 655 712 641 15 280 15 c 0
 209 15 140 68 140 130 c 0
 141 374 148 705 130 810 c 1025
EndSplineSet
Fore
SplineSet
209 542 m 0
 207 546 206 550 206 554 c 0
 206 568 218 583 237 591 c 0
 282 608 325 617 366 617 c 2
 368 617 l 2
 536 617 598 482 598 350 c 0
 598 321 595 292 589 264 c 0
 563 133 464 -21 268 -21 c 0
 167 -21 86 47 86 125 c 0
 86 232 88 356 88 470 c 0
 88 616 86 745 76 801 c 1
 76 805 l 2
 76 823 94 840 119 845 c 0
 123 846 127 846 131 846 c 0
 153 846 171 835 174 819 c 0
 184 761 187 642 187 507 c 0
 187 385 184 251 184 135 c 0
 184 89 241 51 282 51 c 0
 385 51 466 136 492 264 c 0
 497 289 499 313 499 336 c 0
 499 455 437 546 352 546 c 0
 331 546 305 541 273 529 c 0
 265 526 256 524 248 524 c 0
 231 524 216 531 209 542 c 0
EndSplineSet
Validated: 1
Layer: 2
SplineSet
209 542 m 0
 207 546 206 550 206 554 c 0
 206 568 218 583 237 591 c 0
 282 608 325 617 366 617 c 2
 368 617 l 2
 536 617 598 482 598 350 c 0
 598 321 595 292 589 264 c 0
 563 133 464 -21 268 -21 c 0
 167 -21 86 47 86 125 c 0
 86 232 88 356 88 470 c 0
 88 616 86 745 76 801 c 1
 76 805 l 2
 76 823 94 840 119 845 c 0
 123 846 127 846 131 846 c 0
 153 846 171 835 174 819 c 0
 184 761 187 642 187 507 c 0
 187 385 184 251 184 135 c 0
 184 89 241 51 282 51 c 0
 385 51 466 136 492 264 c 0
 497 289 499 313 499 336 c 0
 499 455 437 546 352 546 c 0
 331 546 305 541 273 529 c 0
 265 526 256 524 248 524 c 0
 231 524 216 531 209 542 c 0
EndSplineSet
Validated: 1
EndChar

StartChar: c
Encoding: 99 99 71
Width: 590
VWidth: 0
GlyphClass: 2
Flags: MW
LayerCount: 3
Back
SplineSet
510 105 m 5
 428 -29 110 -44 110 295 c 4
 110 649 485 644 485 470 c 1029
EndSplineSet
Fore
SplineSet
527 141 m 0
 546 137 557 124 557 110 c 0
 557 105 555 99 552 94 c 0
 514 32 436 -11 352 -20 c 0
 341 -21 329 -22 318 -22 c 0
 174 -22 53 80 53 290 c 0
 53 490 173 607 317 622 c 0
 327 623 337 624 346 624 c 0
 449 624 532 565 532 475 c 0
 532 455 508 436 480 433 c 2
 473 433 l 2
 448 433 428 447 428 465 c 0
 428 520 381 548 332 548 c 0
 327 548 322 548 317 547 c 0
 259 541 157 485 157 300 c 0
 157 105 262 54 335 54 c 0
 341 54 347 54 352 55 c 0
 396 60 437 82 458 116 c 0
 468 132 490 143 512 143 c 0
 517 143 522 142 527 141 c 0
EndSplineSet
Validated: 1
Layer: 2
SplineSet
527 141 m 0
 546 137 557 124 557 110 c 0
 557 105 555 99 552 94 c 0
 514 32 436 -11 352 -20 c 0
 341 -21 329 -22 318 -22 c 0
 174 -22 53 80 53 290 c 0
 53 490 173 607 317 622 c 0
 327 623 337 624 346 624 c 0
 449 624 532 565 532 475 c 0
 532 455 508 436 480 433 c 2
 473 433 l 2
 448 433 428 447 428 465 c 0
 428 520 381 548 332 548 c 0
 327 548 322 548 317 547 c 0
 259 541 157 485 157 300 c 0
 157 105 262 54 335 54 c 0
 341 54 347 54 352 55 c 0
 396 60 437 82 458 116 c 0
 468 132 490 143 512 143 c 0
 517 143 522 142 527 141 c 0
EndSplineSet
Validated: 1
EndChar

StartChar: d
Encoding: 100 100 72
Width: 710
VWidth: 0
GlyphClass: 2
Flags: MW
LayerCount: 3
Back
SplineSet
640 15 m 1
 575 29 529 145 525 330 c 0
 522 453 534 678 525 840 c 1025
525 300 m 1
 506 186 450 15 320 15 c 0
 28 15 39 580 360 580 c 0
 515 580 520 403 522 380 c 2
 525 300 l 1
EndSplineSet
Fore
SplineSet
518 875 m 0
 521 875 525 876 528 876 c 0
 551 876 568 864 569 847 c 0
 572 800 572 751 572 702 c 0
 572 598 569 463 569 381 c 2
 569 336 l 2
 571 257 581 192 595 144 c 0
 615 77 647 51 655 49 c 0
 673 45 684 34 684 20 c 0
 684 15 683 10 680 5 c 0
 671 -10 650 -21 629 -21 c 0
 624 -21 619 -20 615 -19 c 0
 559 -5 529 51 509 120 c 0
 508 123 508 125 507 128 c 1
 475 60 422 -21 308 -21 c 0
 123 -21 56 139 56 275 c 0
 56 302 59 330 64 357 c 0
 88 478 178 616 362 616 c 0
 410 616 447 604 474 586 c 1
 474 692 l 2
 474 741 474 788 471 833 c 2
 471 834 l 2
 471 853 492 871 518 875 c 0
471 422 m 1
 460 474 431 544 348 544 c 0
 256 544 184 474 161 357 c 0
 156 334 154 309 154 285 c 0
 154 151 227 51 322 51 c 0
 355 51 398 79 432 151 c 0
 452 193 465 242 473 285 c 0
 472 298 471 310 471 324 c 2
 471 371 l 1
 471 422 l 1
EndSplineSet
Validated: 1
Layer: 2
SplineSet
518 875 m 0
 521 875 525 876 528 876 c 0
 551 876 568 864 569 847 c 0
 572 800 572 751 572 702 c 0
 572 598 569 463 569 381 c 2
 569 336 l 2
 571 257 581 192 595 144 c 0
 615 77 647 51 655 49 c 0
 673 45 684 34 684 20 c 0
 684 15 683 10 680 5 c 0
 671 -10 650 -21 629 -21 c 0
 624 -21 619 -20 615 -19 c 0
 559 -5 529 51 509 120 c 0
 508 123 508 125 507 128 c 1
 475 60 422 -21 308 -21 c 0
 123 -21 56 139 56 275 c 0
 56 302 59 330 64 357 c 0
 88 478 178 616 362 616 c 0
 410 616 447 604 474 586 c 1
 474 692 l 2
 474 741 474 788 471 833 c 2
 471 834 l 2
 471 853 492 871 518 875 c 0
471 422 m 1
 460 474 431 544 348 544 c 0
 256 544 184 474 161 357 c 0
 156 334 154 309 154 285 c 0
 154 151 227 51 322 51 c 0
 355 51 398 79 432 151 c 0
 452 193 465 242 473 285 c 0
 472 298 471 310 471 324 c 2
 471 371 l 1
 471 422 l 1
EndSplineSet
Validated: 1
EndChar

StartChar: e
Encoding: 101 101 73
Width: 620
VWidth: 0
GlyphClass: 2
Flags: MW
LayerCount: 3
Back
SplineSet
530 105 m 5
 438 -29 130 -44 120 295 c 4
 110 642 520 663 520 450 c 4
 520 287 317 270 95 260 c 1029
EndSplineSet
Fore
SplineSet
172 229 m 1
 193 120 253 73 307 58 c 0
 321 54 336 52 350 52 c 0
 403 52 454 77 481 117 c 0
 491 131 512 141 532 141 c 0
 537 141 543 140 548 139 c 0
 565 134 575 123 575 110 c 0
 575 105 573 98 569 93 c 0
 522 26 429 -20 334 -20 c 0
 309 -20 284 -17 260 -10 c 0
 164 16 92 92 71 225 c 1
 52 229 40 239 40 253 c 2
 40 256 l 2
 41 268 52 281 66 288 c 1
 66 302 l 2
 66 489 187 603 332 621 c 0
 344 622 356 623 367 623 c 0
 477 623 564 558 564 455 c 0
 564 304 403 252 244 235 c 2
 172 229 l 1
164 299 m 1
 192 301 219 303 244 306 c 0
 392 322 466 349 466 445 c 0
 466 520 408 552 351 552 c 0
 345 552 340 552 334 551 c 0
 267 543 164 482 164 313 c 2
 164 301 l 1
 164 299 l 1
EndSplineSet
Validated: 1
Layer: 2
SplineSet
172 229 m 1
 193 120 253 73 307 58 c 0
 321 54 336 52 350 52 c 0
 403 52 454 77 481 117 c 0
 491 131 512 141 532 141 c 0
 537 141 543 140 548 139 c 0
 565 134 575 123 575 110 c 0
 575 105 573 98 569 93 c 0
 522 26 429 -20 334 -20 c 0
 309 -20 284 -17 260 -10 c 0
 164 16 92 92 71 225 c 1
 52 229 40 239 40 253 c 2
 40 256 l 2
 41 268 52 281 66 288 c 1
 66 302 l 2
 66 489 187 603 332 621 c 0
 344 622 356 623 367 623 c 0
 477 623 564 558 564 455 c 0
 564 304 403 252 244 235 c 2
 172 229 l 1
164 299 m 1
 192 301 219 303 244 306 c 0
 392 322 466 349 466 445 c 0
 466 520 408 552 351 552 c 0
 345 552 340 552 334 551 c 0
 267 543 164 482 164 313 c 2
 164 301 l 1
 164 299 l 1
EndSplineSet
Validated: 1
EndChar

StartChar: f
Encoding: 102 102 74
Width: 460
VWidth: 0
GlyphClass: 2
Flags: MW
LayerCount: 3
Back
SplineSet
360 560 m 5
 215 555 162 557 70 565 c 1029
215 15 m 5
 219 315 202 513 180 705 c 4
 167 815 300 890 430 795 c 1029
EndSplineSet
Fore
SplineSet
215 -20 m 2
 208 -20 l 2
 184 -20 166 -7 166 10 c 0
 166 40 167 68 167 96 c 0
 167 265 160 400 149 523 c 1
 119 524 90 526 57 529 c 0
 35 531 20 544 20 560 c 0
 20 563 21 566 22 569 c 0
 29 587 53 601 78 601 c 2
 83 601 l 2
 105 599 129 597 147 596 c 1
 142 630 137 664 133 697 c 0
 132 703 132 709 132 715 c 0
 132 762 151 806 195 837 c 0
 229 862 271 874 314 874 c 0
 366 874 421 856 468 822 c 0
 476 816 479 809 479 801 c 0
 479 791 473 780 462 772 c 0
 451 764 436 759 422 759 c 0
 411 759 400 762 392 768 c 0
 356 795 326 803 303 803 c 0
 283 803 268 797 259 790 c 0
 243 778 228 755 228 724 c 0
 228 720 229 717 229 713 c 0
 231 674 234 634 237 593 c 1
 270 593 313 594 365 596 c 2
 367 596 l 2
 391 596 409 583 409 566 c 2
 409 562 l 2
 406 543 382 525 355 524 c 0
 313 522 278 521 248 521 c 1
 258 401 265 269 265 106 c 0
 265 78 264 50 264 20 c 0
 264 1 242 -17 215 -20 c 2
EndSplineSet
Validated: 1
Layer: 2
SplineSet
215 -20 m 2
 208 -20 l 2
 184 -20 166 -7 166 10 c 0
 166 40 167 68 167 96 c 0
 167 265 160 400 149 523 c 1
 119 524 90 526 57 529 c 0
 35 531 20 544 20 560 c 0
 20 563 21 566 22 569 c 0
 29 587 53 601 78 601 c 2
 83 601 l 2
 105 599 129 597 147 596 c 1
 142 630 137 664 133 697 c 0
 132 703 132 709 132 715 c 0
 132 762 151 806 195 837 c 0
 229 862 271 874 314 874 c 0
 366 874 421 856 468 822 c 0
 476 816 479 809 479 801 c 0
 479 791 473 780 462 772 c 0
 451 764 436 759 422 759 c 0
 411 759 400 762 392 768 c 0
 356 795 326 803 303 803 c 0
 283 803 268 797 259 790 c 0
 243 778 228 755 228 724 c 0
 228 720 229 717 229 713 c 0
 231 674 234 634 237 593 c 1
 270 593 313 594 365 596 c 2
 367 596 l 2
 391 596 409 583 409 566 c 2
 409 562 l 2
 406 543 382 525 355 524 c 0
 313 522 278 521 248 521 c 1
 258 401 265 269 265 106 c 0
 265 78 264 50 264 20 c 0
 264 1 242 -17 215 -20 c 2
EndSplineSet
Validated: 1
EndChar

StartChar: g
Encoding: 103 103 75
Width: 640
VWidth: 0
GlyphClass: 2
Flags: MW
LayerCount: 3
Back
SplineSet
490 340 m 5
 576 8 535 -230 340 -230 c 4
 283 -230 227 -208 200 -170 c 1029
490 340 m 5
 482 204 444 15 290 15 c 4
 -2 15 85 585 379 585 c 4
 470 585 490 492 490 467 c 1030
EndSplineSet
Fore
SplineSet
534 356 m 1
 562 247 577 143 577 57 c 0
 577 16 574 -22 567 -57 c 0
 545 -169 472 -266 328 -266 c 0
 255 -266 184 -238 150 -190 c 0
 147 -186 145 -181 145 -176 c 0
 145 -163 156 -148 174 -140 c 0
 183 -136 192 -134 201 -134 c 0
 217 -134 232 -140 240 -150 c 0
 260 -178 301 -194 342 -194 c 0
 404 -194 454 -163 475 -57 c 0
 483 -18 488 27 488 78 c 0
 488 106 487 135 483 166 c 1
 455 75 402 -21 278 -21 c 0
 112 -21 55 105 55 232 c 0
 55 262 58 292 64 320 c 0
 91 455 190 621 381 621 c 0
 521 621 534 496 534 472 c 0
 534 453 512 435 485 432 c 2
 478 432 l 2
 454 432 436 445 436 462 c 0
 436 488 409 549 367 549 c 0
 278 549 190 456 162 320 c 0
 157 294 154 268 154 244 c 0
 154 131 210 51 292 51 c 0
 351 51 399 111 422 226 c 0
 429 263 434 301 436 336 c 0
 437 355 447 376 472 376 c 0
 496 376 534 356 534 356 c 1
EndSplineSet
Validated: 1
Layer: 2
SplineSet
534 356 m 1
 562 247 577 143 577 57 c 0
 577 16 574 -22 567 -57 c 0
 545 -169 472 -266 328 -266 c 0
 255 -266 184 -238 150 -190 c 0
 147 -186 145 -181 145 -176 c 0
 145 -163 156 -148 174 -140 c 0
 183 -136 192 -134 201 -134 c 0
 217 -134 232 -140 240 -150 c 0
 260 -178 301 -194 342 -194 c 0
 404 -194 454 -163 475 -57 c 0
 483 -18 488 27 488 78 c 0
 488 106 487 135 483 166 c 1
 455 75 402 -21 278 -21 c 0
 112 -21 55 105 55 232 c 0
 55 262 58 292 64 320 c 0
 91 455 190 621 381 621 c 0
 521 621 534 496 534 472 c 0
 534 453 512 435 485 432 c 2
 478 432 l 2
 454 432 436 445 436 462 c 0
 436 488 409 549 367 549 c 0
 278 549 190 456 162 320 c 0
 157 294 154 268 154 244 c 0
 154 131 210 51 292 51 c 0
 351 51 399 111 422 226 c 0
 429 263 434 301 436 336 c 0
 437 355 447 376 472 376 c 0
 496 376 534 356 534 356 c 1
EndSplineSet
Validated: 1
EndChar

StartChar: h
Encoding: 104 104 76
Width: 660
VWidth: 0
GlyphClass: 2
Flags: MW
LayerCount: 3
Back
SplineSet
155 20 m 1
 166 103 167 153 205 325 c 0
 233 451 282 585 425 585 c 0
 512 585 540 505 540 365 c 0
 540 239 543 130 545 25 c 1025
115 825 m 5
 140 761 154 312 155 20 c 1025
EndSplineSet
Fore
SplineSet
128 -14 m 0
 113 -14 101 1 101 15 c 0
 100 304 82 760 62 811 c 0
 61 814 60 817 60 820 c 0
 60 836 75 851 97 858 c 0
 103 860 111 861 117 861 c 0
 136 861 153 853 158 839 c 0
 176 794 186 613 192 425 c 1
 225 523 287 621 427 621 c 0
 565 621 584 503 584 370 c 0
 584 244 587 136 589 31 c 0
 589 12 568 -7 541 -10 c 2
 533 -10 l 2
 509 -10 491 2 491 19 c 0
 489 124 486 234 486 360 c 0
 486 507 449 549 413 549 c 0
 328 549 274 461 244 324 c 0
 206 153 207 106 199 12 c 1
 199 12 159 -14 128 -14 c 0
EndSplineSet
Validated: 1
Layer: 2
SplineSet
128 -14 m 0
 113 -14 101 1 101 15 c 0
 100 304 82 760 62 811 c 0
 61 814 60 817 60 820 c 0
 60 836 75 851 97 858 c 0
 103 860 111 861 117 861 c 0
 136 861 153 853 158 839 c 0
 176 794 186 613 192 425 c 1
 225 523 287 621 427 621 c 0
 565 621 584 503 584 370 c 0
 584 244 587 136 589 31 c 0
 589 12 568 -7 541 -10 c 2
 533 -10 l 2
 509 -10 491 2 491 19 c 0
 489 124 486 234 486 360 c 0
 486 507 449 549 413 549 c 0
 328 549 274 461 244 324 c 0
 206 153 207 106 199 12 c 1
 199 12 159 -14 128 -14 c 0
EndSplineSet
Validated: 1
EndChar

StartChar: i
Encoding: 105 105 77
Width: 330
VWidth: 0
GlyphClass: 2
Flags: MW
LayerCount: 3
Back
SplineSet
195 15 m 1
 163 37 163 87 165 163 c 0
 169 328 167 405 165 570 c 1025
EndSplineSet
Fore
SplineSet
231 842 m 0
 233 840 249 825 249 801 c 0
 249 797 249 792 248 788 c 0
 243 762 210 725 155 725 c 0
 105 725 81 756 81 786 c 0
 81 809 103 862 175 862 c 0
 181 862 187 861 191 860 c 2
 207 856 l 2
 217 853 226 848 231 842 c 0
223 -8 m 0
 212 -16 196 -21 182 -21 c 0
 171 -21 161 -18 153 -13 c 0
 116 13 109 51 109 98 c 0
 109 117 110 137 111 158 c 0
 113 227 113 282 113 333 c 0
 113 403 112 469 111 564 c 0
 111 583 133 602 160 605 c 2
 168 605 l 2
 191 605 209 593 209 576 c 0
 210 481 211 415 211 344 c 0
 211 292 211 238 209 168 c 2
 209 145 l 2
 209 82 216 50 227 43 c 0
 235 37 239 30 239 21 c 0
 239 11 234 0 223 -8 c 0
EndSplineSet
Validated: 1
Layer: 2
SplineSet
231 842 m 0
 233 840 249 825 249 801 c 0
 249 797 249 792 248 788 c 0
 243 762 210 725 155 725 c 0
 105 725 81 756 81 786 c 0
 81 809 103 862 175 862 c 0
 181 862 187 861 191 860 c 2
 207 856 l 2
 217 853 226 848 231 842 c 0
223 -8 m 0
 212 -16 196 -21 182 -21 c 0
 171 -21 161 -18 153 -13 c 0
 116 13 109 51 109 98 c 0
 109 117 110 137 111 158 c 0
 113 227 113 282 113 333 c 0
 113 403 112 469 111 564 c 0
 111 583 133 602 160 605 c 2
 168 605 l 2
 191 605 209 593 209 576 c 0
 210 481 211 415 211 344 c 0
 211 292 211 238 209 168 c 2
 209 145 l 2
 209 82 216 50 227 43 c 0
 235 37 239 30 239 21 c 0
 239 11 234 0 223 -8 c 0
EndSplineSet
Validated: 1
EndChar

StartChar: j
Encoding: 106 106 78
Width: 330
VWidth: 0
GlyphClass: 2
Flags: HMW
LayerCount: 3
Back
SplineSet
175 570 m 5
 186 446 195 260 195 10 c 0
 195 -127 153 -182 80 -210 c 1025
EndSplineSet
Fore
SplineSet
231 842 m 0
 233 840 249 825 249 801 c 0
 249 797 249 792 248 788 c 0
 243 762 210 725 155 725 c 0
 105 725 81 756 81 786 c 0
 81 809 103 862 175 862 c 0
 181 862 187 861 191 860 c 2
 207 856 l 2
 217 853 226 848 231 842 c 0
EndSplineSet
Refer: 398 567 S 1 0 0 1 0 0 2
Validated: 1
Layer: 2
SplineSet
231 842 m 0
 233 840 249 825 249 801 c 0
 249 797 249 792 248 788 c 0
 243 762 210 725 155 725 c 0
 105 725 81 756 81 786 c 0
 81 809 103 862 175 862 c 0
 181 862 187 861 191 860 c 2
 207 856 l 2
 217 853 226 848 231 842 c 0
EndSplineSet
Refer: 398 567 S 1 0 0 1 0 0 2
Validated: 1
EndChar

StartChar: k
Encoding: 107 107 79
Width: 610
VWidth: 0
GlyphClass: 2
Flags: MW
LayerCount: 3
Back
SplineSet
540 25 m 5
 513 58 315 282 130 340 c 5
 277 413 434 512 500 570 c 1029
125 810 m 5
 150 746 159 312 160 20 c 1029
EndSplineSet
Fore
SplineSet
107 843 m 0
 113 845 121 846 127 846 c 0
 146 846 163 838 168 824 c 0
 186 778 194 607 199 414 c 1
 313 477 413 549 459 590 c 0
 470 600 488 606 504 606 c 0
 513 606 522 604 529 600 c 0
 539 594 544 585 544 576 c 0
 544 567 540 558 531 550 c 0
 468 495 343 417 212 347 c 1
 389 261 553 78 579 46 c 0
 583 41 585 35 585 30 c 0
 585 17 575 4 558 -4 c 0
 549 -9 538 -11 528 -11 c 0
 513 -11 499 -6 491 4 c 0
 470 29 342 180 202 265 c 1
 203 182 204 99 204 25 c 0
 204 6 182 -12 155 -15 c 2
 148 -15 l 2
 124 -15 106 -2 106 15 c 0
 106 105 104 208 102 311 c 0
 101 311 101 312 100 312 c 2
 100 312 64 318 64 333 c 0
 64 341 73 351 100 364 c 1
 94 573 85 764 72 796 c 0
 71 799 70 802 70 805 c 0
 70 821 85 836 107 843 c 0
EndSplineSet
Validated: 1
Layer: 2
SplineSet
107 843 m 0
 113 845 121 846 127 846 c 0
 146 846 163 838 168 824 c 0
 186 778 194 607 199 414 c 1
 313 477 413 549 459 590 c 0
 470 600 488 606 504 606 c 0
 513 606 522 604 529 600 c 0
 539 594 544 585 544 576 c 0
 544 567 540 558 531 550 c 0
 468 495 343 417 212 347 c 1
 389 261 553 78 579 46 c 0
 583 41 585 35 585 30 c 0
 585 17 575 4 558 -4 c 0
 549 -9 538 -11 528 -11 c 0
 513 -11 499 -6 491 4 c 0
 470 29 342 180 202 265 c 1
 203 182 204 99 204 25 c 0
 204 6 182 -12 155 -15 c 2
 148 -15 l 2
 124 -15 106 -2 106 15 c 0
 106 105 104 208 102 311 c 0
 101 311 101 312 100 312 c 2
 100 312 64 318 64 333 c 0
 64 341 73 351 100 364 c 1
 94 573 85 764 72 796 c 0
 71 799 70 802 70 805 c 0
 70 821 85 836 107 843 c 0
EndSplineSet
Validated: 1
EndChar

StartChar: l
Encoding: 108 108 80
Width: 340
VWidth: 0
GlyphClass: 2
Flags: MW
LayerCount: 3
Back
SplineSet
275 13 m 5
 228 24 164 51 160 151 c 4
 150 401 156 554 160 805 c 1029
EndSplineSet
Fore
SplineSet
315 3 m 0
 305 -12 284 -23 263 -23 c 0
 258 -23 253 -22 249 -21 c 0
 190 -7 111 32 106 145 c 0
 102 246 101 333 101 415 c 0
 101 536 104 651 106 800 c 0
 106 819 128 837 155 840 c 2
 162 840 l 2
 186 840 204 827 204 810 c 0
 202 661 199 546 199 425 c 0
 199 343 200 258 204 157 c 0
 207 70 256 55 291 47 c 0
 309 43 320 31 320 18 c 0
 320 13 318 8 315 3 c 0
EndSplineSet
Validated: 1
Layer: 2
SplineSet
315 3 m 0
 305 -12 284 -23 263 -23 c 0
 258 -23 253 -22 249 -21 c 0
 190 -7 111 32 106 145 c 0
 102 246 101 333 101 415 c 0
 101 536 104 651 106 800 c 0
 106 819 128 837 155 840 c 2
 162 840 l 2
 186 840 204 827 204 810 c 0
 202 661 199 546 199 425 c 0
 199 343 200 258 204 157 c 0
 207 70 256 55 291 47 c 0
 309 43 320 31 320 18 c 0
 320 13 318 8 315 3 c 0
EndSplineSet
Validated: 1
EndChar

StartChar: m
Encoding: 109 109 81
Width: 945
VWidth: 0
GlyphClass: 2
Flags: MW
LayerCount: 3
Back
SplineSet
825 25 m 1
 825 130 830 222 830 295 c 0
 830 495 794 585 700 585 c 0
 597 585 544 494 525 365 c 0
 499 192 496 107 485 24 c 1
 485 132 490 222 490 295 c 0
 490 495 454 585 360 585 c 0
 257 585 204 494 185 365 c 0
 159 192 156 98 145 15 c 1
 144 155 137 471 125 580 c 1025
EndSplineSet
Fore
SplineSet
453 -10 m 0
 438 -10 426 5 426 19 c 0
 426 128 431 218 431 290 c 0
 431 509 394 549 343 549 c 0
 290 549 234 501 214 366 c 0
 188 194 190 101 184 7 c 1
 184 7 149 -19 113 -19 c 0
 98 -19 86 -4 86 10 c 0
 85 149 78 466 66 572 c 1
 66 575 l 2
 66 593 85 611 111 615 c 0
 115 616 118 616 121 616 c 0
 143 616 157 605 159 588 c 0
 162 558 165 513 167 461 c 1
 195 547 248 621 357 621 c 0
 450 621 492 566 511 474 c 1
 540 555 593 621 697 621 c 0
 844 621 869 491 869 300 c 0
 869 226 864 134 864 30 c 0
 864 11 842 -7 815 -10 c 2
 808 -10 l 2
 784 -10 766 3 766 20 c 0
 766 126 771 218 771 290 c 0
 771 509 734 549 683 549 c 0
 630 549 574 501 554 366 c 0
 528 194 530 111 524 16 c 1
 524 16 489 -10 453 -10 c 0
EndSplineSet
Validated: 1
Layer: 2
SplineSet
453 -10 m 0
 438 -10 426 5 426 19 c 0
 426 128 431 218 431 290 c 0
 431 509 394 549 343 549 c 0
 290 549 234 501 214 366 c 0
 188 194 190 101 184 7 c 1
 184 7 149 -19 113 -19 c 0
 98 -19 86 -4 86 10 c 0
 85 149 78 466 66 572 c 1
 66 575 l 2
 66 593 85 611 111 615 c 0
 115 616 118 616 121 616 c 0
 143 616 157 605 159 588 c 0
 162 558 165 513 167 461 c 1
 195 547 248 621 357 621 c 0
 450 621 492 566 511 474 c 1
 540 555 593 621 697 621 c 0
 844 621 869 491 869 300 c 0
 869 226 864 134 864 30 c 0
 864 11 842 -7 815 -10 c 2
 808 -10 l 2
 784 -10 766 3 766 20 c 0
 766 126 771 218 771 290 c 0
 771 509 734 549 683 549 c 0
 630 549 574 501 554 366 c 0
 528 194 530 111 524 16 c 1
 524 16 489 -10 453 -10 c 0
EndSplineSet
Validated: 1
EndChar

StartChar: n
Encoding: 110 110 82
Width: 655
VWidth: 0
GlyphClass: 2
Flags: MW
LayerCount: 3
Back
SplineSet
145 20 m 5
 156 103 157 153 195 325 c 4
 223 451 272 585 415 585 c 4
 502 585 530 505 530 365 c 4
 530 239 533 130 535 25 c 1029
105 580 m 5
 130 516 144 312 145 20 c 1029
EndSplineSet
Fore
SplineSet
125 -15 m 0
 106 -15 91 -1 91 15 c 0
 90 305 73 511 52 566 c 0
 51 569 50 572 50 575 c 0
 50 591 65 606 87 613 c 0
 93 615 101 616 107 616 c 0
 126 616 143 608 148 594 c 0
 162 558 171 492 178 399 c 1
 208 505 265 621 417 621 c 0
 555 621 574 503 574 370 c 0
 574 244 577 136 579 31 c 0
 579 12 558 -7 531 -10 c 2
 523 -10 l 2
 499 -10 481 2 481 19 c 0
 479 124 476 234 476 360 c 0
 476 507 439 549 403 549 c 0
 318 549 269 461 239 324 c 0
 201 153 197 106 189 10 c 1
 189 10 156 -15 125 -15 c 0
EndSplineSet
Validated: 1
Layer: 2
SplineSet
125 -15 m 0
 106 -15 91 -1 91 15 c 0
 90 305 73 511 52 566 c 0
 51 569 50 572 50 575 c 0
 50 591 65 606 87 613 c 0
 93 615 101 616 107 616 c 0
 126 616 143 608 148 594 c 0
 162 558 171 492 178 399 c 1
 208 505 265 621 417 621 c 0
 555 621 574 503 574 370 c 0
 574 244 577 136 579 31 c 0
 579 12 558 -7 531 -10 c 2
 523 -10 l 2
 499 -10 481 2 481 19 c 0
 479 124 476 234 476 360 c 0
 476 507 439 549 403 549 c 0
 318 549 269 461 239 324 c 0
 201 153 197 106 189 10 c 1
 189 10 156 -15 125 -15 c 0
EndSplineSet
Validated: 1
EndChar

StartChar: o
Encoding: 111 111 83
Width: 650
VWidth: 0
GlyphClass: 2
Flags: MW
LayerCount: 3
Back
SplineSet
490 449 m 5
 529 439 555 357 555 290 c 4
 555 -78 110 -76 110 295 c 4
 110 637 450 652 505 480 c 1029
EndSplineSet
Fore
SplineSet
451 471 m 1
 431 527 378 552 329 552 c 0
 316 552 304 550 292 547 c 0
 235 531 154 464 154 300 c 0
 154 118 264 51 338 51 c 0
 342 51 346 52 350 52 c 0
 409 58 501 119 501 285 c 0
 501 341 475 406 461 416 c 1
 446 421 436 431 436 444 c 0
 436 449 437 455 441 460 c 0
 443 464 447 468 451 471 c 1
541 465 m 1
 583 428 599 356 599 295 c 0
 599 119 498 -3 351 -19 c 0
 341 -20 330 -21 320 -21 c 0
 171 -21 56 99 56 290 c 0
 56 468 145 580 272 614 c 0
 297 621 321 624 345 624 c 0
 441 624 523 572 548 493 c 0
 549 491 549 488 549 486 c 0
 549 479 546 472 541 465 c 1
EndSplineSet
Validated: 1
Layer: 2
SplineSet
451 471 m 1
 431 527 378 552 329 552 c 0
 316 552 304 550 292 547 c 0
 235 531 154 464 154 300 c 0
 154 118 264 51 338 51 c 0
 342 51 346 52 350 52 c 0
 409 58 501 119 501 285 c 0
 501 341 475 406 461 416 c 1
 446 421 436 431 436 444 c 0
 436 449 437 455 441 460 c 0
 443 464 447 468 451 471 c 1
541 465 m 1
 583 428 599 356 599 295 c 0
 599 119 498 -3 351 -19 c 0
 341 -20 330 -21 320 -21 c 0
 171 -21 56 99 56 290 c 0
 56 468 145 580 272 614 c 0
 297 621 321 624 345 624 c 0
 441 624 523 572 548 493 c 0
 549 491 549 488 549 486 c 0
 549 479 546 472 541 465 c 1
EndSplineSet
Validated: 1
EndChar

StartChar: p
Encoding: 112 112 84
Width: 675
VWidth: 0
GlyphClass: 2
Flags: MW
LayerCount: 3
Back
SplineSet
80 585 m 5
 121 530 141 408 145 270 c 4
 149 147 148 -103 140 -210 c 1029
145 300 m 5
 164 414 200 585 350 585 c 4
 642 585 631 20 330 20 c 4
 175 20 150 197 148 220 c 6
 145 300 l 5
EndSplineSet
Fore
SplineSet
142 -246 m 2
 137 -246 l 2
 113 -246 96 -231 96 -214 c 2
 96 -213 l 1
 101 -147 103 -24 103 89 c 0
 103 156 102 219 101 264 c 0
 97 400 74 520 41 565 c 0
 38 570 36 575 36 580 c 0
 36 593 46 606 63 614 c 0
 72 618 82 620 91 620 c 0
 105 620 117 615 124 605 c 0
 144 574 158 530 167 476 c 1
 196 552 250 621 362 621 c 0
 547 621 617 465 617 320 c 0
 617 291 614 262 609 235 c 0
 585 118 501 -16 328 -16 c 0
 271 -16 229 4 198 33 c 1
 198 -32 l 2
 198 -101 197 -165 194 -207 c 0
 193 -226 169 -244 142 -246 c 2
197 174 m 1
 215 116 260 56 342 56 c 0
 421 56 488 121 511 235 c 0
 516 259 518 283 518 307 c 0
 518 438 447 549 348 549 c 0
 272 549 227 468 203 348 c 0
 200 332 197 316 194 301 c 2
 197 174 l 1
EndSplineSet
Validated: 1
Layer: 2
SplineSet
142 -246 m 2
 137 -246 l 2
 113 -246 96 -231 96 -214 c 2
 96 -213 l 1
 101 -147 103 -24 103 89 c 0
 103 156 102 219 101 264 c 0
 97 400 74 520 41 565 c 0
 38 570 36 575 36 580 c 0
 36 593 46 606 63 614 c 0
 72 618 82 620 91 620 c 0
 105 620 117 615 124 605 c 0
 144 574 158 530 167 476 c 1
 196 552 250 621 362 621 c 0
 547 621 617 465 617 320 c 0
 617 291 614 262 609 235 c 0
 585 118 501 -16 328 -16 c 0
 271 -16 229 4 198 33 c 1
 198 -32 l 2
 198 -101 197 -165 194 -207 c 0
 193 -226 169 -244 142 -246 c 2
197 174 m 1
 215 116 260 56 342 56 c 0
 421 56 488 121 511 235 c 0
 516 259 518 283 518 307 c 0
 518 438 447 549 348 549 c 0
 272 549 227 468 203 348 c 0
 200 332 197 316 194 301 c 2
 197 174 l 1
EndSplineSet
Validated: 1
EndChar

StartChar: q
Encoding: 113 113 85
Width: 660
VWidth: 0
GlyphClass: 2
Flags: MW
LayerCount: 3
Back
SplineSet
610 -210 m 1
 515 -269 508 -154 508 12 c 0
 508 147 520 318 520 470 c 0
 520 532 451 585 380 585 c 0
 19 585 10 -112 405 40 c 1025
EndSplineSet
Fore
SplineSet
446 58 m 0
 448 54 449 50 449 46 c 0
 449 32 437 17 418 9 c 0
 373 -8 329 -17 288 -17 c 0
 117 -17 54 119 54 253 c 0
 54 282 57 312 63 339 c 0
 89 469 187 621 382 621 c 0
 483 621 564 553 564 475 c 0
 564 322 552 151 552 17 c 0
 552 -81 553 -161 573 -186 c 1
 574 -185 575 -185 576 -184 c 0
 587 -177 599 -174 611 -174 c 0
 624 -174 637 -178 645 -185 c 0
 651 -191 654 -198 654 -205 c 0
 654 -216 647 -228 634 -236 c 0
 613 -249 585 -261 555 -261 c 0
 550 -261 545 -261 540 -260 c 0
 521 -257 505 -251 497 -241 c 0
 459 -197 454 -104 454 7 c 0
 454 143 466 314 466 465 c 0
 466 511 409 549 368 549 c 0
 266 549 186 465 161 339 c 0
 156 314 154 289 154 266 c 0
 154 146 216 54 302 54 c 0
 323 54 350 59 382 71 c 0
 390 74 399 76 407 76 c 0
 424 76 439 69 446 58 c 0
EndSplineSet
Validated: 1
Layer: 2
SplineSet
446 58 m 0
 448 54 449 50 449 46 c 0
 449 32 437 17 418 9 c 0
 373 -8 329 -17 288 -17 c 0
 117 -17 54 119 54 253 c 0
 54 282 57 312 63 339 c 0
 89 469 187 621 382 621 c 0
 483 621 564 553 564 475 c 0
 564 322 552 151 552 17 c 0
 552 -81 553 -161 573 -186 c 1
 574 -185 575 -185 576 -184 c 0
 587 -177 599 -174 611 -174 c 0
 624 -174 637 -178 645 -185 c 0
 651 -191 654 -198 654 -205 c 0
 654 -216 647 -228 634 -236 c 0
 613 -249 585 -261 555 -261 c 0
 550 -261 545 -261 540 -260 c 0
 521 -257 505 -251 497 -241 c 0
 459 -197 454 -104 454 7 c 0
 454 143 466 314 466 465 c 0
 466 511 409 549 368 549 c 0
 266 549 186 465 161 339 c 0
 156 314 154 289 154 266 c 0
 154 146 216 54 302 54 c 0
 323 54 350 59 382 71 c 0
 390 74 399 76 407 76 c 0
 424 76 439 69 446 58 c 0
EndSplineSet
Validated: 1
EndChar

StartChar: r
Encoding: 114 114 86
Width: 480
VWidth: 0
GlyphClass: 2
Flags: MW
LayerCount: 3
Back
SplineSet
440 560 m 1
 307 641 245 512 235 379 c 0
 222 200 226 160 220 20 c 1
 214 153 210 238 190 360 c 0
 173 464 136 552 70 570 c 1025
EndSplineSet
Fore
SplineSet
186 -13 m 0
 172 -13 162 2 161 14 c 0
 155 147 156 230 136 351 c 0
 119 456 76 527 37 536 c 0
 20 540 10 552 10 565 c 0
 10 571 12 577 16 582 c 0
 26 596 48 606 68 606 c 0
 73 606 78 605 83 604 c 0
 149 586 181 523 199 453 c 1
 216 533 253 615 351 621 c 1
 363 621 l 2
 400 621 433 609 465 589 c 0
 475 583 479 575 479 566 c 0
 479 557 475 547 465 539 c 0
 453 529 437 524 422 524 c 0
 412 524 402 526 395 531 c 0
 368 548 351 549 345 549 c 0
 326 549 277 494 269 382 c 0
 262 284 261 229 261 175 c 2
 261 147 l 2
 261 112 261 80 259 15 c 1
 259 15 228 -13 186 -13 c 0
EndSplineSet
Validated: 1
Layer: 2
SplineSet
186 -13 m 0
 172 -13 162 2 161 14 c 0
 155 147 156 230 136 351 c 0
 119 456 76 527 37 536 c 0
 20 540 10 552 10 565 c 0
 10 571 12 577 16 582 c 0
 26 596 48 606 68 606 c 0
 73 606 78 605 83 604 c 0
 149 586 181 523 199 453 c 1
 216 533 253 615 351 621 c 1
 363 621 l 2
 400 621 433 609 465 589 c 0
 475 583 479 575 479 566 c 0
 479 557 475 547 465 539 c 0
 453 529 437 524 422 524 c 0
 412 524 402 526 395 531 c 0
 368 548 351 549 345 549 c 0
 326 549 277 494 269 382 c 0
 262 284 261 229 261 175 c 2
 261 147 l 2
 261 112 261 80 259 15 c 1
 259 15 228 -13 186 -13 c 0
EndSplineSet
Validated: 1
EndChar

StartChar: s
Encoding: 115 115 87
Width: 560
VWidth: 0
GlyphClass: 2
Flags: MW
LayerCount: 3
Back
SplineSet
430 470 m 5
 439 531 390 590 305 590 c 4
 99 590 26 396 210 335 c 4
 243 324 343 289 370 280 c 4
 552 222 482 16 294 16 c 4
 199 16 136 60 110 125 c 1029
EndSplineSet
Fore
SplineSet
92 158 m 0
 98 160 106 161 112 161 c 0
 131 161 148 153 153 139 c 0
 175 83 224 52 296 52 c 0
 351 52 386 70 407 98 c 0
 419 114 426 132 426 150 c 0
 426 188 399 226 339 245 c 0
 310 255 211 289 179 300 c 0
 92 329 51 387 51 445 c 0
 51 453 51 461 53 469 c 0
 69 550 167 626 307 626 c 0
 417 626 475 558 475 489 c 0
 475 483 475 477 474 471 c 0
 471 452 447 435 420 434 c 2
 418 434 l 2
 394 434 376 448 376 465 c 2
 376 469 l 2
 377 473 377 476 377 480 c 0
 377 522 340 554 293 554 c 0
 202 554 154 514 145 469 c 0
 144 465 144 461 144 457 c 0
 144 424 171 390 231 370 c 0
 265 359 364 324 391 315 c 0
 480 287 521 228 521 167 c 0
 521 134 509 100 486 71 c 0
 447 20 373 -20 282 -20 c 0
 164 -20 87 37 57 111 c 0
 56 114 55 117 55 120 c 0
 55 136 70 151 92 158 c 0
EndSplineSet
Validated: 1
Layer: 2
SplineSet
92 158 m 0
 98 160 106 161 112 161 c 0
 131 161 148 153 153 139 c 0
 175 83 224 52 296 52 c 0
 351 52 386 70 407 98 c 0
 419 114 426 132 426 150 c 0
 426 188 399 226 339 245 c 0
 310 255 211 289 179 300 c 0
 92 329 51 387 51 445 c 0
 51 453 51 461 53 469 c 0
 69 550 167 626 307 626 c 0
 417 626 475 558 475 489 c 0
 475 483 475 477 474 471 c 0
 471 452 447 435 420 434 c 2
 418 434 l 2
 394 434 376 448 376 465 c 2
 376 469 l 2
 377 473 377 476 377 480 c 0
 377 522 340 554 293 554 c 0
 202 554 154 514 145 469 c 0
 144 465 144 461 144 457 c 0
 144 424 171 390 231 370 c 0
 265 359 364 324 391 315 c 0
 480 287 521 228 521 167 c 0
 521 134 509 100 486 71 c 0
 447 20 373 -20 282 -20 c 0
 164 -20 87 37 57 111 c 0
 56 114 55 117 55 120 c 0
 55 136 70 151 92 158 c 0
EndSplineSet
Validated: 1
EndChar

StartChar: t
Encoding: 116 116 88
Width: 460
VWidth: 0
GlyphClass: 2
Flags: MW
LayerCount: 3
Back
SplineSet
360 560 m 5
 215 555 162 557 70 565 c 1029
400 60 m 5
 270 -35 180 40 180 150 c 4
 180 326 199 518 185 715 c 1029
EndSplineSet
Fore
SplineSet
178 750 m 0
 181 750 185 751 188 751 c 0
 211 751 228 739 229 722 c 0
 230 708 230 693 230 679 c 0
 230 650 229 622 229 593 c 1
 262 593 308 594 360 596 c 2
 362 596 l 2
 386 596 404 583 404 566 c 2
 404 562 l 2
 401 543 377 525 350 524 c 0
 304 522 266 522 234 522 c 1
 232 394 224 270 224 155 c 0
 224 111 242 77 263 62 c 0
 271 56 280 51 292 51 c 0
 308 51 329 59 362 83 c 0
 373 91 388 96 402 96 c 0
 413 96 424 93 432 87 c 0
 440 81 444 73 444 65 c 0
 444 55 439 45 428 37 c 0
 378 0 324 -18 276 -18 c 0
 243 -18 212 -9 188 8 c 0
 145 39 126 90 126 145 c 0
 126 266 135 394 136 524 c 1
 109 525 82 526 52 529 c 0
 30 531 15 544 15 560 c 0
 15 563 16 566 17 569 c 0
 24 587 48 601 73 601 c 2
 78 601 l 2
 99 599 122 597 140 596 c 1
 139 633 134 671 131 708 c 2
 131 709 l 2
 131 728 152 746 178 750 c 0
EndSplineSet
Validated: 1
Layer: 2
SplineSet
178 750 m 0
 181 750 185 751 188 751 c 0
 211 751 228 739 229 722 c 0
 230 708 230 693 230 679 c 0
 230 650 229 622 229 593 c 1
 262 593 308 594 360 596 c 2
 362 596 l 2
 386 596 404 583 404 566 c 2
 404 562 l 2
 401 543 377 525 350 524 c 0
 304 522 266 522 234 522 c 1
 232 394 224 270 224 155 c 0
 224 111 242 77 263 62 c 0
 271 56 280 51 292 51 c 0
 308 51 329 59 362 83 c 0
 373 91 388 96 402 96 c 0
 413 96 424 93 432 87 c 0
 440 81 444 73 444 65 c 0
 444 55 439 45 428 37 c 0
 378 0 324 -18 276 -18 c 0
 243 -18 212 -9 188 8 c 0
 145 39 126 90 126 145 c 0
 126 266 135 394 136 524 c 1
 109 525 82 526 52 529 c 0
 30 531 15 544 15 560 c 0
 15 563 16 566 17 569 c 0
 24 587 48 601 73 601 c 2
 78 601 l 2
 99 599 122 597 140 596 c 1
 139 633 134 671 131 708 c 2
 131 709 l 2
 131 728 152 746 178 750 c 0
EndSplineSet
Validated: 1
EndChar

StartChar: u
Encoding: 117 117 89
Width: 670
VWidth: 0
GlyphClass: 2
Flags: MW
LayerCount: 3
Back
SplineSet
610 20 m 5
 544 77 520 209 515 575 c 5
 507 345 502 15 290 15 c 4
 199 15 135 85 135 235 c 4
 135 361 139 483 130 575 c 1029
EndSplineSet
Fore
SplineSet
559 592 m 1
 564 201 595 89 645 45 c 0
 651 39 654 33 654 26 c 0
 654 15 647 3 634 -5 c 0
 623 -12 608 -16 595 -16 c 0
 583 -16 572 -13 565 -5 c 0
 534 30 512 83 498 173 c 1
 467 74 409 -21 278 -21 c 0
 145 -21 81 78 81 230 c 0
 81 289 82 347 82 402 c 0
 82 463 81 520 76 567 c 1
 76 570 l 2
 76 588 96 606 122 610 c 0
 126 611 129 611 132 611 c 0
 154 611 172 600 174 583 c 0
 179 533 180 475 180 413 c 0
 180 358 179 299 179 240 c 0
 179 92 243 51 292 51 c 0
 360 51 411 109 438 245 c 0
 458 346 462 468 466 571 c 0
 467 590 488 611 511 611 c 0
 533 611 559 592 559 592 c 1
EndSplineSet
Validated: 1
Layer: 2
SplineSet
559 592 m 1
 564 201 595 89 645 45 c 0
 651 39 654 33 654 26 c 0
 654 15 647 3 634 -5 c 0
 623 -12 608 -16 595 -16 c 0
 583 -16 572 -13 565 -5 c 0
 534 30 512 83 498 173 c 1
 467 74 409 -21 278 -21 c 0
 145 -21 81 78 81 230 c 0
 81 289 82 347 82 402 c 0
 82 463 81 520 76 567 c 1
 76 570 l 2
 76 588 96 606 122 610 c 0
 126 611 129 611 132 611 c 0
 154 611 172 600 174 583 c 0
 179 533 180 475 180 413 c 0
 180 358 179 299 179 240 c 0
 179 92 243 51 292 51 c 0
 360 51 411 109 438 245 c 0
 458 346 462 468 466 571 c 0
 467 590 488 611 511 611 c 0
 533 611 559 592 559 592 c 1
EndSplineSet
Validated: 1
EndChar

StartChar: v
Encoding: 118 118 90
Width: 600
VWidth: 0
GlyphClass: 2
Flags: MW
LayerCount: 3
Back
SplineSet
545 555 m 1
 521 474 426 227 315 20 c 1
 274 141 167 430 85 565 c 1025
EndSplineSet
Fore
SplineSet
541 591 m 2
 563 590 579 577 579 561 c 0
 579 558 579 556 578 553 c 0
 553 469 459 222 346 12 c 1
 346 12 311 -18 283 -18 c 0
 270 -18 258 -11 252 7 c 0
 251 10 249 14 248 18 c 0
 205 143 101 420 24 547 c 0
 22 551 20 556 20 560 c 0
 20 574 32 588 51 596 c 0
 59 599 68 601 76 601 c 0
 93 601 109 594 116 583 c 0
 182 475 259 270 311 129 c 1
 395 302 463 494 482 557 c 0
 488 575 514 591 539 591 c 2
 541 591 l 2
EndSplineSet
Validated: 1
Layer: 2
SplineSet
541 591 m 2
 563 590 579 577 579 561 c 0
 579 558 579 556 578 553 c 0
 553 469 459 222 346 12 c 1
 346 12 311 -18 283 -18 c 0
 270 -18 258 -11 252 7 c 0
 251 10 249 14 248 18 c 0
 205 143 101 420 24 547 c 0
 22 551 20 556 20 560 c 0
 20 574 32 588 51 596 c 0
 59 599 68 601 76 601 c 0
 93 601 109 594 116 583 c 0
 182 475 259 270 311 129 c 1
 395 302 463 494 482 557 c 0
 488 575 514 591 539 591 c 2
 541 591 l 2
EndSplineSet
Validated: 1
EndChar

StartChar: w
Encoding: 119 119 91
Width: 810
VWidth: 0
GlyphClass: 2
Flags: MW
LayerCount: 3
Back
SplineSet
750 565 m 1
 698 420 662 254 600 20 c 1
 554 151 433 505 413 535 c 1
 395 505 276 118 240 15 c 1
 192 208 128 447 90 565 c 1025
EndSplineSet
Fore
SplineSet
748 601 m 2
 770 599 785 586 785 570 c 0
 785 567 784 564 783 561 c 0
 732 419 694 253 632 18 c 1
 632 18 592 -11 563 -11 c 0
 551 -11 542 -6 537 7 c 0
 507 93 443 307 399 429 c 1
 356 297 295 80 271 11 c 1
 271 11 230 -15 202 -15 c 0
 190 -15 180 -10 176 4 c 0
 128 197 65 435 27 552 c 0
 26 554 26 556 26 559 c 0
 26 575 42 592 64 598 c 0
 70 600 76 600 82 600 c 0
 101 600 118 592 123 578 c 0
 151 490 203 300 237 148 c 1
 280 298 341 513 360 545 c 0
 375 570 390 578 403 578 c 0
 425 578 441 554 441 554 c 1
 462 523 535 303 584 148 c 1
 617 299 652 459 692 569 c 0
 699 587 719 601 743 601 c 2
 748 601 l 2
EndSplineSet
Validated: 1
Layer: 2
SplineSet
748 601 m 2
 770 599 785 586 785 570 c 0
 785 567 784 564 783 561 c 0
 732 419 694 253 632 18 c 1
 632 18 592 -11 563 -11 c 0
 551 -11 542 -6 537 7 c 0
 507 93 443 307 399 429 c 1
 356 297 295 80 271 11 c 1
 271 11 230 -15 202 -15 c 0
 190 -15 180 -10 176 4 c 0
 128 197 65 435 27 552 c 0
 26 554 26 556 26 559 c 0
 26 575 42 592 64 598 c 0
 70 600 76 600 82 600 c 0
 101 600 118 592 123 578 c 0
 151 490 203 300 237 148 c 1
 280 298 341 513 360 545 c 0
 375 570 390 578 403 578 c 0
 425 578 441 554 441 554 c 1
 462 523 535 303 584 148 c 1
 617 299 652 459 692 569 c 0
 699 587 719 601 743 601 c 2
 748 601 l 2
EndSplineSet
Validated: 1
EndChar

StartChar: x
Encoding: 120 120 92
Width: 590
VWidth: 0
GlyphClass: 2
Flags: MW
LayerCount: 3
Back
SplineSet
75 30 m 1
 219 235 312 360 485 565 c 1025
520 40 m 1
 345 243 260 360 120 565 c 1025
EndSplineSet
Fore
SplineSet
94 595 m 0
 103 599 112 601 121 601 c 0
 138 601 153 594 160 584 c 0
 208 514 249 449 290 393 c 1
 334 449 382 513 439 580 c 0
 450 593 469 600 487 600 c 0
 494 600 501 599 507 597 c 0
 521 592 529 582 529 570 c 0
 529 563 526 557 521 550 c 0
 451 466 389 397 336 329 c 1
 398 247 468 166 558 62 c 0
 562 57 564 52 564 46 c 0
 564 34 555 20 539 12 c 0
 529 7 518 5 508 5 c 0
 493 5 480 9 472 18 c 0
 395 107 335 185 281 256 c 1
 228 185 175 106 113 18 c 0
 103 4 82 -6 62 -6 c 0
 57 -6 51 -5 46 -4 c 0
 30 1 21 12 21 24 c 0
 21 30 23 36 27 42 c 0
 102 148 168 234 234 320 c 1
 183 389 129 460 70 546 c 0
 67 550 66 555 66 560 c 0
 66 573 76 587 94 595 c 0
EndSplineSet
Validated: 1
Layer: 2
SplineSet
94 595 m 0
 103 599 112 601 121 601 c 0
 138 601 153 594 160 584 c 0
 208 514 249 449 290 393 c 1
 334 449 382 513 439 580 c 0
 450 593 469 600 487 600 c 0
 494 600 501 599 507 597 c 0
 521 592 529 582 529 570 c 0
 529 563 526 557 521 550 c 0
 451 466 389 397 336 329 c 1
 398 247 468 166 558 62 c 0
 562 57 564 52 564 46 c 0
 564 34 555 20 539 12 c 0
 529 7 518 5 508 5 c 0
 493 5 480 9 472 18 c 0
 395 107 335 185 281 256 c 1
 228 185 175 106 113 18 c 0
 103 4 82 -6 62 -6 c 0
 57 -6 51 -5 46 -4 c 0
 30 1 21 12 21 24 c 0
 21 30 23 36 27 42 c 0
 102 148 168 234 234 320 c 1
 183 389 129 460 70 546 c 0
 67 550 66 555 66 560 c 0
 66 573 76 587 94 595 c 0
EndSplineSet
Validated: 1
EndChar

StartChar: y
Encoding: 121 121 93
Width: 600
VWidth: 0
GlyphClass: 2
Flags: MW
LayerCount: 3
Back
SplineSet
525 560 m 1
 512 479 492 356 465 260 c 0
 433 146 364 40 295 40 c 0
 212 40 169 216 105 570 c 1025
525 560 m 1
 505 370 488 282 465 150 c 0
 422 -95 397 -297 180 -197 c 1025
EndSplineSet
Fore
SplineSet
554 573 m 1
 534 382 522 283 499 151 c 0
 473 5 455 -131 380 -207 c 0
 346 -241 301 -257 252 -257 c 0
 213 -257 171 -247 129 -228 c 0
 117 -222 110 -213 110 -202 c 0
 110 -194 116 -183 123 -176 c 0
 134 -165 151 -154 168 -154 c 0
 176 -154 184 -156 191 -159 c 0
 227 -177 245 -185 262 -185 c 0
 282 -185 292 -177 302 -169 c 0
 349 -130 379 -24 403 106 c 1
 373 49 335 4 268 4 c 0
 121 4 97 223 36 560 c 1
 36 564 l 2
 36 582 54 599 79 604 c 0
 84 605 89 605 93 605 c 0
 114 605 132 596 134 580 c 0
 188 247 224 89 283 76 c 1
 312 80 372 156 402 262 c 0
 428 356 443 478 456 559 c 0
 459 575 477 594 498 594 c 0
 528 594 554 573 554 573 c 1
EndSplineSet
Validated: 1
Layer: 2
SplineSet
554 573 m 1
 534 382 522 283 499 151 c 0
 473 5 455 -131 380 -207 c 0
 346 -241 301 -257 252 -257 c 0
 213 -257 171 -247 129 -228 c 0
 117 -222 110 -213 110 -202 c 0
 110 -194 116 -183 123 -176 c 0
 134 -165 151 -154 168 -154 c 0
 176 -154 184 -156 191 -159 c 0
 227 -177 245 -185 262 -185 c 0
 282 -185 292 -177 302 -169 c 0
 349 -130 379 -24 403 106 c 1
 373 49 335 4 268 4 c 0
 121 4 97 223 36 560 c 1
 36 564 l 2
 36 582 54 599 79 604 c 0
 84 605 89 605 93 605 c 0
 114 605 132 596 134 580 c 0
 188 247 224 89 283 76 c 1
 312 80 372 156 402 262 c 0
 428 356 443 478 456 559 c 0
 459 575 477 594 498 594 c 0
 528 594 554 573 554 573 c 1
EndSplineSet
Validated: 1
EndChar

StartChar: z
Encoding: 122 122 94
Width: 570
VWidth: 0
GlyphClass: 2
Flags: MW
LayerCount: 3
Back
SplineSet
500 33 m 1
 372 21 100 16 100 50 c 0
 100 104 286 322 480 570 c 1
 335 561 263 558 115 566 c 1025
EndSplineSet
Fore
SplineSet
539 38 m 2
 538 19 512 0 482 -3 c 0
 437 -7 334 -17 238 -17 c 0
 130 -17 31 -5 31 43 c 0
 31 118 200 305 377 529 c 1
 330 527 288 525 245 525 c 0
 198 525 148 527 86 530 c 0
 62 532 46 543 46 559 c 0
 46 562 47 566 48 569 c 0
 56 588 82 602 109 602 c 2
 114 602 l 2
 172 599 218 597 261 597 c 0
 325 597 383 601 470 606 c 1
 484 606 l 2
 517 606 526 597 526 586 c 0
 526 573 512 558 512 558 c 1
 338 335 171 134 143 68 c 1
 171 63 225 61 284 61 c 0
 356 61 436 64 488 69 c 1
 496 69 l 2
 521 69 539 56 539 39 c 2
 539 38 l 2
EndSplineSet
Validated: 1
Layer: 2
SplineSet
539 38 m 2
 538 19 512 0 482 -3 c 0
 437 -7 334 -17 238 -17 c 0
 130 -17 31 -5 31 43 c 0
 31 118 200 305 377 529 c 1
 330 527 288 525 245 525 c 0
 198 525 148 527 86 530 c 0
 62 532 46 543 46 559 c 0
 46 562 47 566 48 569 c 0
 56 588 82 602 109 602 c 2
 114 602 l 2
 172 599 218 597 261 597 c 0
 325 597 383 601 470 606 c 1
 484 606 l 2
 517 606 526 597 526 586 c 0
 526 573 512 558 512 558 c 1
 338 335 171 134 143 68 c 1
 171 63 225 61 284 61 c 0
 356 61 436 64 488 69 c 1
 496 69 l 2
 521 69 539 56 539 39 c 2
 539 38 l 2
EndSplineSet
Validated: 1
EndChar

StartChar: braceleft
Encoding: 123 123 95
Width: 360
VWidth: 0
GlyphClass: 2
Flags: MW
LayerCount: 3
Back
SplineSet
260 -60 m 1
 124 -60 150 53 162 162 c 0
 172 251 182 353 70 400 c 1
 191 433 180 534 166 648 c 0
 152 767 124 860 260 860 c 1025
EndSplineSet
Fore
SplineSet
299 860 m 2
 296 844 275 831 254 831 c 0
 243 831 235 831 228 830 c 0
 203 826 194 810 194 772 c 0
 194 745 199 707 205 655 c 0
 209 620 215 583 215 548 c 0
 215 491 200 437 140 399 c 1
 195 358 207 302 207 247 c 0
 207 218 204 190 201 164 c 0
 196 121 192 85 192 55 c 0
 192 0 207 -31 266 -31 c 0
 285 -31 299 -42 299 -56 c 2
 299 -60 l 2
 296 -76 275 -89 254 -89 c 0
 137 -89 112 -25 112 46 c 0
 112 85 119 126 123 160 c 0
 126 186 128 211 128 235 c 0
 128 296 112 348 47 375 c 0
 29 383 22 390 22 397 c 0
 22 414 61 427 61 427 c 1
 117 442 134 482 134 546 c 0
 134 573 131 605 127 641 c 0
 123 678 113 721 113 761 c 0
 113 819 134 871 222 885 c 0
 236 887 251 889 266 889 c 0
 285 889 299 878 299 864 c 2
 299 860 l 2
EndSplineSet
Validated: 1
Layer: 2
SplineSet
299 860 m 2
 296 844 275 831 254 831 c 0
 243 831 235 831 228 830 c 0
 203 826 194 810 194 772 c 0
 194 745 199 707 205 655 c 0
 209 620 215 583 215 548 c 0
 215 491 200 437 140 399 c 1
 195 358 207 302 207 247 c 0
 207 218 204 190 201 164 c 0
 196 121 192 85 192 55 c 0
 192 0 207 -31 266 -31 c 0
 285 -31 299 -42 299 -56 c 2
 299 -60 l 2
 296 -76 275 -89 254 -89 c 0
 137 -89 112 -25 112 46 c 0
 112 85 119 126 123 160 c 0
 126 186 128 211 128 235 c 0
 128 296 112 348 47 375 c 0
 29 383 22 390 22 397 c 0
 22 414 61 427 61 427 c 1
 117 442 134 482 134 546 c 0
 134 573 131 605 127 641 c 0
 123 678 113 721 113 761 c 0
 113 819 134 871 222 885 c 0
 236 887 251 889 266 889 c 0
 285 889 299 878 299 864 c 2
 299 860 l 2
EndSplineSet
Validated: 1
EndChar

StartChar: bar
Encoding: 124 124 96
Width: 360
VWidth: 0
GlyphClass: 2
Flags: MW
LayerCount: 3
Back
SplineSet
175 860 m 5
 184 554 182 324 180 -60 c 1029
EndSplineSet
Fore
SplineSet
174 890 m 0
 176 890 177 890 179 890 c 0
 199 890 215 879 215 864 c 0
 220 688 222 537 222 368 c 0
 222 242 221 107 220 -57 c 0
 220 -74 202 -88 180 -90 c 0
 178 -90 177 -90 175 -90 c 0
 155 -90 140 -79 140 -63 c 0
 141 101 142 237 142 362 c 0
 142 531 140 680 135 856 c 0
 135 872 152 888 174 890 c 0
EndSplineSet
Validated: 1
Layer: 2
SplineSet
174 890 m 0
 176 890 177 890 179 890 c 0
 199 890 215 879 215 864 c 0
 220 688 222 537 222 368 c 0
 222 242 221 107 220 -57 c 0
 220 -74 202 -88 180 -90 c 0
 178 -90 177 -90 175 -90 c 0
 155 -90 140 -79 140 -63 c 0
 141 101 142 237 142 362 c 0
 142 531 140 680 135 856 c 0
 135 872 152 888 174 890 c 0
EndSplineSet
Validated: 1
EndChar

StartChar: braceright
Encoding: 125 125 97
Width: 360
VWidth: 0
GlyphClass: 2
Flags: MW
LayerCount: 3
Back
SplineSet
100 860 m 1
 236 860 210 747 198 638 c 0
 188 549 178 447 290 400 c 1
 169 367 180 266 194 152 c 0
 208 33 236 -60 100 -60 c 1025
EndSplineSet
Fore
SplineSet
61 -60 m 2
 64 -44 85 -31 106 -31 c 0
 117 -31 125 -31 132 -30 c 0
 157 -26 166 -10 166 28 c 0
 166 55 161 93 155 145 c 0
 151 180 145 217 145 252 c 0
 145 309 160 363 220 401 c 1
 165 442 153 498 153 553 c 0
 153 582 156 610 159 636 c 0
 164 679 168 715 168 745 c 0
 168 800 153 831 94 831 c 0
 75 831 61 842 61 856 c 2
 61 860 l 2
 64 876 85 889 106 889 c 0
 223 889 248 825 248 754 c 0
 248 715 241 674 237 640 c 0
 234 614 232 589 232 565 c 0
 232 504 248 452 313 425 c 0
 331 417 338 410 338 403 c 0
 338 386 299 373 299 373 c 1
 243 358 226 318 226 254 c 0
 226 227 229 195 233 159 c 0
 237 122 247 79 247 39 c 0
 247 -19 226 -71 138 -85 c 0
 124 -87 109 -89 94 -89 c 0
 75 -89 61 -78 61 -64 c 2
 61 -60 l 2
EndSplineSet
Validated: 1
Layer: 2
SplineSet
61 -60 m 2
 64 -44 85 -31 106 -31 c 0
 117 -31 125 -31 132 -30 c 0
 157 -26 166 -10 166 28 c 0
 166 55 161 93 155 145 c 0
 151 180 145 217 145 252 c 0
 145 309 160 363 220 401 c 1
 165 442 153 498 153 553 c 0
 153 582 156 610 159 636 c 0
 164 679 168 715 168 745 c 0
 168 800 153 831 94 831 c 0
 75 831 61 842 61 856 c 2
 61 860 l 2
 64 876 85 889 106 889 c 0
 223 889 248 825 248 754 c 0
 248 715 241 674 237 640 c 0
 234 614 232 589 232 565 c 0
 232 504 248 452 313 425 c 0
 331 417 338 410 338 403 c 0
 338 386 299 373 299 373 c 1
 243 358 226 318 226 254 c 0
 226 227 229 195 233 159 c 0
 237 122 247 79 247 39 c 0
 247 -19 226 -71 138 -85 c 0
 124 -87 109 -89 94 -89 c 0
 75 -89 61 -78 61 -64 c 2
 61 -60 l 2
EndSplineSet
Validated: 1
EndChar

StartChar: asciitilde
Encoding: 126 126 98
Width: 600
VWidth: 0
GlyphClass: 2
Flags: MW
LayerCount: 3
Back
SplineSet
500 385 m 5
 488 349 452 285 396 285 c 4
 316 285 283 395 204 395 c 4
 147 395 114 331 100 295 c 1029
EndSplineSet
Fore
SplineSet
511 421 m 2
 533 419 549 406 549 390 c 0
 549 387 549 385 548 382 c 0
 541 358 525 329 501 302 c 0
 480 279 442 249 389 249 c 0
 346 249 317 267 296 283 c 0
 269 304 248 328 228 344 c 0
 213 357 202 359 197 359 c 0
 196 359 192 358 182 348 c 0
 167 332 154 308 147 290 c 0
 140 273 117 260 93 260 c 2
 86 260 l 2
 65 262 51 275 51 290 c 0
 51 293 52 297 53 300 c 0
 62 322 76 353 102 382 c 0
 123 404 160 431 211 431 c 0
 254 431 284 414 306 396 c 0
 332 376 353 350 372 335 c 0
 387 323 398 321 403 321 c 2
 404 321 l 2
 406 321 411 322 421 334 c 0
 435 349 447 374 452 388 c 0
 458 406 482 421 507 421 c 2
 511 421 l 2
EndSplineSet
Validated: 1
Layer: 2
SplineSet
511 421 m 2
 533 419 549 406 549 390 c 0
 549 387 549 385 548 382 c 0
 541 358 525 329 501 302 c 0
 480 279 442 249 389 249 c 0
 346 249 317 267 296 283 c 0
 269 304 248 328 228 344 c 0
 213 357 202 359 197 359 c 0
 196 359 192 358 182 348 c 0
 167 332 154 308 147 290 c 0
 140 273 117 260 93 260 c 2
 86 260 l 2
 65 262 51 275 51 290 c 0
 51 293 52 297 53 300 c 0
 62 322 76 353 102 382 c 0
 123 404 160 431 211 431 c 0
 254 431 284 414 306 396 c 0
 332 376 353 350 372 335 c 0
 387 323 398 321 403 321 c 2
 404 321 l 2
 406 321 411 322 421 334 c 0
 435 349 447 374 452 388 c 0
 458 406 482 421 507 421 c 2
 511 421 l 2
EndSplineSet
Validated: 1
EndChar

StartChar: exclamdown
Encoding: 161 161 99
Width: 330
VWidth: 0
GlyphClass: 2
Flags: MW
LayerCount: 3
Fore
SplineSet
99 489 m 256
 97 491 81 506 81 530 c 256
 81 534 81 539 82 543 c 256
 87 569 120 606 175 606 c 256
 225 606 249 575 249 545 c 256
 249 522 227 469 155 469 c 256
 149 469 143 470 139 471 c 258
 123 475 l 258
 113 478 104 483 99 489 c 256
194 -227 m 258
 154 -234 l 258
 151 -235 147 -235 143 -235 c 256
 128 -235 110 -229 110 -211 c 258
 110 -210 l 258
 112 -124 108 27 125 298 c 256
 126 316 154 333 177 333 c 256
 192 333 204 326 205 306 c 256
 213 168 219 -108 229 -193 c 256
 229 -194 229 -194 229 -195 c 256
 229 -210 212 -224 194 -227 c 258
EndSplineSet
Validated: 1
Layer: 2
SplineSet
99 489 m 256
 97 491 81 506 81 530 c 256
 81 534 81 539 82 543 c 256
 87 569 120 606 175 606 c 256
 225 606 249 575 249 545 c 256
 249 522 227 469 155 469 c 256
 149 469 143 470 139 471 c 258
 123 475 l 258
 113 478 104 483 99 489 c 256
194 -227 m 258
 154 -234 l 258
 151 -235 147 -235 143 -235 c 256
 128 -235 110 -229 110 -211 c 258
 110 -210 l 258
 112 -124 108 27 125 298 c 256
 126 316 154 333 177 333 c 256
 192 333 204 326 205 306 c 256
 213 168 219 -108 229 -193 c 256
 229 -194 229 -194 229 -195 c 256
 229 -210 212 -224 194 -227 c 258
EndSplineSet
Validated: 1
EndChar

StartChar: cent
Encoding: 162 162 100
Width: 600
VWidth: 0
GlyphClass: 2
Flags: MW
LayerCount: 3
Back
SplineSet
335 -100 m 1
 321 293 325 507 330 900 c 1029
EndSplineSet
Fore
SplineSet
336 -130 m 0
 335 -130 333 -130 332 -130 c 0
 315 -130 301 -118 300 -103 c 0
 298 -42 296 15 295 69 c 1
 164 82 58 184 58 380 c 0
 58 566 162 680 293 707 c 1
 294 766 294 830 295 898 c 0
 295 914 311 929 330 930 c 0
 331 930 331 930 332 930 c 0
 350 930 365 917 365 902 c 0
 364 835 364 773 363 714 c 1
 461 710 537 652 537 565 c 0
 537 545 513 526 485 523 c 2
 478 523 l 2
 453 523 433 537 433 555 c 0
 433 601 401 628 362 636 c 1
 361 559 360 486 360 414 c 0
 360 327 361 240 363 146 c 1
 405 152 443 174 463 206 c 0
 473 222 495 233 517 233 c 0
 522 233 527 232 532 231 c 0
 551 227 562 214 562 200 c 0
 562 195 560 189 557 184 c 0
 520 124 446 82 365 71 c 1
 366 18 368 -37 370 -97 c 2
 370 -98 l 2
 370 -113 354 -128 336 -130 c 0
293 151 m 1
 291 242 290 326 290 410 c 0
 290 482 291 553 292 630 c 1
 235 610 162 546 162 390 c 0
 162 235 229 171 293 151 c 1
EndSplineSet
Validated: 1
Layer: 2
SplineSet
336 -130 m 0
 335 -130 333 -130 332 -130 c 0
 315 -130 301 -118 300 -103 c 0
 298 -42 296 15 295 69 c 1
 164 82 58 184 58 380 c 0
 58 566 162 680 293 707 c 1
 294 766 294 830 295 898 c 0
 295 914 311 929 330 930 c 0
 331 930 331 930 332 930 c 0
 350 930 365 917 365 902 c 0
 364 835 364 773 363 714 c 1
 461 710 537 652 537 565 c 0
 537 545 513 526 485 523 c 2
 478 523 l 2
 453 523 433 537 433 555 c 0
 433 601 401 628 362 636 c 1
 361 559 360 486 360 414 c 0
 360 327 361 240 363 146 c 1
 405 152 443 174 463 206 c 0
 473 222 495 233 517 233 c 0
 522 233 527 232 532 231 c 0
 551 227 562 214 562 200 c 0
 562 195 560 189 557 184 c 0
 520 124 446 82 365 71 c 1
 366 18 368 -37 370 -97 c 2
 370 -98 l 2
 370 -113 354 -128 336 -130 c 0
293 151 m 1
 291 242 290 326 290 410 c 0
 290 482 291 553 292 630 c 1
 235 610 162 546 162 390 c 0
 162 235 229 171 293 151 c 1
EndSplineSet
Validated: 1
EndChar

StartChar: sterling
Encoding: 163 163 101
Width: 720
VWidth: 0
GlyphClass: 2
Flags: MW
LayerCount: 3
Back
SplineSet
385 120 m 4
 453 68 502 30 555 30 c 4
 643 30 656 142 645 210 c 1028
530 710 m 5
 437 852 254 800 265 630 c 4
 271 530 282 414 285 300 c 1028
285 300 m 4
 290 137 275 25 210 25 c 4
 128 25 90 90 90 150 c 4
 90 200 120 245 180 245 c 4
 238 245 319 170 385 120 c 1028
120 470 m 5
 208 462 376 460 515 465 c 1029
EndSplineSet
Fore
SplineSet
77 474 m 0
 83 490 106 501 128 501 c 0
 130 501 131 501 133 501 c 0
 157 499 188 496 224 495 c 1
 219 539 215 583 213 624 c 0
 213 629 212 635 212 640 c 0
 212 737 274 819 376 831 c 0
 384 832 393 833 401 833 c 0
 472 833 536 795 577 732 c 0
 580 727 582 721 582 715 c 0
 582 700 572 685 553 676 c 0
 544 672 533 670 523 670 c 0
 506 670 491 676 483 688 c 0
 450 738 411 751 388 751 c 0
 385 751 383 751 381 751 c 0
 359 748 316 725 316 651 c 0
 316 646 317 641 317 636 c 0
 320 591 322 543 324 493 c 1
 337 493 350 493 363 493 c 0
 416 493 470 494 520 496 c 0
 521 496 522 496 523 496 c 0
 544 496 559 486 559 471 c 0
 559 470 559 468 559 467 c 0
 556 450 534 435 510 434 c 0
 458 432 402 431 348 431 c 0
 341 431 333 431 326 431 c 1
 327 389 329 347 330 305 c 2
 330 213 l 1
 337 208 344 202 351 197 c 0
 375 178 399 161 420 145 c 0
 491 91 528 71 561 71 c 0
 563 71 564 71 565 71 c 0
 583 72 599 97 599 145 c 0
 599 161 597 180 593 201 c 0
 593 203 593 204 593 206 c 0
 593 226 613 245 639 250 c 0
 643 251 646 251 650 251 c 0
 674 251 694 238 697 219 c 0
 699 205 702 186 702 164 c 0
 702 98 681 11 578 -8 c 0
 569 -10 558 -11 549 -11 c 0
 476 -11 415 50 350 100 c 0
 341 107 330 117 320 125 c 1
 319 118 319 106 317 100 c 0
 308 63 297 25 249 4 c 0
 235 -2 218 -6 203 -6 c 0
 84 -6 46 81 46 145 c 0
 46 156 47 167 49 177 c 0
 59 221 102 276 187 276 c 0
 208 276 225 271 241 265 c 1
 241 274 240 285 240 295 c 0
 239 341 235 388 231 433 c 1
 183 434 140 436 107 439 c 0
 88 441 75 452 75 465 c 0
 75 468 76 471 77 474 c 0
240 182 m 1
 234 186 228 189 222 193 c 0
 197 208 176 214 173 214 c 0
 160 214 145 210 137 177 c 0
 135 170 134 163 134 155 c 0
 134 102 170 59 212 56 c 1
 222 68 233 105 238 157 c 0
 239 165 240 173 240 182 c 1
EndSplineSet
Validated: 1
Layer: 2
SplineSet
77 474 m 0
 83 490 106 501 128 501 c 0
 130 501 131 501 133 501 c 0
 157 499 188 496 224 495 c 1
 219 539 215 583 213 624 c 0
 213 629 212 635 212 640 c 0
 212 737 274 819 376 831 c 0
 384 832 393 833 401 833 c 0
 472 833 536 795 577 732 c 0
 580 727 582 721 582 715 c 0
 582 700 572 685 553 676 c 0
 544 672 533 670 523 670 c 0
 506 670 491 676 483 688 c 0
 450 738 411 751 388 751 c 0
 385 751 383 751 381 751 c 0
 359 748 316 725 316 651 c 0
 316 646 317 641 317 636 c 0
 320 591 322 543 324 493 c 1
 337 493 350 493 363 493 c 0
 416 493 470 494 520 496 c 0
 521 496 522 496 523 496 c 0
 544 496 559 486 559 471 c 0
 559 470 559 468 559 467 c 0
 556 450 534 435 510 434 c 0
 458 432 402 431 348 431 c 0
 341 431 333 431 326 431 c 1
 327 389 329 347 330 305 c 2
 330 213 l 1
 337 208 344 202 351 197 c 0
 375 178 399 161 420 145 c 0
 491 91 528 71 561 71 c 0
 563 71 564 71 565 71 c 0
 583 72 599 97 599 145 c 0
 599 161 597 180 593 201 c 0
 593 203 593 204 593 206 c 0
 593 226 613 245 639 250 c 0
 643 251 646 251 650 251 c 0
 674 251 694 238 697 219 c 0
 699 205 702 186 702 164 c 0
 702 98 681 11 578 -8 c 0
 569 -10 558 -11 549 -11 c 0
 476 -11 415 50 350 100 c 0
 341 107 330 117 320 125 c 1
 319 118 319 106 317 100 c 0
 308 63 297 25 249 4 c 0
 235 -2 218 -6 203 -6 c 0
 84 -6 46 81 46 145 c 0
 46 156 47 167 49 177 c 0
 59 221 102 276 187 276 c 0
 208 276 225 271 241 265 c 1
 241 274 240 285 240 295 c 0
 239 341 235 388 231 433 c 1
 183 434 140 436 107 439 c 0
 88 441 75 452 75 465 c 0
 75 468 76 471 77 474 c 0
240 182 m 1
 234 186 228 189 222 193 c 0
 197 208 176 214 173 214 c 0
 160 214 145 210 137 177 c 0
 135 170 134 163 134 155 c 0
 134 102 170 59 212 56 c 1
 222 68 233 105 238 157 c 0
 239 165 240 173 240 182 c 1
EndSplineSet
Validated: 1
EndChar

StartChar: brokenbar
Encoding: 166 166 102
Width: 360
VWidth: 0
GlyphClass: 2
Flags: MW
LayerCount: 3
Back
SplineSet
175 860 m 5
 178 741 180 610 181 500 c 1028
181 300 m 4
 181 213 181 46 180 -60 c 1029
EndSplineSet
Fore
SplineSet
174 890 m 0
 176 890 177 890 179 890 c 0
 199 890 215 879 215 864 c 0
 218 745 220 614 221 504 c 0
 221 488 203 472 181 470 c 0
 179 470 178 470 176 470 c 0
 156 470 141 481 141 496 c 0
 140 606 138 737 135 856 c 0
 135 872 152 888 174 890 c 0
181 330 m 0
 183 330 184 330 186 330 c 0
 206 330 221 319 221 304 c 0
 221 217 221 49 220 -57 c 0
 220 -74 202 -88 180 -90 c 0
 178 -90 177 -90 175 -90 c 0
 155 -90 140 -79 140 -63 c 0
 141 43 141 209 141 296 c 0
 141 312 159 328 181 330 c 0
EndSplineSet
Validated: 1
Layer: 2
SplineSet
174 890 m 0
 176 890 177 890 179 890 c 0
 199 890 215 879 215 864 c 0
 218 745 220 614 221 504 c 0
 221 488 203 472 181 470 c 0
 179 470 178 470 176 470 c 0
 156 470 141 481 141 496 c 0
 140 606 138 737 135 856 c 0
 135 872 152 888 174 890 c 0
181 330 m 0
 183 330 184 330 186 330 c 0
 206 330 221 319 221 304 c 0
 221 217 221 49 220 -57 c 0
 220 -74 202 -88 180 -90 c 0
 178 -90 177 -90 175 -90 c 0
 155 -90 140 -79 140 -63 c 0
 141 43 141 209 141 296 c 0
 141 312 159 328 181 330 c 0
EndSplineSet
Validated: 1
EndChar

StartChar: copyright
Encoding: 169 169 104
Width: 1020
VWidth: 0
GlyphClass: 2
Flags: MW
LayerCount: 3
Back
SplineSet
610 504 m 1
 610 620 360 624 360 388 c 0
 360 162 573 171 627 261 c 1025
835 586 m 1
 981 444 888 0 510 0 c 0
 283 0 120 180 120 380 c 0
 120 628 277 800 499 800 c 0
 715 800 803 680 835 616 c 1025
EndSplineSet
Fore
SplineSet
865 604 m 1
 914 556 937 483 937 403 c 0
 937 374 934 344 928 314 c 0
 894 153 761 -27 504 -27 c 0
 250 -27 83 169 83 376 c 0
 83 416 86 454 94 490 c 0
 135 684 288 827 505 827 c 0
 742 827 837 695 870 628 c 0
 871 626 872 623 872 621 c 0
 872 616 869 609 865 604 c 1
805 598 m 0
 803 600 801 602 800 604 c 0
 769 665 688 773 493 773 c 0
 335 773 206 672 168 490 c 0
 161 457 157 421 157 384 c 0
 157 191 316 27 516 27 c 0
 709 27 823 160 855 314 c 0
 860 341 863 367 863 393 c 0
 863 466 842 531 804 568 c 0
 800 572 798 576 798 581 c 0
 798 587 801 593 805 598 c 0
646 292 m 0
 662 288 671 278 671 266 c 0
 671 261 670 257 667 252 c 0
 641 208 586 177 526 171 c 0
 518 170 510 170 502 170 c 0
 399 170 315 242 315 383 c 0
 315 517 397 601 501 612 c 0
 508 613 516 613 523 613 c 0
 597 613 655 572 655 509 c 0
 655 492 634 475 610 472 c 2
 603 472 l 2
 582 472 565 484 565 499 c 0
 565 534 536 549 508 549 c 2
 501 549 l 2
 471 546 405 515 405 393 c 0
 405 263 475 234 518 234 c 2
 526 234 l 2
 551 237 575 250 587 270 c 0
 595 284 615 293 634 293 c 0
 638 293 642 293 646 292 c 0
EndSplineSet
Validated: 1
Layer: 2
SplineSet
865 604 m 1
 914 556 937 483 937 403 c 0
 937 374 934 344 928 314 c 0
 894 153 761 -27 504 -27 c 0
 250 -27 83 169 83 376 c 0
 83 416 86 454 94 490 c 0
 135 684 288 827 505 827 c 0
 742 827 837 695 870 628 c 0
 871 626 872 623 872 621 c 0
 872 616 869 609 865 604 c 1
805 598 m 0
 803 600 801 602 800 604 c 0
 769 665 688 773 493 773 c 0
 335 773 206 672 168 490 c 0
 161 457 157 421 157 384 c 0
 157 191 316 27 516 27 c 0
 709 27 823 160 855 314 c 0
 860 341 863 367 863 393 c 0
 863 466 842 531 804 568 c 0
 800 572 798 576 798 581 c 0
 798 587 801 593 805 598 c 0
646 292 m 0
 662 288 671 278 671 266 c 0
 671 261 670 257 667 252 c 0
 641 208 586 177 526 171 c 0
 518 170 510 170 502 170 c 0
 399 170 315 242 315 383 c 0
 315 517 397 601 501 612 c 0
 508 613 516 613 523 613 c 0
 597 613 655 572 655 509 c 0
 655 492 634 475 610 472 c 2
 603 472 l 2
 582 472 565 484 565 499 c 0
 565 534 536 549 508 549 c 2
 501 549 l 2
 471 546 405 515 405 393 c 0
 405 263 475 234 518 234 c 2
 526 234 l 2
 551 237 575 250 587 270 c 0
 595 284 615 293 634 293 c 0
 638 293 642 293 646 292 c 0
EndSplineSet
Validated: 1
EndChar

StartChar: guillemotleft
Encoding: 171 171 105
Width: 720
VWidth: 0
GlyphClass: 2
Flags: MW
LayerCount: 3
Back
SplineSet
605 100 m 1
 549 152 446 257 385 340 c 1
 470 414 562 521 595 580 c 1025
335 100 m 1
 279 152 176 257 115 340 c 1
 200 414 292 521 325 580 c 1025
EndSplineSet
Fore
SplineSet
633 74 m 0
 623 68 613 65 603 65 c 0
 592 65 582 69 574 76 c 0
 517 129 404 234 341 320 c 0
 338 324 336 329 336 334 c 0
 336 343 341 352 349 360 c 0
 429 430 531 537 560 589 c 0
 569 605 584 616 603 616 c 0
 607 616 610 616 614 615 c 0
 630 612 636 603 636 592 c 0
 636 586 634 578 630 571 c 0
 596 510 526 417 444 341 c 1
 503 265 586 171 636 124 c 0
 644 117 648 107 648 98 c 0
 648 89 644 80 633 74 c 0
363 74 m 0
 353 68 343 65 333 65 c 0
 322 65 312 69 304 76 c 0
 247 129 134 234 71 320 c 0
 68 324 66 329 66 334 c 0
 66 343 71 352 79 360 c 0
 159 430 261 537 290 589 c 0
 299 605 314 616 333 616 c 0
 337 616 340 616 344 615 c 0
 360 612 366 603 366 592 c 0
 366 586 364 578 360 571 c 0
 326 510 256 417 174 341 c 1
 233 265 316 171 366 124 c 0
 374 117 378 107 378 98 c 0
 378 89 374 80 363 74 c 0
EndSplineSet
Validated: 1
Layer: 2
SplineSet
633 74 m 0
 623 68 613 65 603 65 c 0
 592 65 582 69 574 76 c 0
 517 129 404 234 341 320 c 0
 338 324 336 329 336 334 c 0
 336 343 341 352 349 360 c 0
 429 430 531 537 560 589 c 0
 569 605 584 616 603 616 c 0
 607 616 610 616 614 615 c 0
 630 612 636 603 636 592 c 0
 636 586 634 578 630 571 c 0
 596 510 526 417 444 341 c 1
 503 265 586 171 636 124 c 0
 644 117 648 107 648 98 c 0
 648 89 644 80 633 74 c 0
363 74 m 0
 353 68 343 65 333 65 c 0
 322 65 312 69 304 76 c 0
 247 129 134 234 71 320 c 0
 68 324 66 329 66 334 c 0
 66 343 71 352 79 360 c 0
 159 430 261 537 290 589 c 0
 299 605 314 616 333 616 c 0
 337 616 340 616 344 615 c 0
 360 612 366 603 366 592 c 0
 366 586 364 578 360 571 c 0
 326 510 256 417 174 341 c 1
 233 265 316 171 366 124 c 0
 374 117 378 107 378 98 c 0
 378 89 374 80 363 74 c 0
EndSplineSet
Validated: 1
EndChar

StartChar: logicalnot
Encoding: 172 172 106
Width: 600
VWidth: 0
GlyphClass: 2
Flags: MW
LayerCount: 3
Back
SplineSet
444 210 m 28
 445 340 l 5
 306 335 193 337 105 345 c 1029
EndSplineSet
Fore
SplineSet
444 175 m 0
 443 175 441 175 440 175 c 0
 418 175 399 189 399 207 c 0
 400 303 l 1
 368 302 337 302 308 302 c 0
 226 302 156 305 95 310 c 0
 74 312 60 326 60 342 c 0
 60 344 60 347 61 349 c 0
 66 367 87 380 110 380 c 0
 112 380 113 380 115 380 c 0
 169 375 233 372 308 372 c 0
 351 372 398 373 448 375 c 0
 449 375 449 375 450 375 c 0
 470 375 490 361 490 343 c 0
 489 213 l 0
 489 194 468 177 444 175 c 0
EndSplineSet
Validated: 1
Layer: 2
SplineSet
444 175 m 0
 443 175 441 175 440 175 c 0
 418 175 399 189 399 207 c 0
 400 303 l 1
 368 302 337 302 308 302 c 0
 226 302 156 305 95 310 c 0
 74 312 60 326 60 342 c 0
 60 344 60 347 61 349 c 0
 66 367 87 380 110 380 c 0
 112 380 113 380 115 380 c 0
 169 375 233 372 308 372 c 0
 351 372 398 373 448 375 c 0
 449 375 449 375 450 375 c 0
 470 375 490 361 490 343 c 0
 489 213 l 0
 489 194 468 177 444 175 c 0
EndSplineSet
Validated: 1
EndChar

StartChar: registered
Encoding: 174 174 107
Width: 810
VWidth: 0
GlyphClass: 2
Flags: MW
LayerCount: 3
Back
SplineSet
300 752 m 1
 579 880 576 569 368 640 c 1
 368 640 476 533 530 493 c 1025
338 495 m 1
 341 573 341 668 335 716 c 1025
657 780 m 1
 767 674 697 340 413 340 c 0
 243 340 120 475 120 625 c 0
 120 811 239 940 405 940 c 0
 567 940 633 850 657 802 c 1025
EndSplineSet
Fore
SplineSet
682 794 m 1
 719 758 737 703 737 644 c 0
 737 623 734 601 730 579 c 0
 705 457 605 319 409 319 c 0
 217 319 90 466 90 622 c 0
 90 651 93 678 98 704 c 0
 128 852 244 961 409 961 c 0
 588 961 660 862 685 812 c 0
 686 810 686 808 686 806 c 0
 686 802 685 798 682 794 c 1
632 788 m 0
 631 789 630 791 629 792 c 0
 606 838 546 919 401 919 c 0
 283 919 185 842 157 704 c 0
 152 680 150 655 150 628 c 0
 150 484 269 361 417 361 c 0
 562 361 648 463 671 579 c 0
 675 598 677 617 677 635 c 0
 677 690 660 739 632 766 c 0
 629 769 628 772 628 776 c 0
 628 780 629 784 632 788 c 0
337 469 m 2
 332 469 l 2
 315 469 301 479 301 491 c 2
 301 492 l 2
 302 524 303 559 303 592 c 0
 303 639 302 683 298 710 c 1
 298 713 l 2
 298 718 300 722 303 726 c 1
 300 726 298 725 296 725 c 0
 284 725 273 730 267 737 c 0
 264 740 263 744 263 748 c 0
 263 758 271 768 284 774 c 0
 338 798 386 809 426 809 c 0
 478 809 516 792 537 764 c 0
 548 749 554 730 554 711 c 0
 554 676 533 638 486 617 c 0
 475 612 462 609 448 606 c 1
 482 574 532 533 558 513 c 0
 564 509 567 503 567 497 c 0
 567 489 562 481 554 475 c 0
 546 469 535 466 525 466 c 0
 516 466 508 468 502 473 c 0
 466 499 410 555 373 592 c 1
 373 561 373 528 372 498 c 0
 371 484 357 471 337 469 c 2
345 742 m 1
 358 740 365 733 367 722 c 0
 369 706 370 687 371 664 c 0
 375 664 380 663 385 661 c 0
 401 655 414 654 424 654 c 0
 438 654 448 657 455 660 c 0
 469 665 480 684 480 704 c 0
 480 714 477 724 470 734 c 0
 461 746 444 757 415 757 c 0
 397 757 374 753 345 742 c 1
EndSplineSet
Validated: 1
Layer: 2
SplineSet
682 794 m 1
 719 758 737 703 737 644 c 0
 737 623 734 601 730 579 c 0
 705 457 605 319 409 319 c 0
 217 319 90 466 90 622 c 0
 90 651 93 678 98 704 c 0
 128 852 244 961 409 961 c 0
 588 961 660 862 685 812 c 0
 686 810 686 808 686 806 c 0
 686 802 685 798 682 794 c 1
632 788 m 0
 631 789 630 791 629 792 c 0
 606 838 546 919 401 919 c 0
 283 919 185 842 157 704 c 0
 152 680 150 655 150 628 c 0
 150 484 269 361 417 361 c 0
 562 361 648 463 671 579 c 0
 675 598 677 617 677 635 c 0
 677 690 660 739 632 766 c 0
 629 769 628 772 628 776 c 0
 628 780 629 784 632 788 c 0
337 469 m 2
 332 469 l 2
 315 469 301 479 301 491 c 2
 301 492 l 2
 302 524 303 559 303 592 c 0
 303 639 302 683 298 710 c 1
 298 713 l 2
 298 718 300 722 303 726 c 1
 300 726 298 725 296 725 c 0
 284 725 273 730 267 737 c 0
 264 740 263 744 263 748 c 0
 263 758 271 768 284 774 c 0
 338 798 386 809 426 809 c 0
 478 809 516 792 537 764 c 0
 548 749 554 730 554 711 c 0
 554 676 533 638 486 617 c 0
 475 612 462 609 448 606 c 1
 482 574 532 533 558 513 c 0
 564 509 567 503 567 497 c 0
 567 489 562 481 554 475 c 0
 546 469 535 466 525 466 c 0
 516 466 508 468 502 473 c 0
 466 499 410 555 373 592 c 1
 373 561 373 528 372 498 c 0
 371 484 357 471 337 469 c 2
345 742 m 1
 358 740 365 733 367 722 c 0
 369 706 370 687 371 664 c 0
 375 664 380 663 385 661 c 0
 401 655 414 654 424 654 c 0
 438 654 448 657 455 660 c 0
 469 665 480 684 480 704 c 0
 480 714 477 724 470 734 c 0
 461 746 444 757 415 757 c 0
 397 757 374 753 345 742 c 1
EndSplineSet
Validated: 1
EndChar

StartChar: macron
Encoding: 175 175 108
Width: 510
VWidth: 0
GlyphClass: 2
Flags: MW
LayerCount: 3
Back
SplineSet
415 810 m 5
 276 805 183 807 95 815 c 1029
EndSplineSet
Fore
SplineSet
464 812 m 0
 461 793 437 775 410 774 c 0
 358 772 313 771 271 771 c 0
 199 771 140 774 82 779 c 0
 60 781 45 794 45 810 c 0
 45 813 46 816 47 819 c 0
 54 837 78 851 103 851 c 0
 105 851 106 851 108 851 c 0
 162 846 217 843 286 843 c 0
 326 843 370 844 420 846 c 0
 421 846 421 846 422 846 c 0
 446 846 464 833 464 816 c 0
 464 815 464 813 464 812 c 0
EndSplineSet
Validated: 1
Layer: 2
SplineSet
464 812 m 0
 461 793 437 775 410 774 c 0
 358 772 313 771 271 771 c 0
 199 771 140 774 82 779 c 0
 60 781 45 794 45 810 c 0
 45 813 46 816 47 819 c 0
 54 837 78 851 103 851 c 0
 105 851 106 851 108 851 c 0
 162 846 217 843 286 843 c 0
 326 843 370 844 420 846 c 0
 421 846 421 846 422 846 c 0
 446 846 464 833 464 816 c 0
 464 815 464 813 464 812 c 0
EndSplineSet
Validated: 1
EndChar

StartChar: degree
Encoding: 176 176 109
Width: 330
VWidth: 0
GlyphClass: 2
Flags: MW
LayerCount: 3
Back
SplineSet
210 906 m 5
 262 886 276 846 276 798 c 4
 276 748 226 714 174 714 c 4
 133 714 84 748 84 804 c 4
 84 856 115 906 174 906 c 1030
EndSplineSet
Fore
SplineSet
188 884 m 0
 182 882 175 880 169 880 c 0
 149 880 127 866 120 827 c 0
 119 821 119 815 119 808 c 0
 119 761 161 740 179 740 c 0
 207 740 234 755 240 785 c 0
 241 788 241 791 241 794 c 0
 241 839 229 868 191 883 c 0
 190 883 189 884 188 884 c 0
196 928 m 1
 202 930 209 932 215 932 c 0
 220 932 225 931 229 929 c 0
 295 904 311 853 311 802 c 0
 311 796 310 791 309 785 c 0
 299 730 236 688 169 688 c 0
 105 688 49 735 49 800 c 0
 49 809 50 818 52 827 c 0
 61 873 99 932 179 932 c 0
 185 932 191 930 196 928 c 1
EndSplineSet
Validated: 1
Layer: 2
SplineSet
188 884 m 0
 182 882 175 880 169 880 c 0
 149 880 127 866 120 827 c 0
 119 821 119 815 119 808 c 0
 119 761 161 740 179 740 c 0
 207 740 234 755 240 785 c 0
 241 788 241 791 241 794 c 0
 241 839 229 868 191 883 c 0
 190 883 189 884 188 884 c 0
196 928 m 1
 202 930 209 932 215 932 c 0
 220 932 225 931 229 929 c 0
 295 904 311 853 311 802 c 0
 311 796 310 791 309 785 c 0
 299 730 236 688 169 688 c 0
 105 688 49 735 49 800 c 0
 49 809 50 818 52 827 c 0
 61 873 99 932 179 932 c 0
 185 932 191 930 196 928 c 1
EndSplineSet
Validated: 1
EndChar

StartChar: plusminus
Encoding: 177 177 110
Width: 600
VWidth: 0
GlyphClass: 2
Flags: MW
LayerCount: 3
Back
SplineSet
475 175 m 5
 336 170 213 172 125 180 c 1029
295 560 m 5
 302 471 303 425 305 300 c 1028
475 430 m 5
 336 425 213 427 125 435 c 1029
EndSplineSet
Fore
SplineSet
520 432 m 0
 519 413 496 396 472 395 c 0
 429 393 387 392 348 392 c 1
 349 367 349 339 350 304 c 0
 350 285 330 267 306 265 c 0
 304 265 303 265 301 265 c 0
 279 265 260 278 260 296 c 0
 259 335 259 366 258 393 c 1
 205 394 157 396 115 400 c 0
 94 402 80 416 80 432 c 0
 80 434 80 437 81 439 c 0
 86 457 107 470 130 470 c 0
 132 470 133 470 135 470 c 0
 169 467 210 464 256 463 c 1
 255 492 253 520 250 554 c 0
 250 555 250 556 250 557 c 0
 250 575 269 592 292 595 c 0
 294 595 297 595 299 595 c 0
 320 595 338 583 340 566 c 0
 343 527 345 495 346 462 c 1
 388 462 432 463 478 465 c 0
 479 465 479 465 480 465 c 0
 502 465 520 451 520 433 c 0
 520 432 l 0
520 177 m 0
 519 158 496 141 472 140 c 0
 420 138 370 137 324 137 c 0
 244 137 173 140 115 145 c 0
 94 147 80 161 80 177 c 0
 80 179 80 182 81 184 c 0
 86 202 107 215 130 215 c 0
 132 215 133 215 135 215 c 0
 188 210 256 207 334 207 c 0
 379 207 428 208 478 210 c 0
 479 210 479 210 480 210 c 0
 502 210 520 196 520 178 c 0
 520 177 l 0
EndSplineSet
Validated: 1
Layer: 2
SplineSet
520 432 m 0
 519 413 496 396 472 395 c 0
 429 393 387 392 348 392 c 1
 349 367 349 339 350 304 c 0
 350 285 330 267 306 265 c 0
 304 265 303 265 301 265 c 0
 279 265 260 278 260 296 c 0
 259 335 259 366 258 393 c 1
 205 394 157 396 115 400 c 0
 94 402 80 416 80 432 c 0
 80 434 80 437 81 439 c 0
 86 457 107 470 130 470 c 0
 132 470 133 470 135 470 c 0
 169 467 210 464 256 463 c 1
 255 492 253 520 250 554 c 0
 250 555 250 556 250 557 c 0
 250 575 269 592 292 595 c 0
 294 595 297 595 299 595 c 0
 320 595 338 583 340 566 c 0
 343 527 345 495 346 462 c 1
 388 462 432 463 478 465 c 0
 479 465 479 465 480 465 c 0
 502 465 520 451 520 433 c 0
 520 432 l 0
520 177 m 0
 519 158 496 141 472 140 c 0
 420 138 370 137 324 137 c 0
 244 137 173 140 115 145 c 0
 94 147 80 161 80 177 c 0
 80 179 80 182 81 184 c 0
 86 202 107 215 130 215 c 0
 132 215 133 215 135 215 c 0
 188 210 256 207 334 207 c 0
 379 207 428 208 478 210 c 0
 479 210 479 210 480 210 c 0
 502 210 520 196 520 178 c 0
 520 177 l 0
EndSplineSet
Validated: 1
EndChar

StartChar: acute
Encoding: 180 180 111
Width: 360
VWidth: 0
GlyphClass: 2
Flags: MW
LayerCount: 3
Back
SplineSet
300 785 m 5
 218 695 82 580 65 570 c 5
 72 585 195 716 274 815 c 5
 300 785 l 5
EndSplineSet
Fore
SplineSet
332 770 m 0
 246 676 116 564 87 547 c 0
 87 547 68 541 51 541 c 0
 37 541 23 545 23 559 c 0
 23 564 25 570 28 577 c 0
 42 608 161 729 241 829 c 0
 241 829 256 851 277 851 c 0
 286 851 297 847 308 834 c 0
 334 804 l 0
 338 800 340 794 340 789 c 0
 340 782 337 776 332 770 c 0
EndSplineSet
Validated: 1
Layer: 2
SplineSet
332 770 m 0
 246 676 116 564 87 547 c 0
 87 547 68 541 51 541 c 0
 37 541 23 545 23 559 c 0
 23 564 25 570 28 577 c 0
 42 608 161 729 241 829 c 0
 241 829 256 851 277 851 c 0
 286 851 297 847 308 834 c 0
 334 804 l 0
 338 800 340 794 340 789 c 0
 340 782 337 776 332 770 c 0
EndSplineSet
Validated: 1
EndChar

StartChar: uni00B5
Encoding: 181 181 112
Width: 680
VWidth: 0
GlyphClass: 2
Flags: MW
LayerCount: 3
Back
SplineSet
610 20 m 5
 544 77 520 209 515 575 c 1029
515 575 m 5
 507 345 502 15 290 15 c 4
 199 15 135 85 135 235 c 1028
130 575 m 4
 141 456 134 232 130 -210 c 1028
EndSplineSet
Fore
SplineSet
127 610 m 0
 131 611 134 611 137 611 c 0
 159 611 177 600 179 583 c 0
 183 534 185 470 185 382 c 0
 185 327 184 263 183 188 c 1
 197 90 244 51 297 51 c 0
 365 51 416 109 443 245 c 0
 463 346 467 468 471 571 c 0
 472 590 493 611 516 611 c 0
 538 611 564 592 564 592 c 1
 569 201 600 89 650 45 c 0
 656 39 659 33 659 26 c 0
 659 15 652 3 639 -5 c 0
 628 -12 613 -16 600 -16 c 0
 588 -16 577 -13 570 -5 c 0
 539 30 517 83 503 173 c 1
 472 74 414 -21 298 -21 c 0
 251 -21 211 -3 181 29 c 1
 180 -41 180 -119 179 -205 c 0
 179 -224 157 -242 130 -245 c 0
 128 -245 125 -245 123 -245 c 0
 99 -245 81 -232 81 -215 c 0
 83 51 87 238 87 370 c 0
 87 457 85 521 81 567 c 0
 81 568 81 569 81 570 c 0
 81 588 101 606 127 610 c 0
EndSplineSet
Validated: 1
Layer: 2
SplineSet
127 610 m 0
 131 611 134 611 137 611 c 0
 159 611 177 600 179 583 c 0
 183 534 185 470 185 382 c 0
 185 327 184 263 183 188 c 1
 197 90 244 51 297 51 c 0
 365 51 416 109 443 245 c 0
 463 346 467 468 471 571 c 0
 472 590 493 611 516 611 c 0
 538 611 564 592 564 592 c 1
 569 201 600 89 650 45 c 0
 656 39 659 33 659 26 c 0
 659 15 652 3 639 -5 c 0
 628 -12 613 -16 600 -16 c 0
 588 -16 577 -13 570 -5 c 0
 539 30 517 83 503 173 c 1
 472 74 414 -21 298 -21 c 0
 251 -21 211 -3 181 29 c 1
 180 -41 180 -119 179 -205 c 0
 179 -224 157 -242 130 -245 c 0
 128 -245 125 -245 123 -245 c 0
 99 -245 81 -232 81 -215 c 0
 83 51 87 238 87 370 c 0
 87 457 85 521 81 567 c 0
 81 568 81 569 81 570 c 0
 81 588 101 606 127 610 c 0
EndSplineSet
Validated: 1
EndChar

StartChar: periodcentered
Encoding: 183 183 113
Width: 340
VWidth: 0
GlyphClass: 2
Flags: MW
LayerCount: 3
Fore
SplineSet
236 402 m 0
 238 400 254 385 254 361 c 0
 254 357 254 352 253 348 c 0
 248 322 215 285 160 285 c 0
 110 285 86 316 86 346 c 0
 86 369 108 422 180 422 c 0
 186 422 192 421 196 420 c 2
 212 416 l 2
 222 413 231 408 236 402 c 0
EndSplineSet
Validated: 1
Layer: 2
SplineSet
236 402 m 0
 238 400 254 385 254 361 c 0
 254 357 254 352 253 348 c 0
 248 322 215 285 160 285 c 0
 110 285 86 316 86 346 c 0
 86 369 108 422 180 422 c 0
 186 422 192 421 196 420 c 2
 212 416 l 2
 222 413 231 408 236 402 c 0
EndSplineSet
Validated: 1
EndChar

StartChar: questiondown
Encoding: 191 191 119
Width: 480
VWidth: 0
GlyphClass: 2
Flags: MW
LayerCount: 3
Fore
SplineSet
179 489 m 256
 177 491 161 506 161 530 c 256
 161 534 161 539 162 543 c 256
 167 569 200 606 255 606 c 256
 305 606 329 575 329 545 c 256
 329 522 307 469 235 469 c 256
 229 469 223 470 219 471 c 258
 203 475 l 258
 193 478 184 483 179 489 c 256
251 343 m 0
 258 345 265 346 271 346 c 0
 286 346 296 339 302 326 c 0
 314 298 319 273 319 250 c 0
 319 109 129 42 129 -64 c 0
 129 -92 136 -114 146 -131 c 0
 168 -168 209 -183 250 -183 c 0
 272 -183 293 -179 312 -172 c 0
 343 -159 372 -137 372 -101 c 0
 372 -86 366 -68 354 -47 c 0
 352 -43 350 -38 350 -34 c 0
 350 -20 362 -6 381 2 c 0
 389 5 398 7 406 7 c 0
 423 7 439 0 446 -11 c 0
 462 -37 469 -63 469 -88 c 0
 469 -152 420 -206 349 -234 c 0
 314 -248 275 -255 237 -255 c 0
 162 -255 90 -227 54 -167 c 0
 39 -141 31 -110 31 -74 c 0
 31 98 229 135 229 247 c 0
 229 262 226 278 218 296 c 0
 217 299 216 303 216 306 c 0
 216 321 230 336 251 343 c 0
EndSplineSet
Validated: 1
Layer: 2
SplineSet
179 489 m 256
 177 491 161 506 161 530 c 256
 161 534 161 539 162 543 c 256
 167 569 200 606 255 606 c 256
 305 606 329 575 329 545 c 256
 329 522 307 469 235 469 c 256
 229 469 223 470 219 471 c 258
 203 475 l 258
 193 478 184 483 179 489 c 256
251 343 m 0
 258 345 265 346 271 346 c 0
 286 346 296 339 302 326 c 0
 314 298 319 273 319 250 c 0
 319 109 129 42 129 -64 c 0
 129 -92 136 -114 146 -131 c 0
 168 -168 209 -183 250 -183 c 0
 272 -183 293 -179 312 -172 c 0
 343 -159 372 -137 372 -101 c 0
 372 -86 366 -68 354 -47 c 0
 352 -43 350 -38 350 -34 c 0
 350 -20 362 -6 381 2 c 0
 389 5 398 7 406 7 c 0
 423 7 439 0 446 -11 c 0
 462 -37 469 -63 469 -88 c 0
 469 -152 420 -206 349 -234 c 0
 314 -248 275 -255 237 -255 c 0
 162 -255 90 -227 54 -167 c 0
 39 -141 31 -110 31 -74 c 0
 31 98 229 135 229 247 c 0
 229 262 226 278 218 296 c 0
 217 299 216 303 216 306 c 0
 216 321 230 336 251 343 c 0
EndSplineSet
Validated: 1
EndChar

StartChar: Ccedilla
Encoding: 199 199 126
Width: 740
VWidth: 0
GlyphClass: 2
Flags: MW
LayerCount: 3
Fore
SplineSet
674 178 m 0
 695 174 707 160 707 145 c 0
 707 140 705 134 702 128 c 0
 654 51 557 -5 450 -18 c 1
 417 -76 l 1
 424 -75 433 -75 442 -75 c 0
 460 -75 480 -77 493 -82 c 0
 528 -96 544 -122 544 -150 c 0
 544 -173 533 -197 515 -215 c 0
 490 -240 452 -255 410 -255 c 0
 381 -255 349 -248 318 -232 c 0
 310 -228 305 -221 305 -214 c 0
 305 -208 308 -202 313 -197 c 0
 321 -189 333 -185 345 -185 c 0
 351 -185 357 -186 362 -188 c 0
 386 -200 405 -204 420 -204 c 0
 441 -204 454 -196 462 -188 c 0
 470 -180 474 -170 474 -160 c 0
 474 -147 467 -135 449 -126 c 0
 436 -120 418 -115 390 -115 c 0
 387 -115 385 -115 382 -115 c 0
 381 -115 379 -115 378 -115 c 0
 355 -115 349 -106 349 -98 c 0
 349 -91 353 -85 353 -84 c 2
 385 -20 l 1
 209 -12 58 118 58 387 c 0
 58 651 215 799 397 819 c 0
 410 820 422 821 435 821 c 0
 566 821 673 747 673 632 c 0
 673 610 647 589 616 586 c 2
 608 586 l 2
 581 586 559 600 559 620 c 0
 559 699 491 739 419 739 c 0
 412 739 404 739 397 738 c 0
 310 729 172 648 172 399 c 0
 172 137 315 62 422 62 c 0
 430 62 439 62 447 63 c 0
 510 70 568 101 598 150 c 0
 609 168 635 179 660 179 c 0
 665 179 669 179 674 178 c 0
EndSplineSet
Layer: 2
SplineSet
674 178 m 0
 695 174 707 160 707 145 c 0
 707 140 705 134 702 128 c 0
 654 51 557 -5 450 -18 c 1
 417 -76 l 1
 424 -75 433 -75 442 -75 c 0
 460 -75 480 -77 493 -82 c 0
 528 -96 544 -122 544 -150 c 0
 544 -173 533 -197 515 -215 c 0
 490 -240 452 -255 410 -255 c 0
 381 -255 349 -248 318 -232 c 0
 310 -228 305 -221 305 -214 c 0
 305 -208 308 -202 313 -197 c 0
 321 -189 333 -185 345 -185 c 0
 351 -185 357 -186 362 -188 c 0
 386 -200 405 -204 420 -204 c 0
 441 -204 454 -196 462 -188 c 0
 470 -180 474 -170 474 -160 c 0
 474 -147 467 -135 449 -126 c 0
 436 -120 418 -115 390 -115 c 0
 387 -115 385 -115 382 -115 c 0
 381 -115 379 -115 378 -115 c 0
 355 -115 349 -106 349 -98 c 0
 349 -91 353 -85 353 -84 c 2
 385 -20 l 1
 209 -12 58 118 58 387 c 0
 58 651 215 799 397 819 c 0
 410 820 422 821 435 821 c 0
 566 821 673 747 673 632 c 0
 673 610 647 589 616 586 c 2
 608 586 l 2
 581 586 559 600 559 620 c 0
 559 699 491 739 419 739 c 0
 412 739 404 739 397 738 c 0
 310 729 172 648 172 399 c 0
 172 137 315 62 422 62 c 0
 430 62 439 62 447 63 c 0
 510 70 568 101 598 150 c 0
 609 168 635 179 660 179 c 0
 665 179 669 179 674 178 c 0
EndSplineSet
Validated: 1
Colour: ff0000
EndChar

StartChar: Eth
Encoding: 208 208 135
Width: 800
VWidth: 0
GlyphClass: 2
Flags: MW
LayerCount: 3
Back
SplineSet
395 370 m 5
 256 365 133 367 45 375 c 1029
EndSplineSet
Fore
SplineSet
439 372 m 0
 436 355 414 340 390 339 c 0
 338 337 289 336 242 336 c 0
 239 336 236 336 233 336 c 0
 232 230 229 129 229 80 c 1
 241 70 282 59 333 59 c 0
 386 59 449 70 502 106 c 0
 568 150 630 236 630 400 c 0
 630 424 629 449 626 476 c 0
 605 673 490 742 361 742 c 0
 339 742 317 740 295 736 c 0
 235 726 170 704 109 670 c 0
 98 664 86 661 74 661 c 0
 58 661 43 666 34 675 c 0
 28 681 26 687 26 694 c 0
 26 707 35 721 51 730 c 0
 125 771 206 800 287 813 c 0
 317 818 346 820 375 820 c 0
 562 820 711 717 734 494 c 0
 737 465 739 438 739 412 c 0
 739 123 550 1 370 -18 c 0
 351 -20 332 -21 313 -21 c 0
 228 -21 151 -1 127 42 c 0
 123 48 121 56 121 64 c 0
 121 113 124 226 125 338 c 1
 91 339 60 342 32 344 c 0
 13 346 0 357 0 370 c 0
 0 373 1 376 2 379 c 0
 8 395 31 406 53 406 c 0
 55 406 56 406 58 406 c 0
 78 404 101 402 125 401 c 1
 125 478 122 550 116 596 c 1
 116 600 l 2
 116 620 138 638 165 643 c 0
 169 644 173 644 177 644 c 0
 201 644 221 632 224 614 c 0
 231 562 233 481 233 398 c 1
 241 398 249 398 257 398 c 0
 302 398 350 399 400 401 c 0
 401 401 402 401 403 401 c 0
 424 401 439 391 439 376 c 0
 439 375 439 373 439 372 c 0
EndSplineSet
Validated: 1
Layer: 2
SplineSet
439 372 m 0
 436 355 414 340 390 339 c 0
 338 337 289 336 242 336 c 0
 239 336 236 336 233 336 c 0
 232 230 229 129 229 80 c 1
 241 70 282 59 333 59 c 0
 386 59 449 70 502 106 c 0
 568 150 630 236 630 400 c 0
 630 424 629 449 626 476 c 0
 605 673 490 742 361 742 c 0
 339 742 317 740 295 736 c 0
 235 726 170 704 109 670 c 0
 98 664 86 661 74 661 c 0
 58 661 43 666 34 675 c 0
 28 681 26 687 26 694 c 0
 26 707 35 721 51 730 c 0
 125 771 206 800 287 813 c 0
 317 818 346 820 375 820 c 0
 562 820 711 717 734 494 c 0
 737 465 739 438 739 412 c 0
 739 123 550 1 370 -18 c 0
 351 -20 332 -21 313 -21 c 0
 228 -21 151 -1 127 42 c 0
 123 48 121 56 121 64 c 0
 121 113 124 226 125 338 c 1
 91 339 60 342 32 344 c 0
 13 346 0 357 0 370 c 0
 0 373 1 376 2 379 c 0
 8 395 31 406 53 406 c 0
 55 406 56 406 58 406 c 0
 78 404 101 402 125 401 c 1
 125 478 122 550 116 596 c 1
 116 600 l 2
 116 620 138 638 165 643 c 0
 169 644 173 644 177 644 c 0
 201 644 221 632 224 614 c 0
 231 562 233 481 233 398 c 1
 241 398 249 398 257 398 c 0
 302 398 350 399 400 401 c 0
 401 401 402 401 403 401 c 0
 424 401 439 391 439 376 c 0
 439 375 439 373 439 372 c 0
EndSplineSet
Validated: 1
Colour: ff0000
EndChar

StartChar: multiply
Encoding: 215 215 142
Width: 600
VWidth: 0
GlyphClass: 2
Flags: HMW
LayerCount: 3
Back
SplineSet
135 515 m 4
 241 415 358 290 470 165 c 1028
465 515 m 4
 336 387 257 293 140 165 c 1028
EndSplineSet
Fore
SplineSet
496 546 m 0
 508 540 514 531 514 521 c 0
 514 513 510 504 503 497 c 0
 450 444 405 397 363 351 c 1
 413 298 464 242 513 187 c 0
 518 182 520 176 520 170 c 0
 520 158 511 145 495 137 c 0
 485 132 475 130 464 130 c 0
 449 130 435 134 427 143 c 0
 385 190 342 237 300 282 c 1
 262 240 224 196 180 148 c 0
 169 136 150 129 132 129 c 0
 124 129 118 130 111 133 c 0
 98 138 91 149 91 160 c 0
 91 167 94 175 100 182 c 0
 153 240 198 290 244 341 c 1
 193 395 142 446 94 491 c 0
 88 496 86 502 86 509 c 0
 86 520 93 533 107 541 c 0
 117 547 130 550 142 550 c 0
 155 550 168 546 176 539 c 0
 218 499 262 456 307 410 c 1
 343 449 382 489 427 533 c 0
 438 544 456 551 473 551 c 0
 481 551 489 549 496 546 c 0
EndSplineSet
Validated: 1
Layer: 2
SplineSet
496 546 m 0
 508 540 514 531 514 521 c 0
 514 513 510 504 503 497 c 0
 450 444 405 397 363 351 c 1
 413 298 464 242 513 187 c 0
 518 182 520 176 520 170 c 0
 520 158 511 145 495 137 c 0
 485 132 475 130 464 130 c 0
 449 130 435 134 427 143 c 0
 385 190 342 237 300 282 c 1
 262 240 224 196 180 148 c 0
 169 136 150 129 132 129 c 0
 124 129 118 130 111 133 c 0
 98 138 91 149 91 160 c 0
 91 167 94 175 100 182 c 0
 153 240 198 290 244 341 c 1
 193 395 142 446 94 491 c 0
 88 496 86 502 86 509 c 0
 86 520 93 533 107 541 c 0
 117 547 130 550 142 550 c 0
 155 550 168 546 176 539 c 0
 218 499 262 456 307 410 c 1
 343 449 382 489 427 533 c 0
 438 544 456 551 473 551 c 0
 481 551 489 549 496 546 c 0
EndSplineSet
Validated: 1
Colour: ff0000
EndChar

StartChar: Oslash
Encoding: 216 216 143
Width: 820
VWidth: 0
GlyphClass: 2
Flags: MW
LayerCount: 3
Back
SplineSet
750 765 m 5
 588 567 259 210 80 35 c 1029
EndSplineSet
Fore
SplineSet
764 788 m 0
 774 784 779 777 779 769 c 0
 779 764 778 759 774 754 c 0
 750 725 722 692 692 657 c 0
 693 655 693 654 694 652 c 0
 695 649 695 647 695 644 c 0
 695 635 690 624 681 616 c 1
 740 572 762 472 762 390 c 0
 762 156 627 0 442 -20 c 0
 429 -21 417 -22 404 -22 c 0
 310 -22 226 15 164 83 c 1
 142 61 121 41 102 22 c 0
 94 14 81 10 69 10 c 0
 63 10 58 11 53 13 c 0
 45 17 41 24 41 32 c 0
 41 38 43 43 48 48 c 0
 72 72 100 99 129 129 c 1
 86 195 61 282 61 385 c 0
 61 620 180 766 341 809 c 0
 372 817 403 821 433 821 c 0
 530 821 615 780 663 713 c 1
 682 735 700 756 716 776 c 0
 723 785 736 791 749 791 c 0
 754 791 759 790 764 788 c 0
582 619 m 0
 584 621 585 623 587 625 c 0
 560 704 487 742 416 742 c 0
 398 742 381 740 364 735 c 0
 279 713 169 620 169 397 c 0
 169 321 184 258 207 209 c 1
 324 332 459 479 571 607 c 0
 572 608 l 0
 575 612 578 616 582 619 c 0
602 554 m 1
 486 423 352 277 237 158 c 1
 289 87 362 57 423 57 c 0
 429 57 436 57 442 58 c 0
 531 68 654 155 654 378 c 0
 654 449 622 531 602 554 c 1
EndSplineSet
Validated: 1
Layer: 2
SplineSet
764 788 m 0
 774 784 779 777 779 769 c 0
 779 764 778 759 774 754 c 0
 750 725 722 692 692 657 c 0
 693 655 693 654 694 652 c 0
 695 649 695 647 695 644 c 0
 695 635 690 624 681 616 c 1
 740 572 762 472 762 390 c 0
 762 156 627 0 442 -20 c 0
 429 -21 417 -22 404 -22 c 0
 310 -22 226 15 164 83 c 1
 142 61 121 41 102 22 c 0
 94 14 81 10 69 10 c 0
 63 10 58 11 53 13 c 0
 45 17 41 24 41 32 c 0
 41 38 43 43 48 48 c 0
 72 72 100 99 129 129 c 1
 86 195 61 282 61 385 c 0
 61 620 180 766 341 809 c 0
 372 817 403 821 433 821 c 0
 530 821 615 780 663 713 c 1
 682 735 700 756 716 776 c 0
 723 785 736 791 749 791 c 0
 754 791 759 790 764 788 c 0
582 619 m 0
 584 621 585 623 587 625 c 0
 560 704 487 742 416 742 c 0
 398 742 381 740 364 735 c 0
 279 713 169 620 169 397 c 0
 169 321 184 258 207 209 c 1
 324 332 459 479 571 607 c 0
 572 608 l 0
 575 612 578 616 582 619 c 0
602 554 m 1
 486 423 352 277 237 158 c 1
 289 87 362 57 423 57 c 0
 429 57 436 57 442 58 c 0
 531 68 654 155 654 378 c 0
 654 449 622 531 602 554 c 1
EndSplineSet
Validated: 1
Colour: ff0000
EndChar

StartChar: Thorn
Encoding: 222 222 149
Width: 810
VWidth: 0
GlyphClass: 2
Flags: MW
LayerCount: 3
Back
SplineSet
199 535 m 5
 867 898 876 -28 207 275 c 1029
305 775 m 1
 228 770 167 756 65 760 c 1
 136 742 190 757 191 680 c 0
 193 460 195 313 195 100 c 0
 195 35 233 42 325 37 c 1
 237 22 187 26 75 31 c 1025
EndSplineSet
Fore
SplineSet
369 779 m 0
 366 759 339 741 310 739 c 0
 305 739 301 739 296 739 c 0
 287 739 279 739 270 739 c 0
 262 739 249 739 241 738 c 1
 248 724 250 710 250 692 c 0
 250 659 251 628 251 597 c 1
 346 640 433 660 506 660 c 0
 554 660 596 652 633 635 c 0
 724 593 770 513 770 431 c 0
 770 375 749 317 706 270 c 0
 652 210 569 176 465 176 c 0
 402 176 331 189 254 216 c 1
 254 178 254 138 254 97 c 0
 254 89 254 83 254 79 c 0
 254 70 255 68 266 68 c 0
 273 68 291 69 309 69 c 0
 320 69 333 72 349 73 c 1
 349 73 369 49 369 29 c 0
 369 17 362 6 339 2 c 0
 288 -7 247 -10 204 -10 c 0
 165 -10 123 -7 71 -5 c 0
 46 -4 30 8 30 24 c 0
 30 27 31 30 32 33 c 0
 39 52 68 67 96 67 c 0
 97 67 98 67 99 67 c 0
 120 66 136 61 154 60 c 1
 152 68 151 78 151 88 c 0
 151 301 149 458 147 678 c 0
 146 735 142 702 48 726 c 0
 39 728 36 733 36 738 c 0
 36 759 88 796 88 796 c 1
 100 795 111 795 122 795 c 0
 195 795 245 806 320 811 c 0
 322 811 323 811 325 811 c 0
 350 811 369 799 369 782 c 0
 369 781 369 780 369 779 c 0
252 516 m 1
 253 444 253 375 253 304 c 1
 341 264 410 250 465 250 c 0
 542 250 590 279 618 310 c 0
 645 340 659 379 659 418 c 0
 659 477 628 536 568 563 c 0
 544 574 514 582 476 582 c 0
 420 582 346 565 252 516 c 1
EndSplineSet
Validated: 1
Layer: 2
SplineSet
369 779 m 0
 366 759 339 741 310 739 c 0
 305 739 301 739 296 739 c 0
 287 739 279 739 270 739 c 0
 262 739 249 739 241 738 c 1
 248 724 250 710 250 692 c 0
 250 659 251 628 251 597 c 1
 346 640 433 660 506 660 c 0
 554 660 596 652 633 635 c 0
 724 593 770 513 770 431 c 0
 770 375 749 317 706 270 c 0
 652 210 569 176 465 176 c 0
 402 176 331 189 254 216 c 1
 254 178 254 138 254 97 c 0
 254 89 254 83 254 79 c 0
 254 70 255 68 266 68 c 0
 273 68 291 69 309 69 c 0
 320 69 333 72 349 73 c 1
 349 73 369 49 369 29 c 0
 369 17 362 6 339 2 c 0
 288 -7 247 -10 204 -10 c 0
 165 -10 123 -7 71 -5 c 0
 46 -4 30 8 30 24 c 0
 30 27 31 30 32 33 c 0
 39 52 68 67 96 67 c 0
 97 67 98 67 99 67 c 0
 120 66 136 61 154 60 c 1
 152 68 151 78 151 88 c 0
 151 301 149 458 147 678 c 0
 146 735 142 702 48 726 c 0
 39 728 36 733 36 738 c 0
 36 759 88 796 88 796 c 1
 100 795 111 795 122 795 c 0
 195 795 245 806 320 811 c 0
 322 811 323 811 325 811 c 0
 350 811 369 799 369 782 c 0
 369 781 369 780 369 779 c 0
252 516 m 1
 253 444 253 375 253 304 c 1
 341 264 410 250 465 250 c 0
 542 250 590 279 618 310 c 0
 645 340 659 379 659 418 c 0
 659 477 628 536 568 563 c 0
 544 574 514 582 476 582 c 0
 420 582 346 565 252 516 c 1
EndSplineSet
Validated: 1
Colour: ff0000
EndChar

StartChar: germandbls
Encoding: 223 223 150
Width: 770
VWidth: 0
GlyphClass: 2
Flags: MW
AnchorPoint: "LatinAbove.mark_1" 420 0 basechar 0
LayerCount: 3
Back
SplineSet
331 115 m 5
 355 74 407 16 508 16 c 4
 707 16 747 257 600 325 c 4
 578 335 476 372 450 385 c 4
 310 453 377 615 565 615 c 5
 482 953 134 843 150 630 c 4
 164 437 169 232 165 15 c 1029
EndSplineSet
Fore
SplineSet
308 146 m 0
 316 149 325 151 333 151 c 0
 350 151 365 144 372 133 c 0
 394 95 437 52 510 52 c 0
 550 52 575 63 596 84 c 0
 620 108 632 142 632 177 c 0
 632 224 610 273 564 294 c 1
 545 303 444 339 413 354 c 1
 359 381 329 419 322 460 c 0
 321 466 320 473 320 479 c 0
 320 549 386 622 499 644 c 1
 457 763 382 795 330 795 c 0
 324 795 319 795 314 794 c 0
 260 786 194 736 194 650 c 0
 194 646 194 641 194 637 c 1
 205 486 210 328 210 163 c 0
 210 116 210 68 209 20 c 0
 209 1 186 -17 159 -20 c 0
 157 -20 154 -20 152 -20 c 0
 129 -20 111 -7 111 10 c 0
 112 58 112 105 112 152 c 0
 112 316 107 474 96 623 c 0
 96 628 95 634 95 639 c 0
 95 749 184 846 309 864 c 0
 322 866 334 867 347 867 c 0
 467 867 570 785 609 626 c 0
 610 622 611 618 611 614 c 0
 611 582 572 579 558 579 c 0
 555 579 553 579 553 579 c 0
 471 579 429 543 421 503 c 0
 420 499 420 494 420 490 c 0
 420 463 436 436 477 416 c 1
 498 405 600 368 626 356 c 1
 699 322 734 257 734 191 c 0
 734 140 714 89 674 49 c 0
 634 9 571 -20 496 -20 c 0
 367 -20 306 53 280 97 c 0
 278 101 277 105 277 109 c 0
 277 123 289 138 308 146 c 0
EndSplineSet
Validated: 1
Layer: 2
SplineSet
308 146 m 0
 316 149 325 151 333 151 c 0
 350 151 365 144 372 133 c 0
 394 95 437 52 510 52 c 0
 550 52 575 63 596 84 c 0
 620 108 632 142 632 177 c 0
 632 224 610 273 564 294 c 1
 545 303 444 339 413 354 c 1
 359 381 329 419 322 460 c 0
 321 466 320 473 320 479 c 0
 320 549 386 622 499 644 c 1
 457 763 382 795 330 795 c 0
 324 795 319 795 314 794 c 0
 260 786 194 736 194 650 c 0
 194 646 194 641 194 637 c 1
 205 486 210 328 210 163 c 0
 210 116 210 68 209 20 c 0
 209 1 186 -17 159 -20 c 0
 157 -20 154 -20 152 -20 c 0
 129 -20 111 -7 111 10 c 0
 112 58 112 105 112 152 c 0
 112 316 107 474 96 623 c 0
 96 628 95 634 95 639 c 0
 95 749 184 846 309 864 c 0
 322 866 334 867 347 867 c 0
 467 867 570 785 609 626 c 0
 610 622 611 618 611 614 c 0
 611 582 572 579 558 579 c 0
 555 579 553 579 553 579 c 0
 471 579 429 543 421 503 c 0
 420 499 420 494 420 490 c 0
 420 463 436 436 477 416 c 1
 498 405 600 368 626 356 c 1
 699 322 734 257 734 191 c 0
 734 140 714 89 674 49 c 0
 634 9 571 -20 496 -20 c 0
 367 -20 306 53 280 97 c 0
 278 101 277 105 277 109 c 0
 277 123 289 138 308 146 c 0
EndSplineSet
Validated: 1
Colour: ff0000
EndChar

StartChar: ccedilla
Encoding: 231 231 157
Width: 590
VWidth: 0
GlyphClass: 2
Flags: MW
LayerCount: 3
Fore
SplineSet
527 141 m 0
 546 137 557 124 557 110 c 0
 557 105 555 99 552 94 c 0
 515 34 441 -8 360 -19 c 1
 327 -76 l 1
 334 -75 343 -75 352 -75 c 0
 370 -75 390 -77 403 -82 c 0
 438 -96 454 -122 454 -150 c 0
 454 -173 443 -197 425 -215 c 0
 400 -240 362 -255 320 -255 c 0
 291 -255 259 -248 228 -232 c 0
 220 -228 215 -221 215 -214 c 0
 215 -208 218 -202 223 -197 c 0
 231 -189 243 -185 255 -185 c 0
 261 -185 267 -186 272 -188 c 0
 296 -200 315 -204 330 -204 c 0
 351 -204 364 -196 372 -188 c 0
 380 -180 384 -170 384 -160 c 0
 384 -147 377 -135 359 -126 c 0
 346 -120 328 -115 300 -115 c 0
 297 -115 295 -115 292 -115 c 0
 291 -115 289 -115 288 -115 c 0
 265 -115 259 -106 259 -98 c 0
 259 -91 263 -85 263 -84 c 2
 294 -21 l 1
 161 -10 53 92 53 290 c 0
 53 490 173 607 317 622 c 0
 327 623 337 624 346 624 c 0
 449 624 532 565 532 475 c 0
 532 455 508 436 480 433 c 2
 473 433 l 2
 448 433 428 447 428 465 c 0
 428 520 381 548 332 548 c 0
 327 548 322 548 317 547 c 0
 259 541 157 485 157 300 c 0
 157 105 262 54 335 54 c 0
 341 54 347 54 352 55 c 0
 396 60 437 82 458 116 c 0
 468 132 490 143 512 143 c 0
 517 143 522 142 527 141 c 0
EndSplineSet
Layer: 2
SplineSet
527 141 m 0
 546 137 557 124 557 110 c 0
 557 105 555 99 552 94 c 0
 515 34 441 -8 360 -19 c 1
 327 -76 l 1
 334 -75 343 -75 352 -75 c 0
 370 -75 390 -77 403 -82 c 0
 438 -96 454 -122 454 -150 c 0
 454 -173 443 -197 425 -215 c 0
 400 -240 362 -255 320 -255 c 0
 291 -255 259 -248 228 -232 c 0
 220 -228 215 -221 215 -214 c 0
 215 -208 218 -202 223 -197 c 0
 231 -189 243 -185 255 -185 c 0
 261 -185 267 -186 272 -188 c 0
 296 -200 315 -204 330 -204 c 0
 351 -204 364 -196 372 -188 c 0
 380 -180 384 -170 384 -160 c 0
 384 -147 377 -135 359 -126 c 0
 346 -120 328 -115 300 -115 c 0
 297 -115 295 -115 292 -115 c 0
 291 -115 289 -115 288 -115 c 0
 265 -115 259 -106 259 -98 c 0
 259 -91 263 -85 263 -84 c 2
 294 -21 l 1
 161 -10 53 92 53 290 c 0
 53 490 173 607 317 622 c 0
 327 623 337 624 346 624 c 0
 449 624 532 565 532 475 c 0
 532 455 508 436 480 433 c 2
 473 433 l 2
 448 433 428 447 428 465 c 0
 428 520 381 548 332 548 c 0
 327 548 322 548 317 547 c 0
 259 541 157 485 157 300 c 0
 157 105 262 54 335 54 c 0
 341 54 347 54 352 55 c 0
 396 60 437 82 458 116 c 0
 468 132 490 143 512 143 c 0
 517 143 522 142 527 141 c 0
EndSplineSet
Validated: 1
Colour: ff0000
EndChar

StartChar: igrave
Encoding: 236 236 162
Width: 330
VWidth: 0
GlyphClass: 2
Flags: HMW
LayerCount: 3
Back
SplineSet
70 854 m 5
 96 884 l 5
 160 817 228 729 240 714 c 5
 223 725 142 804 70 854 c 5
EndSplineSet
Fore
Refer: 219 768 N 1 0 0 1 170 0 2
Refer: 182 305 N 1 0 0 1 0 0 3
Validated: 1
Layer: 2
Refer: 219 768 N 1 0 0 1 170 0 2
Refer: 182 305 N 1 0 0 1 0 0 3
Validated: 1
Colour: ff0000
EndChar

StartChar: iacute
Encoding: 237 237 163
Width: 330
VWidth: 0
GlyphClass: 2
Flags: HMW
LayerCount: 3
Back
SplineSet
270 854 m 5
 198 804 117 725 100 714 c 5
 112 729 180 817 244 884 c 5
 270 854 l 5
EndSplineSet
Fore
Refer: 220 769 N 1 0 0 1 170 0 2
Refer: 182 305 N 1 0 0 1 0 0 3
Validated: 1
Layer: 2
Refer: 220 769 N 1 0 0 1 170 0 2
Refer: 182 305 N 1 0 0 1 0 0 3
Validated: 1
Colour: ff0000
EndChar

StartChar: icircumflex
Encoding: 238 238 164
Width: 330
VWidth: 0
GlyphClass: 2
Flags: HMW
LayerCount: 3
Back
SplineSet
170 885 m 5
 232 820 289 738 295 726 c 5
 283 733 229 803 172 855 c 5
 121 807 58 733 45 726 c 5
 51 738 116 821 170 885 c 5
EndSplineSet
Fore
Refer: 221 770 N 1 0 0 1 170 0 2
Refer: 182 305 N 1 0 0 1 0 0 3
Validated: 1
Layer: 2
Refer: 221 770 N 1 0 0 1 170 0 2
Refer: 182 305 N 1 0 0 1 0 0 3
Validated: 1
Colour: ff0000
EndChar

StartChar: eth
Encoding: 240 240 166
Width: 655
VWidth: 0
GlyphClass: 2
Flags: MW
LayerCount: 3
Back
SplineSet
565 840 m 4
 466 790 340 753 180 735 c 1028
280 870 m 5
 338 839 429 744 490 605 c 4
 529 517 555 411 555 290 c 4
 555 -78 110 -76 110 295 c 4
 110 637 450 652 505 480 c 1029
EndSplineSet
Fore
SplineSet
243 893 m 0
 253 900 264 903 274 903 c 2
 303 895 l 1
 332 878 368 850 404 811 c 1
 455 827 501 845 541 865 c 0
 549 869 557 871 565 871 c 0
 577 871 589 866 595 858 c 0
 598 854 600 849 600 844 c 0
 600 833 592 822 579 815 c 0
 539 795 494 777 445 761 c 1
 475 721 503 674 527 620 c 0
 567 529 599 420 599 295 c 0
 599 119 498 -3 351 -19 c 0
 340 -20 330 -21 320 -21 c 0
 172 -21 56 99 56 290 c 0
 56 468 145 579 272 614 c 0
 296 621 319 624 341 624 c 0
 378 624 411 615 439 600 c 1
 415 655 387 700 360 737 c 1
 304 723 243 713 176 705 c 0
 174 705 173 705 171 705 c 0
 151 705 136 716 135 731 c 2
 135 732 l 2
 135 748 153 763 174 765 c 0
 226 771 273 778 317 788 c 1
 292 813 268 831 247 840 c 0
 236 845 231 856 231 867 c 0
 231 877 235 887 243 893 c 0
154 300 m 0
 154 118 264 51 338 51 c 0
 342 51 346 52 350 52 c 0
 409 58 501 119 501 285 c 0
 501 342 496 396 487 446 c 1
 477 448 471 456 467 467 c 0
 449 524 395 553 339 553 c 0
 324 553 309 551 294 547 c 0
 237 530 154 466 154 300 c 0
EndSplineSet
Validated: 1
Layer: 2
SplineSet
243 893 m 0
 253 900 264 903 274 903 c 2
 303 895 l 1
 332 878 368 850 404 811 c 1
 455 827 501 845 541 865 c 0
 549 869 557 871 565 871 c 0
 577 871 589 866 595 858 c 0
 598 854 600 849 600 844 c 0
 600 833 592 822 579 815 c 0
 539 795 494 777 445 761 c 1
 475 721 503 674 527 620 c 0
 567 529 599 420 599 295 c 0
 599 119 498 -3 351 -19 c 0
 340 -20 330 -21 320 -21 c 0
 172 -21 56 99 56 290 c 0
 56 468 145 579 272 614 c 0
 296 621 319 624 341 624 c 0
 378 624 411 615 439 600 c 1
 415 655 387 700 360 737 c 1
 304 723 243 713 176 705 c 0
 174 705 173 705 171 705 c 0
 151 705 136 716 135 731 c 2
 135 732 l 2
 135 748 153 763 174 765 c 0
 226 771 273 778 317 788 c 1
 292 813 268 831 247 840 c 0
 236 845 231 856 231 867 c 0
 231 877 235 887 243 893 c 0
154 300 m 0
 154 118 264 51 338 51 c 0
 342 51 346 52 350 52 c 0
 409 58 501 119 501 285 c 0
 501 342 496 396 487 446 c 1
 477 448 471 456 467 467 c 0
 449 524 395 553 339 553 c 0
 324 553 309 551 294 547 c 0
 237 530 154 466 154 300 c 0
EndSplineSet
Validated: 1
Colour: ff0000
EndChar

StartChar: divide
Encoding: 247 247 173
Width: 600
VWidth: 0
GlyphClass: 2
Flags: MW
LayerCount: 3
Back
SplineSet
475 340 m 5
 336 335 213 337 125 345 c 1029
EndSplineSet
Fore
SplineSet
353 548 m 0
 355 545 371 532 371 510 c 0
 371 506 370 502 369 498 c 0
 365 474 335 442 287 442 c 0
 243 442 221 469 221 497 c 0
 221 518 243 565 305 565 c 0
 310 565 315 565 318 564 c 2
 334 560 l 2
 342 558 349 553 353 548 c 0
353 226 m 0
 355 223 371 210 371 188 c 0
 371 184 370 180 369 176 c 0
 365 152 335 120 287 120 c 0
 243 120 221 147 221 175 c 0
 221 196 243 243 305 243 c 0
 310 243 315 243 318 242 c 2
 334 238 l 2
 342 236 349 231 353 226 c 0
EndSplineSet
Refer: 17 45 N 1 0 0 1 0 0 2
Validated: 1
Layer: 2
SplineSet
353 548 m 0
 355 545 371 532 371 510 c 0
 371 506 370 502 369 498 c 0
 365 474 335 442 287 442 c 0
 243 442 221 469 221 497 c 0
 221 518 243 565 305 565 c 0
 310 565 315 565 318 564 c 2
 334 560 l 2
 342 558 349 553 353 548 c 0
353 226 m 0
 355 223 371 210 371 188 c 0
 371 184 370 180 369 176 c 0
 365 152 335 120 287 120 c 0
 243 120 221 147 221 175 c 0
 221 196 243 243 305 243 c 0
 310 243 315 243 318 242 c 2
 334 238 l 2
 342 236 349 231 353 226 c 0
EndSplineSet
Refer: 17 45 N 1 0 0 1 0 0 2
Validated: 1
Colour: ff0000
EndChar

StartChar: oslash
Encoding: 248 248 174
Width: 650
VWidth: 0
GlyphClass: 2
Flags: MW
LayerCount: 3
Back
SplineSet
580 585 m 5
 418 386 265 215 80 35 c 1029
EndSplineSet
Fore
SplineSet
594 608 m 0
 604 604 609 597 609 589 c 0
 609 584 608 579 604 574 c 0
 584 550 565 526 545 502 c 0
 546 499 547 496 548 493 c 0
 549 491 549 488 549 486 c 0
 549 479 546 472 541 465 c 1
 583 428 599 356 599 295 c 0
 599 119 498 -3 351 -19 c 0
 341 -20 330 -21 320 -21 c 0
 249 -21 185 6 138 56 c 1
 126 44 114 33 102 21 c 0
 94 13 82 9 70 9 c 0
 64 9 58 11 53 13 c 0
 45 17 41 24 41 32 c 0
 41 38 43 44 48 49 c 0
 67 67 85 85 103 103 c 1
 73 153 56 216 56 290 c 0
 56 468 145 580 272 614 c 0
 297 621 321 624 345 624 c 0
 413 624 473 598 512 555 c 1
 523 569 535 582 546 596 c 0
 553 605 566 611 579 611 c 0
 584 611 589 610 594 608 c 0
467 410 m 1
 382 312 297 217 205 123 c 1
 243 72 296 51 338 51 c 0
 342 51 346 52 350 52 c 0
 409 58 501 119 501 285 c 0
 501 334 481 390 467 410 c 1
175 176 m 1
 270 274 359 373 448 478 c 1
 426 529 376 552 329 552 c 0
 316 552 304 550 292 547 c 0
 235 531 154 464 154 300 c 0
 154 251 162 209 175 176 c 1
EndSplineSet
Validated: 1
Layer: 2
SplineSet
594 608 m 0
 604 604 609 597 609 589 c 0
 609 584 608 579 604 574 c 0
 584 550 565 526 545 502 c 0
 546 499 547 496 548 493 c 0
 549 491 549 488 549 486 c 0
 549 479 546 472 541 465 c 1
 583 428 599 356 599 295 c 0
 599 119 498 -3 351 -19 c 0
 341 -20 330 -21 320 -21 c 0
 249 -21 185 6 138 56 c 1
 126 44 114 33 102 21 c 0
 94 13 82 9 70 9 c 0
 64 9 58 11 53 13 c 0
 45 17 41 24 41 32 c 0
 41 38 43 44 48 49 c 0
 67 67 85 85 103 103 c 1
 73 153 56 216 56 290 c 0
 56 468 145 580 272 614 c 0
 297 621 321 624 345 624 c 0
 413 624 473 598 512 555 c 1
 523 569 535 582 546 596 c 0
 553 605 566 611 579 611 c 0
 584 611 589 610 594 608 c 0
467 410 m 1
 382 312 297 217 205 123 c 1
 243 72 296 51 338 51 c 0
 342 51 346 52 350 52 c 0
 409 58 501 119 501 285 c 0
 501 334 481 390 467 410 c 1
175 176 m 1
 270 274 359 373 448 478 c 1
 426 529 376 552 329 552 c 0
 316 552 304 550 292 547 c 0
 235 531 154 464 154 300 c 0
 154 251 162 209 175 176 c 1
EndSplineSet
Validated: 1
Colour: ff0000
EndChar

StartChar: thorn
Encoding: 254 254 180
Width: 670
VWidth: 0
GlyphClass: 2
Flags: MW
LayerCount: 3
Back
SplineSet
115 810 m 5
 140 746 154 136 140 -210 c 1029
145 300 m 5
 164 414 200 585 350 585 c 4
 642 585 631 20 330 20 c 4
 175 20 150 197 148 220 c 1030
EndSplineSet
Fore
SplineSet
97 843 m 0
 103 845 111 846 117 846 c 0
 136 846 153 838 158 824 c 0
 170 793 179 681 184 534 c 1
 219 584 271 621 352 621 c 0
 537 621 607 465 607 320 c 0
 607 291 604 262 599 235 c 0
 575 118 491 -16 318 -16 c 0
 261 -16 219 2 189 29 c 1
 188 -55 187 -135 184 -206 c 0
 183 -225 161 -244 134 -246 c 0
 132 -246 131 -246 129 -246 c 0
 105 -246 86 -232 86 -215 c 2
 86 -214 l 2
 89 -129 91 -28 91 78 c 0
 91 399 77 758 62 796 c 0
 61 799 60 802 60 805 c 0
 60 821 75 836 97 843 c 0
190 189 m 1
 205 137 243 56 332 56 c 0
 411 56 478 121 501 235 c 0
 506 259 508 283 508 307 c 0
 508 438 437 549 338 549 c 0
 253 549 212 469 188 350 c 1
 189 297 190 243 190 189 c 1
EndSplineSet
Validated: 1
Layer: 2
SplineSet
97 843 m 0
 103 845 111 846 117 846 c 0
 136 846 153 838 158 824 c 0
 170 793 179 681 184 534 c 1
 219 584 271 621 352 621 c 0
 537 621 607 465 607 320 c 0
 607 291 604 262 599 235 c 0
 575 118 491 -16 318 -16 c 0
 261 -16 219 2 189 29 c 1
 188 -55 187 -135 184 -206 c 0
 183 -225 161 -244 134 -246 c 0
 132 -246 131 -246 129 -246 c 0
 105 -246 86 -232 86 -215 c 2
 86 -214 l 2
 89 -129 91 -28 91 78 c 0
 91 399 77 758 62 796 c 0
 61 799 60 802 60 805 c 0
 60 821 75 836 97 843 c 0
190 189 m 1
 205 137 243 56 332 56 c 0
 411 56 478 121 501 235 c 0
 506 259 508 283 508 307 c 0
 508 438 437 549 338 549 c 0
 253 549 212 469 188 350 c 1
 189 297 190 243 190 189 c 1
EndSplineSet
Validated: 1
Colour: ff0000
EndChar

